<svg version="1.1" viewBox="0.0 0.0 731.6587926509186 242.20997375328085" fill="none" stroke="none" stroke-linecap="square" stroke-miterlimit="10" xmlns:xlink="http://www.w3.org/1999/xlink" xmlns="http://www.w3.org/2000/svg"><clipPath id="p.0"><path d="m0 0l731.6588 0l0 242.20998l-731.6588 0l0 -242.20998z" clip-rule="nonzero"/></clipPath><g clip-path="url(#p.0)"><path fill="#000000" fill-opacity="0.0" d="m0 0l731.6588 0l0 242.20998l-731.6588 0z" fill-rule="evenodd"/><path fill="#9fc5e8" d="m261.41705 121.3937l44.787415 0l0 48.000008l-44.787415 0z" fill-rule="evenodd"/><path stroke="#000000" stroke-width="4.0" stroke-linejoin="round" stroke-linecap="butt" d="m261.41705 121.3937l44.787415 0l0 48.000008l-44.787415 0z" fill-rule="evenodd"/><path fill="#3c78d8" d="m440.6197 121.3937l44.787384 0l0 48.000008l-44.787384 0z" fill-rule="evenodd"/><path stroke="#000000" stroke-width="4.0" stroke-linejoin="round" stroke-linecap="butt" d="m440.6197 121.3937l44.787384 0l0 48.000008l-44.787384 0z" fill-rule="evenodd"/><path fill="#ffffff" d="m454.67514 158.7337l0 -26.71875l18.03125 0l0 3.15625l-14.5 0l0 8.265625l12.546875 0l0 3.15625l-12.546875 0l0 12.140625l-3.53125 0z" fill-rule="nonzero"/><path fill="#ffffff" d="m485.41968 121.3937l44.787415 0l0 48.000008l-44.787415 0z" fill-rule="evenodd"/><path stroke="#000000" stroke-width="4.0" stroke-linejoin="round" stroke-linecap="butt" d="m485.41968 121.3937l44.787415 0l0 48.000008l-44.787415 0z" fill-rule="evenodd"/><path fill="#ffffff" d="m530.21967 121.3937l44.787415 0l0 48.000008l-44.787415 0z" fill-rule="evenodd"/><path stroke="#000000" stroke-width="4.0" stroke-linejoin="round" stroke-linecap="butt" d="m530.21967 121.3937l44.787415 0l0 48.000008l-44.787415 0z" fill-rule="evenodd"/><path fill="#ffffff" d="m575.0197 121.3937l44.787354 0l0 48.000008l-44.787354 0z" fill-rule="evenodd"/><path stroke="#000000" stroke-width="4.0" stroke-linejoin="round" stroke-linecap="butt" d="m575.0197 121.3937l44.787354 0l0 48.000008l-44.787354 0z" fill-rule="evenodd"/><path fill="#3c78d8" d="m395.81967 121.3937l44.787415 0l0 48.000008l-44.787415 0z" fill-rule="evenodd"/><path stroke="#000000" stroke-width="4.0" stroke-linejoin="round" stroke-linecap="butt" d="m395.81967 121.3937l44.787415 0l0 48.000008l-44.787415 0z" fill-rule="evenodd"/><path fill="#ffffff" d="m408.7177 158.7337l0 -26.71875l19.3125 0l0 3.15625l-15.78125 0l0 8.171875l14.78125 0l0 3.140625l-14.78125 0l0 9.09375l16.40625 0l0 3.15625l-19.9375 0z" fill-rule="nonzero"/><path fill="#000000" fill-opacity="0.0" d="m42.46719 109.3937l139.37007 0l0 72.00001l-139.37007 0z" fill-rule="evenodd"/><path fill="#000000" d="m76.71719 138.83807l12.796875 0l0 3.109375l-12.796875 0l0 -3.109375zm-1.484375 0l3.15625 0l0 18.546875q0 1.203125 0.421875 1.5625q0.421875 0.359375 1.921875 0.359375q0.34375 0 1.234375 0q0.890625 0 1.953125 0q1.078125 0 2.03125 0q0.96875 0 1.390625 0q0.984375 0 1.453125 -0.546875q0.46875 -0.5625 0.671875 -2.09375q0.21875 -1.53125 0.3125 -4.609375q0.421875 0.265625 0.921875 0.5625q0.515625 0.296875 1.0625 0.484375q0.5625 0.1875 1.0 0.328125q-0.21875 3.453125 -0.6875 5.390625q-0.46875 1.9375 -1.515625 2.71875q-1.046875 0.796875 -3.0 0.796875q-0.265625 0 -1.0 0q-0.71875 0 -1.671875 0q-0.953125 0 -1.90625 0q-0.9375 0 -1.640625 0q-0.703125 0 -0.953125 0q-1.96875 0 -3.09375 -0.4375q-1.125 -0.421875 -1.59375 -1.484375q-0.46875 -1.0625 -0.46875 -3.03125l0 -18.546875zm-0.140625 -13.390625l16.046875 0l0 19.40625l-3.078125 0l0 -16.34375l-12.96875 0l0 -3.0625zm-20.125004 7.546875l17.062504 0l0 29.0l-2.640625 0l0 -26.234375l-11.828129 0l0 26.828125l-2.59375 0l0 -29.59375zm1.3125 17.234375l14.375004 0l0 2.390625l-14.375004 0l0 -2.390625zm0 6.828125l14.375004 0l0 2.59375l-14.375004 0l0 -2.59375zm-2.375 -31.875l19.109379 0l0 2.859375l-19.109379 0l0 -2.859375zm6.140625 0.765625l2.296875 0l0 9.046875l-2.296875 0l0 -9.046875zm4.812504 0l2.34375 0l0 9.046875l-2.34375 0l0 -9.046875zm-4.390629 9.0l1.796875 0l0 4.234375q0 1.3125 -0.265625 2.8125q-0.25 1.484375 -0.953125 2.96875q-0.703125 1.46875 -2.078125 2.703125q-0.203125 -0.296875 -0.65625 -0.671875q-0.453125 -0.390625 -0.75 -0.609375q1.25 -1.0625 1.859375 -2.3125q0.625 -1.265625 0.828125 -2.546875q0.21875 -1.28125 0.21875 -2.390625l0 -4.1875zm4.187504 0l1.828125 0l0 8.84375q0 0.375 0.078125 0.515625q0.09375 0.125 0.46875 0.125q0.140625 0 0.4375 0q0.296875 0 0.640625 0q0.34375 0 0.5 0q0.5625 0 0.640625 -0.140625q0.3125 0.21875 0.78125 0.421875q0.46875 0.1875 0.890625 0.3125q-0.125 0.640625 -0.59375 0.9375q-0.46875 0.296875 -1.375 0.296875q-0.171875 0 -0.625 0q-0.4375 0 -0.875 0q-0.421875 0 -0.578125 0q-1.28125 0 -1.75 -0.4375q-0.46875 -0.453125 -0.46875 -2.0l0 -8.875zm54.890564 -6.5625l3.15625 0l0 23.375l-3.15625 0l0 -23.375zm10.40625 -4.046875l3.15625 0l0 34.25q0 1.625 -0.421875 2.421875q-0.421875 0.8125 -1.453125 1.203125q-1.015625 0.375 -2.828125 0.484375q-1.8125 0.109375 -4.765625 0.109375q-0.125 -0.6875 -0.453125 -1.578125q-0.3125 -0.890625 -0.703125 -1.578125q2.21875 0.046875 3.984375 0.046875q1.78125 0 2.375 -0.046875q0.59375 0 0.84375 -0.234375q0.265625 -0.234375 0.265625 -0.828125l0 -34.25zm-27.078125 10.703125l11.59375 0l0 2.9375l-11.59375 0l0 -2.9375zm-6.1875 -9.296875l21.234375 0l0 2.984375l-21.234375 0l0 -2.984375zm3.15625 18.296875l1.53125 -2.390625q1.578125 0.890625 3.359375 2.0q1.796875 1.109375 3.375 2.203125q1.578125 1.09375 2.609375 1.9375l-1.578125 2.734375q-1.03125 -0.9375 -2.609375 -2.09375q-1.578125 -1.15625 -3.328125 -2.296875q-1.734375 -1.15625 -3.359375 -2.09375zm13.46875 -9.0l0.640625 0l0.5625 -0.125l2.0 0.71875q-1.140625 6.953125 -3.5 12.25q-2.34375 5.28125 -5.65625 9.0q-3.296875 3.703125 -7.21875 6.015625q-0.25 -0.390625 -0.6875 -0.84375q-0.421875 -0.4375 -0.890625 -0.890625q-0.46875 -0.453125 -0.859375 -0.65625q3.921875 -2.09375 7.078125 -5.5q3.171875 -3.421875 5.359375 -8.21875q2.203125 -4.796875 3.171875 -11.0625l0 -0.6875zm-8.90625 -7.9375l3.203125 0.59375q-0.90625 3.671875 -2.296875 7.515625q-1.375 3.84375 -3.359375 7.28125q-1.984375 3.421875 -4.625 5.984375q-0.265625 -0.34375 -0.6875 -0.71875q-0.421875 -0.390625 -0.828125 -0.765625q-0.40625 -0.390625 -0.75 -0.65625q2.46875 -2.390625 4.296875 -5.578125q1.84375 -3.203125 3.09375 -6.765625q1.265625 -3.5625 1.953125 -6.890625zm47.851807 15.609375q-1.140625 0 -1.984375 -0.828125q-0.828125 -0.828125 -0.828125 -2.15625q0 -1.3125 0.828125 -2.140625q0.84375 -0.84375 1.984375 -0.84375q1.15625 0 1.984375 0.84375q0.84375 0.828125 0.84375 2.140625q0 1.328125 -0.84375 2.15625q-0.828125 0.828125 -1.984375 0.828125zm0 17.1875q-1.140625 0 -1.984375 -0.828125q-0.828125 -0.828125 -0.828125 -2.109375q0 -1.359375 0.828125 -2.171875q0.84375 -0.8125 1.984375 -0.8125q1.15625 0 1.984375 0.8125q0.84375 0.8125 0.84375 2.171875q0 1.28125 -0.84375 2.109375q-0.828125 0.828125 -1.984375 0.828125z" fill-rule="nonzero"/><path fill="#000000" fill-opacity="0.0" d="m0 0l307.87402 0l0 72.0l-307.87402 0z" fill-rule="evenodd"/><path fill="#000000" d="m39.71875 30.381874q0 4.265625 -0.546875 7.546875q-0.53125 3.28125 -1.890625 5.84375q-1.359375 2.5625 -3.734375 4.546875q-2.359375 1.984375 -6.03125 3.609375l-2.859375 -2.6875q2.9375 -1.15625 5.109375 -2.515625q2.1875 -1.375 3.625 -3.421875q1.453125 -2.046875 2.171875 -5.109375q0.734375 -3.078125 0.734375 -7.5625l0 -10.359375q0 -1.28125 -0.09375 -2.234375q-0.078125 -0.96875 -0.109375 -1.265625l3.828125 0q-0.03125 0.296875 -0.125 1.265625q-0.078125 0.953125 -0.078125 2.234375l0 10.109375zm-15.359375 -13.359375q-0.046875 0.3125 -0.140625 1.171875q-0.078125 0.84375 -0.078125 1.953125l0 15.609375q0 0.765625 0.046875 1.609375q0.046875 0.828125 0.078125 1.453125q0.046875 0.609375 0.046875 0.8125l-3.75 0q0 -0.203125 0.03125 -0.796875q0.046875 -0.609375 0.09375 -1.4375q0.046875 -0.828125 0.046875 -1.640625l0 -15.609375q0 -0.734375 -0.046875 -1.5625q-0.046875 -0.828125 -0.125 -1.5625l3.796875 0zm-12.5 8.28125q0.21875 0.046875 0.875 0.109375q0.65625 0.0625 1.59375 0.125q0.9375 0.0625 1.796875 0.0625l28.28125 0q1.40625 0 2.421875 -0.078125q1.03125 -0.09375 1.5 -0.125l0 3.625q-0.390625 -0.046875 -1.453125 -0.09375q-1.0625 -0.046875 -2.46875 -0.046875l-28.28125 0q-0.890625 0 -1.796875 0.03125q-0.890625 0.015625 -1.5625 0.0625q-0.65625 0.046875 -0.90625 0.046875l0 -3.71875zm43.46869 9.25q5.546875 -1.484375 10.3125 -3.609375q4.78125 -2.140625 8.328125 -4.359375q2.21875 -1.40625 4.328125 -3.046875q2.109375 -1.640625 3.984375 -3.4375q1.875 -1.796875 3.328125 -3.546875l2.859375 2.65625q-1.796875 1.921875 -3.890625 3.75q-2.078125 1.828125 -4.40625 3.515625q-2.328125 1.6875 -4.84375 3.265625q-2.34375 1.40625 -5.296875 2.90625q-2.9375 1.484375 -6.265625 2.8125q-3.328125 1.3125 -6.734375 2.421875l-1.703125 -3.328125zm17.953125 -6.171875l3.671875 -1.109375l0 19.453125q0 0.796875 0.015625 1.703125q0.03125 0.890625 0.09375 1.65625q0.0625 0.765625 0.140625 1.203125l-4.171875 0q0.03125 -0.4375 0.09375 -1.203125q0.078125 -0.765625 0.109375 -1.65625q0.046875 -0.90625 0.046875 -1.703125l0 -18.34375zm52.048065 -13.140625q0.546875 0.765625 1.1875 1.8125q0.640625 1.046875 1.25 2.109375q0.625 1.0625 1.015625 1.921875l-2.3125 1.015625q-0.640625 -1.28125 -1.59375 -2.953125q-0.953125 -1.6875 -1.8125 -2.921875l2.265625 -0.984375zm4.8125 -1.5q0.59375 0.765625 1.25 1.84375q0.671875 1.0625 1.3125 2.109375q0.640625 1.046875 1.015625 1.859375l-2.296875 1.015625q-0.6875 -1.40625 -1.65625 -3.03125q-0.953125 -1.625 -1.84375 -2.8125l2.21875 -0.984375zm-3.84375 8.453125q-0.203125 0.25 -0.53125 0.828125q-0.3125 0.578125 -0.53125 1.0q-0.8125 2.09375 -2.140625 4.65625q-1.3125 2.5625 -2.9375 5.03125q-1.609375 2.46875 -3.40625 4.4375q-2.34375 2.640625 -5.171875 5.15625q-2.8125 2.515625 -5.921875 4.65625q-3.109375 2.125 -6.484375 3.703125l-2.734375 -2.859375q3.46875 -1.359375 6.640625 -3.375q3.171875 -2.03125 5.96875 -4.4375q2.796875 -2.421875 4.96875 -4.859375q1.453125 -1.65625 2.875 -3.75q1.4375 -2.09375 2.5625 -4.234375q1.140625 -2.15625 1.640625 -3.90625q-0.34375 0 -1.625 0q-1.265625 0 -3.015625 0q-1.75 0 -3.671875 0q-1.921875 0 -3.671875 0q-1.75 0 -3.015625 0q-1.25 0 -1.625 0q-0.734375 0 -1.65625 0.0625q-0.90625 0.0625 -1.65625 0.109375q-0.75 0.03125 -1.0 0.03125l0 -3.828125q0.296875 0.03125 1.078125 0.078125q0.796875 0.046875 1.6875 0.109375q0.90625 0.0625 1.546875 0.0625q0.46875 0 1.703125 0q1.234375 0 2.953125 0q1.734375 0 3.609375 0q1.875 0 3.609375 0q1.734375 0 2.96875 0q1.234375 0 1.609375 0q1.078125 0 1.90625 -0.109375q0.828125 -0.109375 1.296875 -0.234375l2.171875 1.671875zm-9.0 13.734375q1.75 1.453125 3.609375 3.203125q1.859375 1.75 3.640625 3.578125q1.796875 1.828125 3.328125 3.546875q1.546875 1.703125 2.65625 3.015625l-2.984375 2.609375q-1.5 -2.046875 -3.59375 -4.40625q-2.09375 -2.375 -4.421875 -4.765625q-2.3125 -2.390625 -4.65625 -4.390625l2.421875 -2.390625zm33.86743 -2.609375q-1.140625 0 -1.984375 -0.828125q-0.828125 -0.828125 -0.828125 -2.15625q0 -1.3125 0.828125 -2.140625q0.84375 -0.84375 1.984375 -0.84375q1.15625 0 1.984375 0.84375q0.84375 0.828125 0.84375 2.140625q0 1.328125 -0.84375 2.15625q-0.828125 0.828125 -1.984375 0.828125zm0 17.1875q-1.140625 0 -1.984375 -0.828125q-0.828125 -0.828125 -0.828125 -2.109375q0 -1.359375 0.828125 -2.171875q0.84375 -0.8125 1.984375 -0.8125q1.15625 0 1.984375 0.8125q0.84375 0.8125 0.84375 2.171875q0 1.28125 -0.84375 2.109375q-0.828125 0.828125 -1.984375 0.828125zm28.335281 0q-2.21875 0 -4.140625 -0.953125q-1.921875 -0.953125 -3.328125 -2.890625q-1.40625 -1.953125 -2.203125 -4.84375q-0.78125 -2.90625 -0.78125 -6.78125q0 -4.578125 0.9375 -7.8125q0.9375 -3.25 2.546875 -5.25q1.625 -2.0 3.71875 -2.921875q2.09375 -0.921875 4.359375 -0.921875q2.421875 0 4.21875 0.90625q1.796875 0.890625 3.109375 2.296875l-2.21875 2.390625q-0.890625 -1.109375 -2.21875 -1.75q-1.3125 -0.640625 -2.71875 -0.640625q-2.21875 0 -4.0625 1.3125q-1.828125 1.296875 -2.921875 4.28125q-1.078125 2.984375 -1.078125 8.109375q0 4.0 0.78125 6.78125q0.796875 2.765625 2.296875 4.203125q1.515625 1.421875 3.703125 1.421875q1.53125 0 2.703125 -0.890625q1.171875 -0.90625 1.875 -2.5q0.703125 -1.59375 0.703125 -3.6875q0 -2.140625 -0.625 -3.6875q-0.609375 -1.5625 -1.84375 -2.390625q-1.234375 -0.84375 -3.15625 -0.84375q-1.5 0 -3.25 0.96875q-1.75 0.953125 -3.328125 3.296875l-0.125 -3.0625q0.984375 -1.28125 2.171875 -2.1875q1.203125 -0.921875 2.546875 -1.40625q1.34375 -0.5 2.625 -0.5q2.640625 0 4.578125 1.09375q1.953125 1.078125 3.03125 3.265625q1.09375 2.171875 1.09375 5.453125q0 3.03125 -1.25 5.3125q-1.234375 2.28125 -3.265625 3.5625q-2.015625 1.265625 -4.484375 1.265625zm54.97917 -18.203125q-1.65625 -1.28125 -3.5625 -3.15625q-1.890625 -1.875 -3.34375 -3.84375l2.5625 -1.484375q1.4375 1.875 3.25 3.6875q1.8125 1.8125 3.796875 3.40625q1.984375 1.59375 3.859375 2.84375q-1.875 1.1875 -3.859375 2.8125q-1.984375 1.625 -3.796875 3.4375q-1.8125 1.8125 -3.25 3.6875l-2.5625 -1.5q1.453125 -1.953125 3.34375 -3.84375q1.90625 -1.90625 3.5625 -3.15625l-32.890625 0l0 -2.890625l32.890625 0zm26.070557 17.65625q0.203125 -4.4375 0.734375 -8.171875q0.53125 -3.734375 1.546875 -7.03125q1.03125 -3.3125 2.625 -6.421875q1.609375 -3.109375 3.921875 -6.3125l-15.1875 0l0 -3.328125l19.578125 0l0 2.34375q-2.734375 3.546875 -4.46875 6.796875q-1.71875 3.234375 -2.6875 6.609375q-0.953125 3.359375 -1.40625 7.140625q-0.4375 3.765625 -0.609375 8.375l-4.046875 0z" fill-rule="nonzero"/><path fill="#000000" fill-opacity="0.0" d="m284.22363 126.973755l0 -46.67717l33.480316 0" fill-rule="evenodd"/><path stroke="#ffffff" stroke-width="4.0" stroke-linejoin="round" stroke-linecap="butt" d="m284.22363 102.973755l0 -22.67717l33.480316 0" fill-rule="evenodd"/><path fill="#ffffff" stroke="#ffffff" stroke-width="4.0" stroke-linecap="butt" d="m277.6167 102.973755l6.6069336 18.15239l6.6069336 -18.15239z" fill-rule="evenodd"/><path fill="#000000" fill-opacity="0.0" d="m284.22363 121.96588l0 -41.669296l33.480316 0" fill-rule="evenodd"/><path stroke="#000000" stroke-width="4.0" stroke-linejoin="round" stroke-linecap="butt" d="m284.22363 97.96588l0 -17.669296l33.480316 0" fill-rule="evenodd"/><path fill="#000000" stroke="#000000" stroke-width="4.0" stroke-linecap="butt" d="m277.6167 97.96588l6.6069336 18.15239l6.6069336 -18.15239z" fill-rule="evenodd"/><path fill="#3c78d8" d="m317.70395 56.29659l44.787384 0l0 47.999996l-44.787384 0z" fill-rule="evenodd"/><path stroke="#000000" stroke-width="4.0" stroke-linejoin="round" stroke-linecap="butt" d="m317.70395 56.29659l44.787384 0l0 47.999996l-44.787384 0z" fill-rule="evenodd"/><path fill="#ffffff" d="m342.09457 83.15221l0 -3.125l11.3125 -0.03125l0 9.921875q-2.609375 2.078125 -5.375 3.125q-2.765625 1.046875 -5.6875 1.046875q-3.9375 0 -7.15625 -1.6875q-3.21875 -1.6875 -4.859375 -4.875q-1.640625 -3.1875 -1.640625 -7.125q0 -3.90625 1.625 -7.28125q1.640625 -3.375 4.703125 -5.015625q3.0625 -1.640625 7.046875 -1.640625q2.90625 0 5.25 0.9375q2.34375 0.9375 3.671875 2.625q1.328125 1.671875 2.015625 4.359375l-3.1875 0.875q-0.59375 -2.03125 -1.5 -3.203125q-0.890625 -1.171875 -2.546875 -1.875q-1.65625 -0.703125 -3.671875 -0.703125q-2.4375 0 -4.203125 0.75q-1.765625 0.734375 -2.859375 1.9375q-1.078125 1.203125 -1.671875 2.640625q-1.03125 2.484375 -1.03125 5.375q0 3.578125 1.234375 5.984375q1.234375 2.40625 3.578125 3.578125q2.359375 1.15625 5.0 1.15625q2.296875 0 4.484375 -0.875q2.1875 -0.890625 3.3125 -1.890625l0 -4.984375l-7.84375 0z" fill-rule="nonzero"/><path fill="#3c78d8" d="m216.61707 121.3937l44.787384 0l0 48.000008l-44.787384 0z" fill-rule="evenodd"/><path stroke="#000000" stroke-width="4.0" stroke-linejoin="round" stroke-linecap="butt" d="m216.61707 121.3937l44.787384 0l0 48.000008l-44.787384 0z" fill-rule="evenodd"/><path fill="#ffffff" d="m229.29636 158.7337l0 -26.71875l10.03125 0q3.0625 0 4.90625 0.8125q1.84375 0.8125 2.890625 2.5q1.046875 1.6875 1.046875 3.515625q0 1.71875 -0.9375 3.234375q-0.921875 1.515625 -2.796875 2.4375q2.421875 0.71875 3.71875 2.4375q1.3125 1.703125 1.3125 4.03125q0 1.875 -0.796875 3.5q-0.78125 1.609375 -1.953125 2.484375q-1.171875 0.875 -2.9375 1.328125q-1.75 0.4375 -4.296875 0.4375l-10.1875 0zm3.53125 -15.5l5.78125 0q2.359375 0 3.375 -0.296875q1.34375 -0.40625 2.03125 -1.328125q0.6875 -0.9375 0.6875 -2.34375q0 -1.328125 -0.640625 -2.328125q-0.640625 -1.015625 -1.828125 -1.390625q-1.1875 -0.375 -4.0625 -0.375l-5.34375 0l0 8.0625zm0 12.34375l6.65625 0q1.71875 0 2.40625 -0.125q1.21875 -0.21875 2.03125 -0.71875q0.828125 -0.515625 1.359375 -1.484375q0.53125 -0.984375 0.53125 -2.265625q0 -1.484375 -0.765625 -2.59375q-0.765625 -1.109375 -2.125 -1.546875q-1.359375 -0.453125 -3.90625 -0.453125l-6.1875 0l0 9.1875z" fill-rule="nonzero"/><path fill="#3c78d8" d="m306.21707 121.3937l44.787384 0l0 48.000008l-44.787384 0z" fill-rule="evenodd"/><path stroke="#000000" stroke-width="4.0" stroke-linejoin="round" stroke-linecap="butt" d="m306.21707 121.3937l44.787384 0l0 48.000008l-44.787384 0z" fill-rule="evenodd"/><path fill="#ffffff" d="m337.15457 149.3587l3.546875 0.90625q-1.109375 4.34375 -4.0 6.640625q-2.890625 2.28125 -7.0625 2.28125q-4.328125 0 -7.03125 -1.75q-2.703125 -1.765625 -4.125 -5.09375q-1.40625 -3.34375 -1.40625 -7.171875q0 -4.171875 1.59375 -7.28125q1.59375 -3.109375 4.53125 -4.71875q2.953125 -1.609375 6.484375 -1.609375q4.015625 0 6.75 2.046875q2.734375 2.03125 3.8125 5.734375l-3.484375 0.8125q-0.9375 -2.90625 -2.703125 -4.234375q-1.765625 -1.34375 -4.4375 -1.34375q-3.09375 0 -5.15625 1.484375q-2.0625 1.46875 -2.90625 3.96875q-0.84375 2.484375 -0.84375 5.125q0 3.40625 0.984375 5.953125q1.0 2.546875 3.09375 3.8125q2.109375 1.25 4.546875 1.25q2.96875 0 5.03125 -1.71875q2.0625 -1.71875 2.78125 -5.09375z" fill-rule="nonzero"/><path fill="#3c78d8" d="m351.01706 121.3937l44.787415 0l0 48.000008l-44.787415 0z" fill-rule="evenodd"/><path stroke="#000000" stroke-width="4.0" stroke-linejoin="round" stroke-linecap="butt" d="m351.01706 121.3937l44.787415 0l0 48.000008l-44.787415 0z" fill-rule="evenodd"/><path fill="#ffffff" d="m362.89206 158.7337l0 -26.71875l9.203125 0q3.125 0 4.765625 0.375q2.296875 0.53125 3.921875 1.921875q2.109375 1.78125 3.15625 4.5625q1.046875 2.78125 1.046875 6.359375q0 3.03125 -0.71875 5.390625q-0.703125 2.34375 -1.8125 3.890625q-1.109375 1.546875 -2.4375 2.4375q-1.3125 0.875 -3.1875 1.328125q-1.859375 0.453125 -4.296875 0.453125l-9.640625 0zm3.546875 -3.15625l5.703125 0q2.640625 0 4.140625 -0.484375q1.5 -0.5 2.40625 -1.390625q1.25 -1.25 1.953125 -3.375q0.703125 -2.125 0.703125 -5.15625q0 -4.1875 -1.375 -6.4375q-1.375 -2.25 -3.34375 -3.015625q-1.421875 -0.546875 -4.578125 -0.546875l-5.609375 0l0 20.40625z" fill-rule="nonzero"/><path fill="#3c78d8" d="m171.81706 121.3937l44.7874 0l0 48.000008l-44.7874 0z" fill-rule="evenodd"/><path stroke="#000000" stroke-width="4.0" stroke-linejoin="round" stroke-linecap="butt" d="m171.81706 121.3937l44.7874 0l0 48.000008l-44.7874 0z" fill-rule="evenodd"/><path fill="#ffffff" d="m181.7151 158.7337l10.25 -26.71875l3.8125 0l10.9375 26.71875l-4.03125 0l-3.109375 -8.09375l-11.171875 0l-2.9375 8.09375l-3.75 0zm7.703125 -10.96875l9.0625 0l-2.796875 -7.40625q-1.265625 -3.375 -1.890625 -5.53125q-0.515625 2.5625 -1.4375 5.09375l-2.9375 7.84375z" fill-rule="nonzero"/><path fill="#000000" fill-opacity="0.0" d="m283.81076 169.3937c0 21.30577 8.102386 39.825363 14.748077 42.61154c6.645691 2.7861786 11.834686 -10.161072 14.748047 -21.715225c2.913391 -11.554153 3.5511475 -21.715225 7.102295 -21.715225" fill-rule="evenodd"/><path stroke="#000000" stroke-width="4.0" stroke-linejoin="round" stroke-linecap="butt" d="m283.81076 169.3937c0 21.30577 8.102386 39.82538 14.748077 42.61154c3.3228455 1.3930817 6.281494 -1.1471863 8.773621 -5.4799805c1.2460938 -2.1664124 2.3755188 -4.780945 3.3755188 -7.5760193c0.5 -1.3975372 0.96765137 -2.84021 1.4013367 -4.2945557c0.2168274 -0.72717285 0.42520142 -1.4572906 0.6248474 -2.1861267l0.28445435 -1.0600128" fill-rule="evenodd"/><path fill="#000000" stroke="#000000" stroke-width="4.0" stroke-linecap="butt" d="m319.30447 193.44308l-0.6960144 -19.30484l-11.875732 15.235748z" fill-rule="evenodd"/><path fill="#000000" fill-opacity="0.0" d="m330.4958 169.3937c0 21.30577 8.102386 39.825363 14.748077 42.61154c6.645691 2.7861786 11.834686 -10.161072 14.748077 -21.715225c2.9133606 -11.554153 3.5511475 -21.715225 7.102295 -21.715225" fill-rule="evenodd"/><path stroke="#000000" stroke-width="4.0" stroke-linejoin="round" stroke-linecap="butt" d="m330.4958 169.3937c0 21.30577 8.102386 39.82538 14.748047 42.61154c3.3228455 1.3930817 6.281555 -1.1471863 8.773682 -5.4799805c1.2460632 -2.1664124 2.3754883 -4.780945 3.3754883 -7.5760193c0.5 -1.3975372 0.96765137 -2.84021 1.4013367 -4.2945557c0.2168274 -0.72717285 0.42520142 -1.4572906 0.6248779 -2.1861267l0.2843933 -1.0600433" fill-rule="evenodd"/><path fill="#000000" stroke="#000000" stroke-width="4.0" stroke-linecap="butt" d="m365.9895 193.44307l-0.6959839 -19.304825l-11.875763 15.235733z" fill-rule="evenodd"/><path fill="#000000" fill-opacity="0.0" d="m379.17297 169.3937c0 21.30577 8.102356 39.825363 14.748047 42.61154c6.645691 2.7861786 11.834686 -10.161072 14.748077 -21.715225c2.913391 -11.554153 3.5511475 -21.715225 7.102295 -21.715225" fill-rule="evenodd"/><path stroke="#000000" stroke-width="4.0" stroke-linejoin="round" stroke-linecap="butt" d="m379.17297 169.3937c0 21.30577 8.102356 39.82538 14.748047 42.61154c3.322815 1.3930817 6.2815247 -1.1471863 8.773651 -5.4799805c1.2460632 -2.1664124 2.3754883 -4.780945 3.3754883 -7.5760193c0.5 -1.3975372 0.96765137 -2.84021 1.4013367 -4.2945557c0.2168274 -0.72717285 0.42520142 -1.4572906 0.6248779 -2.1861267l0.2843933 -1.0600433" fill-rule="evenodd"/><path fill="#000000" stroke="#000000" stroke-width="4.0" stroke-linecap="butt" d="m414.66666 193.44307l-0.6959839 -19.304825l-11.875732 15.235733z" fill-rule="evenodd"/><path fill="#000000" fill-opacity="0.0" d="m427.85013 169.3937c0 21.30577 8.102386 39.825363 14.748077 42.61154c6.645691 2.7861786 11.834686 -10.161072 14.748047 -21.715225c2.913391 -11.554153 3.5511475 -21.715225 7.102295 -21.715225" fill-rule="evenodd"/><path stroke="#000000" stroke-width="4.0" stroke-linejoin="round" stroke-linecap="butt" d="m427.85016 169.3937c0 21.30577 8.102356 39.82538 14.748016 42.61154c3.3228455 1.3930817 6.281555 -1.1471863 8.773682 -5.4799805c1.2460632 -2.1664124 2.3754883 -4.780945 3.3754883 -7.5760193c0.5 -1.3975372 0.96762085 -2.84021 1.4013062 -4.2945557c0.2168274 -0.72717285 0.42520142 -1.4572906 0.6248779 -2.1861267l0.28442383 -1.0600433" fill-rule="evenodd"/><path fill="#000000" stroke="#000000" stroke-width="4.0" stroke-linecap="butt" d="m463.34384 193.44307l-0.6959839 -19.304825l-11.875763 15.235733z" fill-rule="evenodd"/></g></svg>