<svg version="1.1" viewBox="0.0 0.0 731.6587926509186 242.20997375328085" fill="none" stroke="none" stroke-linecap="square" stroke-miterlimit="10" xmlns:xlink="http://www.w3.org/1999/xlink" xmlns="http://www.w3.org/2000/svg"><clipPath id="p.0"><path d="m0 0l731.6588 0l0 242.20998l-731.6588 0l0 -242.20998z" clip-rule="nonzero"/></clipPath><g clip-path="url(#p.0)"><path fill="#000000" fill-opacity="0.0" d="m0 0l731.6588 0l0 242.20998l-731.6588 0z" fill-rule="evenodd"/><path fill="#3c78d8" d="m342.06274 84.0l44.787384 0l0 48.0l-44.787384 0z" fill-rule="evenodd"/><path stroke="#000000" stroke-width="4.0" stroke-linejoin="round" stroke-linecap="butt" d="m342.06274 84.0l44.787384 0l0 48.0l-44.787384 0z" fill-rule="evenodd"/><path fill="#ffffff" d="m373.00024 111.965l3.546875 0.90625q-1.109375 4.34375 -4.0 6.640625q-2.890625 2.28125 -7.0625 2.28125q-4.328125 0 -7.03125 -1.75q-2.703125 -1.765625 -4.125 -5.09375q-1.40625 -3.34375 -1.40625 -7.171875q0 -4.171875 1.59375 -7.28125q1.59375 -3.109375 4.53125 -4.71875q2.953125 -1.609375 6.484375 -1.609375q4.015625 0 6.75 2.046875q2.734375 2.03125 3.8125 5.734375l-3.484375 0.8125q-0.9375 -2.90625 -2.703125 -4.234375q-1.765625 -1.34375 -4.4375 -1.34375q-3.09375 0 -5.15625 1.484375q-2.0625 1.46875 -2.90625 3.96875q-0.84375 2.484375 -0.84375 5.125q0 3.40625 0.984375 5.953125q1.0 2.546875 3.09375 3.8125q2.109375 1.25 4.546875 1.25q2.96875 0 5.03125 -1.71875q2.0625 -1.71875 2.78125 -5.09375z" fill-rule="nonzero"/><path fill="#ffffff" d="m521.2654 84.0l44.787354 0l0 48.0l-44.787354 0z" fill-rule="evenodd"/><path stroke="#000000" stroke-width="4.0" stroke-linejoin="round" stroke-linecap="butt" d="m521.2654 84.0l44.787354 0l0 48.0l-44.787354 0z" fill-rule="evenodd"/><path fill="#ffffff" d="m566.06537 84.0l44.787415 0l0 48.0l-44.787415 0z" fill-rule="evenodd"/><path stroke="#000000" stroke-width="4.0" stroke-linejoin="round" stroke-linecap="butt" d="m566.06537 84.0l44.787415 0l0 48.0l-44.787415 0z" fill-rule="evenodd"/><path fill="#ffffff" d="m610.86536 84.0l44.787415 0l0 48.0l-44.787415 0z" fill-rule="evenodd"/><path stroke="#000000" stroke-width="4.0" stroke-linejoin="round" stroke-linecap="butt" d="m610.86536 84.0l44.787415 0l0 48.0l-44.787415 0z" fill-rule="evenodd"/><path fill="#ffffff" d="m655.66534 84.0l44.787415 0l0 48.0l-44.787415 0z" fill-rule="evenodd"/><path stroke="#000000" stroke-width="4.0" stroke-linejoin="round" stroke-linecap="butt" d="m655.66534 84.0l44.787415 0l0 48.0l-44.787415 0z" fill-rule="evenodd"/><path fill="#ffffff" d="m476.46536 84.0l44.787384 0l0 48.0l-44.787384 0z" fill-rule="evenodd"/><path stroke="#000000" stroke-width="4.0" stroke-linejoin="round" stroke-linecap="butt" d="m476.46536 84.0l44.787384 0l0 48.0l-44.787384 0z" fill-rule="evenodd"/><path fill="#000000" fill-opacity="0.0" d="m123.11286 72.0l139.37009 0l0 72.0l-139.37009 0z" fill-rule="evenodd"/><path fill="#000000" d="m157.36285 101.444374l12.796875 0l0 3.109375l-12.796875 0l0 -3.109375zm-1.484375 0l3.15625 0l0 18.546875q0 1.203125 0.421875 1.5625q0.421875 0.359375 1.921875 0.359375q0.34375 0 1.234375 0q0.890625 0 1.953125 0q1.078125 0 2.03125 0q0.96875 0 1.390625 0q0.984375 0 1.453125 -0.546875q0.46875 -0.5625 0.671875 -2.09375q0.21875 -1.53125 0.3125 -4.609375q0.421875 0.265625 0.921875 0.5625q0.515625 0.296875 1.0625 0.484375q0.5625 0.1875 1.0 0.328125q-0.21875 3.453125 -0.6875 5.390625q-0.46875 1.9375 -1.515625 2.71875q-1.046875 0.796875 -3.0 0.796875q-0.265625 0 -1.0 0q-0.71875 0 -1.671875 0q-0.953125 0 -1.90625 0q-0.9375 0 -1.640625 0q-0.703125 0 -0.953125 0q-1.96875 0 -3.09375 -0.4375q-1.125 -0.421875 -1.59375 -1.484375q-0.46875 -1.0625 -0.46875 -3.03125l0 -18.546875zm-0.140625 -13.390625l16.046875 0l0 19.40625l-3.078125 0l0 -16.34375l-12.96875 0l0 -3.0625zm-20.125 7.546875l17.0625 0l0 29.0l-2.640625 0l0 -26.234375l-11.828125 0l0 26.828125l-2.59375 0l0 -29.59375zm1.3125 17.234375l14.375 0l0 2.390625l-14.375 0l0 -2.390625zm0 6.828125l14.375 0l0 2.59375l-14.375 0l0 -2.59375zm-2.375 -31.875l19.109375 0l0 2.859375l-19.109375 0l0 -2.859375zm6.140625 0.765625l2.296875 0l0 9.046875l-2.296875 0l0 -9.046875zm4.8125 0l2.34375 0l0 9.046875l-2.34375 0l0 -9.046875zm-4.390625 9.0l1.796875 0l0 4.234375q0 1.3125 -0.265625 2.8125q-0.25 1.484375 -0.953125 2.96875q-0.703125 1.46875 -2.078125 2.703125q-0.203125 -0.296875 -0.65625 -0.671875q-0.453125 -0.390625 -0.75 -0.609375q1.25 -1.0625 1.859375 -2.3125q0.625 -1.265625 0.828125 -2.546875q0.21875 -1.28125 0.21875 -2.390625l0 -4.1875zm4.1875 0l1.828125 0l0 8.84375q0 0.375 0.078125 0.515625q0.09375 0.125 0.46875 0.125q0.140625 0 0.4375 0q0.296875 0 0.640625 0q0.34375 0 0.5 0q0.5625 0 0.640625 -0.140625q0.3125 0.21875 0.78125 0.421875q0.46875 0.1875 0.890625 0.3125q-0.125 0.640625 -0.59375 0.9375q-0.46875 0.296875 -1.375 0.296875q-0.171875 0 -0.625 0q-0.4375 0 -0.875 0q-0.421875 0 -0.578125 0q-1.28125 0 -1.75 -0.4375q-0.46875 -0.453125 -0.46875 -2.0l0 -8.875zm54.890564 -6.5625l3.15625 0l0 23.375l-3.15625 0l0 -23.375zm10.40625 -4.046875l3.15625 0l0 34.25q0 1.625 -0.421875 2.421875q-0.421875 0.8125 -1.453125 1.203125q-1.015625 0.375 -2.828125 0.484375q-1.8125 0.109375 -4.765625 0.109375q-0.125 -0.6875 -0.453125 -1.578125q-0.3125 -0.890625 -0.703125 -1.578125q2.21875 0.046875 3.984375 0.046875q1.78125 0 2.375 -0.046875q0.59375 0 0.84375 -0.234375q0.265625 -0.234375 0.265625 -0.828125l0 -34.25zm-27.078125 10.703125l11.59375 0l0 2.9375l-11.59375 0l0 -2.9375zm-6.1875 -9.296875l21.234375 0l0 2.984375l-21.234375 0l0 -2.984375zm3.15625 18.296875l1.53125 -2.390625q1.578125 0.890625 3.359375 2.0q1.796875 1.109375 3.375 2.203125q1.578125 1.09375 2.609375 1.9375l-1.578125 2.734375q-1.03125 -0.9375 -2.609375 -2.09375q-1.578125 -1.15625 -3.328125 -2.296875q-1.734375 -1.15625 -3.359375 -2.09375zm13.46875 -9.0l0.640625 0l0.5625 -0.125l2.0 0.71875q-1.140625 6.953125 -3.5 12.25q-2.34375 5.28125 -5.65625 9.0q-3.296875 3.703125 -7.21875 6.015625q-0.25 -0.390625 -0.6875 -0.84375q-0.421875 -0.4375 -0.890625 -0.890625q-0.46875 -0.453125 -0.859375 -0.65625q3.921875 -2.09375 7.078125 -5.5q3.171875 -3.421875 5.359375 -8.21875q2.203125 -4.796875 3.171875 -11.0625l0 -0.6875zm-8.90625 -7.9375l3.203125 0.59375q-0.90625 3.671875 -2.296875 7.515625q-1.375 3.84375 -3.359375 7.28125q-1.984375 3.421875 -4.625 5.984375q-0.265625 -0.34375 -0.6875 -0.71875q-0.421875 -0.390625 -0.828125 -0.765625q-0.40625 -0.390625 -0.75 -0.65625q2.46875 -2.390625 4.296875 -5.578125q1.84375 -3.203125 3.09375 -6.765625q1.265625 -3.5625 1.953125 -6.890625zm47.851807 15.609375q-1.140625 0 -1.984375 -0.828125q-0.828125 -0.828125 -0.828125 -2.15625q0 -1.3125 0.828125 -2.140625q0.84375 -0.84375 1.984375 -0.84375q1.15625 0 1.984375 0.84375q0.84375 0.828125 0.84375 2.140625q0 1.328125 -0.84375 2.15625q-0.828125 0.828125 -1.984375 0.828125zm0 17.1875q-1.140625 0 -1.984375 -0.828125q-0.828125 -0.828125 -0.828125 -2.109375q0 -1.359375 0.828125 -2.171875q0.84375 -0.8125 1.984375 -0.8125q1.15625 0 1.984375 0.8125q0.84375 0.8125 0.84375 2.171875q0 1.28125 -0.84375 2.109375q-0.828125 0.828125 -1.984375 0.828125z" fill-rule="nonzero"/><path fill="#000000" fill-opacity="0.0" d="m80.64567 0l307.87402 0l0 72.0l-307.87402 0z" fill-rule="evenodd"/><path fill="#000000" d="m120.36442 30.381874q0 4.265625 -0.546875 7.546875q-0.53125 3.28125 -1.890625 5.84375q-1.359375 2.5625 -3.734375 4.546875q-2.359375 1.984375 -6.03125 3.609375l-2.859375 -2.6875q2.9375 -1.15625 5.109375 -2.515625q2.1875 -1.375 3.625 -3.421875q1.453125 -2.046875 2.171875 -5.109375q0.734375 -3.078125 0.734375 -7.5625l0 -10.359375q0 -1.28125 -0.09375 -2.234375q-0.078125 -0.96875 -0.109375 -1.265625l3.828125 0q-0.03125 0.296875 -0.125 1.265625q-0.078125 0.953125 -0.078125 2.234375l0 10.109375zm-15.359375 -13.359375q-0.046875 0.3125 -0.140625 1.171875q-0.078125 0.84375 -0.078125 1.953125l0 15.609375q0 0.765625 0.046875 1.609375q0.046875 0.828125 0.078125 1.453125q0.046875 0.609375 0.046875 0.8125l-3.75 0q0 -0.203125 0.03125 -0.796875q0.046875 -0.609375 0.09375 -1.4375q0.046875 -0.828125 0.046875 -1.640625l0 -15.609375q0 -0.734375 -0.046875 -1.5625q-0.046875 -0.828125 -0.125 -1.5625l3.796875 0zm-12.5 8.28125q0.21875 0.046875 0.875 0.109375q0.65625 0.0625 1.59375 0.125q0.9375 0.0625 1.796875 0.0625l28.28125 0q1.40625 0 2.421875 -0.078125q1.0312576 -0.09375 1.5000076 -0.125l0 3.625q-0.390625 -0.046875 -1.4531326 -0.09375q-1.0625 -0.046875 -2.46875 -0.046875l-28.28125 0q-0.890625 0 -1.796875 0.03125q-0.890625 0.015625 -1.5625 0.0625q-0.65625 0.046875 -0.90625 0.046875l0 -3.71875zm43.468697 9.25q5.546875 -1.484375 10.3125 -3.609375q4.78125 -2.140625 8.328125 -4.359375q2.21875 -1.40625 4.328125 -3.046875q2.109375 -1.640625 3.984375 -3.4375q1.875 -1.796875 3.328125 -3.546875l2.859375 2.65625q-1.796875 1.921875 -3.890625 3.75q-2.078125 1.828125 -4.40625 3.515625q-2.328125 1.6875 -4.84375 3.265625q-2.34375 1.40625 -5.296875 2.90625q-2.9375 1.484375 -6.265625 2.8125q-3.328125 1.3125 -6.734375 2.421875l-1.703125 -3.328125zm17.953125 -6.171875l3.671875 -1.109375l0 19.453125q0 0.796875 0.015625 1.703125q0.03125 0.890625 0.09375 1.65625q0.0625 0.765625 0.140625 1.203125l-4.171875 0q0.03125 -0.4375 0.09375 -1.203125q0.078125 -0.765625 0.109375 -1.65625q0.046875 -0.90625 0.046875 -1.703125l0 -18.34375zm52.048065 -13.140625q0.546875 0.765625 1.1875 1.8125q0.640625 1.046875 1.25 2.109375q0.625 1.0625 1.015625 1.921875l-2.3125 1.015625q-0.640625 -1.28125 -1.59375 -2.953125q-0.953125 -1.6875 -1.8125 -2.921875l2.265625 -0.984375zm4.8125 -1.5q0.59375 0.765625 1.25 1.84375q0.671875 1.0625 1.3125 2.109375q0.640625 1.046875 1.015625 1.859375l-2.296875 1.015625q-0.6875 -1.40625 -1.65625 -3.03125q-0.953125 -1.625 -1.84375 -2.8125l2.21875 -0.984375zm-3.84375 8.453125q-0.203125 0.25 -0.53125 0.828125q-0.3125 0.578125 -0.53125 1.0q-0.8125 2.09375 -2.140625 4.65625q-1.3125 2.5625 -2.9375 5.03125q-1.609375 2.46875 -3.40625 4.4375q-2.34375 2.640625 -5.171875 5.15625q-2.8125 2.515625 -5.921875 4.65625q-3.109375 2.125 -6.484375 3.703125l-2.734375 -2.859375q3.46875 -1.359375 6.640625 -3.375q3.171875 -2.03125 5.96875 -4.4375q2.796875 -2.421875 4.96875 -4.859375q1.453125 -1.65625 2.875 -3.75q1.4375 -2.09375 2.5625 -4.234375q1.140625 -2.15625 1.640625 -3.90625q-0.34375 0 -1.625 0q-1.265625 0 -3.015625 0q-1.75 0 -3.671875 0q-1.921875 0 -3.671875 0q-1.75 0 -3.015625 0q-1.25 0 -1.625 0q-0.734375 0 -1.65625 0.0625q-0.90625 0.0625 -1.65625 0.109375q-0.75 0.03125 -1.0 0.03125l0 -3.828125q0.296875 0.03125 1.078125 0.078125q0.796875 0.046875 1.6875 0.109375q0.90625 0.0625 1.546875 0.0625q0.46875 0 1.703125 0q1.234375 0 2.953125 0q1.734375 0 3.609375 0q1.875 0 3.609375 0q1.734375 0 2.96875 0q1.234375 0 1.609375 0q1.078125 0 1.90625 -0.109375q0.828125 -0.109375 1.296875 -0.234375l2.171875 1.671875zm-9.0 13.734375q1.75 1.453125 3.609375 3.203125q1.859375 1.75 3.640625 3.578125q1.796875 1.828125 3.328125 3.546875q1.546875 1.703125 2.65625 3.015625l-2.984375 2.609375q-1.5 -2.046875 -3.59375 -4.40625q-2.09375 -2.375 -4.421875 -4.765625q-2.3125 -2.390625 -4.65625 -4.390625l2.421875 -2.390625zm33.86743 -2.609375q-1.140625 0 -1.984375 -0.828125q-0.828125 -0.828125 -0.828125 -2.15625q0 -1.3125 0.828125 -2.140625q0.84375 -0.84375 1.984375 -0.84375q1.15625 0 1.984375 0.84375q0.84375 0.828125 0.84375 2.140625q0 1.328125 -0.84375 2.15625q-0.828125 0.828125 -1.984375 0.828125zm0 17.1875q-1.140625 0 -1.984375 -0.828125q-0.828125 -0.828125 -0.828125 -2.109375q0 -1.359375 0.828125 -2.171875q0.84375 -0.8125 1.984375 -0.8125q1.15625 0 1.984375 0.8125q0.84375 0.8125 0.84375 2.171875q0 1.28125 -0.84375 2.109375q-0.828125 0.828125 -1.984375 0.828125zm26.663406 0q-2.421875 0 -4.28125 -0.59375q-1.859375 -0.59375 -3.25 -1.53125q-1.375 -0.9375 -2.484375 -2.0l1.953125 -2.5625q0.90625 0.890625 1.984375 1.6875q1.09375 0.78125 2.5 1.28125q1.40625 0.484375 3.203125 0.484375q1.828125 0 3.34375 -0.890625q1.515625 -0.90625 2.40625 -2.5625q0.90625 -1.671875 0.90625 -3.921875q0 -3.328125 -1.78125 -5.21875q-1.765625 -1.90625 -4.703125 -1.90625q-1.546875 0 -2.703125 0.46875q-1.140625 0.46875 -2.5 1.359375l-2.09375 -1.3125l1.015625 -14.59375l15.1875 0l0 3.328125l-11.765625 0l-0.8125 9.046875q1.015625 -0.609375 2.140625 -0.921875q1.140625 -0.328125 2.546875 -0.328125q2.609375 0 4.734375 1.046875q2.140625 1.046875 3.40625 3.265625q1.28125 2.21875 1.28125 5.671875q0 3.421875 -1.46875 5.8125q-1.46875 2.375 -3.8125 3.640625q-2.34375 1.25 -4.953125 1.25z" fill-rule="nonzero"/><path fill="#3c78d8" d="m297.26273 84.0l44.787415 0l0 48.0l-44.787415 0z" fill-rule="evenodd"/><path stroke="#000000" stroke-width="4.0" stroke-linejoin="round" stroke-linecap="butt" d="m297.26273 84.0l44.787415 0l0 48.0l-44.787415 0z" fill-rule="evenodd"/><path fill="#ffffff" d="m309.94202 121.34l0 -26.71875l10.03125 0q3.0625 0 4.90625 0.8125q1.84375 0.8125 2.890625 2.5q1.046875 1.6875 1.046875 3.515625q0 1.71875 -0.9375 3.234375q-0.921875 1.515625 -2.796875 2.4375q2.421875 0.71875 3.71875 2.4375q1.3125 1.703125 1.3125 4.03125q0 1.875 -0.796875 3.5q-0.78125 1.609375 -1.953125 2.484375q-1.171875 0.875 -2.9375 1.328125q-1.75 0.4375 -4.296875 0.4375l-10.1875 0zm3.53125 -15.5l5.78125 0q2.359375 0 3.375 -0.296875q1.34375 -0.40625 2.03125 -1.328125q0.6875 -0.9375 0.6875 -2.34375q0 -1.328125 -0.640625 -2.328125q-0.640625 -1.015625 -1.828125 -1.390625q-1.1875 -0.375 -4.0625 -0.375l-5.34375 0l0 8.0625zm0 12.34375l6.65625 0q1.71875 0 2.40625 -0.125q1.21875 -0.21875 2.03125 -0.71875q0.828125 -0.515625 1.359375 -1.484375q0.53125 -0.984375 0.53125 -2.265625q0 -1.484375 -0.765625 -2.59375q-0.765625 -1.109375 -2.125 -1.546875q-1.359375 -0.453125 -3.90625 -0.453125l-6.1875 0l0 9.1875z" fill-rule="nonzero"/><path fill="#3c78d8" d="m386.86273 84.0l44.787415 0l0 48.0l-44.787415 0z" fill-rule="evenodd"/><path stroke="#000000" stroke-width="4.0" stroke-linejoin="round" stroke-linecap="butt" d="m386.86273 84.0l44.787415 0l0 48.0l-44.787415 0z" fill-rule="evenodd"/><path fill="#ffffff" d="m398.73773 121.34l0 -26.71875l9.203125 0q3.125 0 4.765625 0.375q2.296875 0.53125 3.921875 1.921875q2.109375 1.78125 3.15625 4.5625q1.046875 2.78125 1.046875 6.359375q0 3.03125 -0.71875 5.390625q-0.703125 2.34375 -1.8125 3.890625q-1.109375 1.546875 -2.4375 2.4375q-1.3125 0.875 -3.1875 1.328125q-1.859375 0.453125 -4.296875 0.453125l-9.640625 0zm3.546875 -3.15625l5.703125 0q2.640625 0 4.140625 -0.484375q1.5 -0.5 2.40625 -1.390625q1.25 -1.25 1.953125 -3.375q0.703125 -2.125 0.703125 -5.15625q0 -4.1875 -1.375 -6.4375q-1.375 -2.25 -3.34375 -3.015625q-1.421875 -0.546875 -4.578125 -0.546875l-5.609375 0l0 20.40625z" fill-rule="nonzero"/><path fill="#3c78d8" d="m431.66272 84.0l44.787415 0l0 48.0l-44.787415 0z" fill-rule="evenodd"/><path stroke="#000000" stroke-width="4.0" stroke-linejoin="round" stroke-linecap="butt" d="m431.66272 84.0l44.787415 0l0 48.0l-44.787415 0z" fill-rule="evenodd"/><path fill="#ffffff" d="m444.56076 121.34l0 -26.71875l19.3125 0l0 3.15625l-15.78125 0l0 8.171875l14.78125 0l0 3.140625l-14.78125 0l0 9.09375l16.40625 0l0 3.15625l-19.9375 0z" fill-rule="nonzero"/><path fill="#3c78d8" d="m252.46272 84.0l44.7874 0l0 48.0l-44.7874 0z" fill-rule="evenodd"/><path stroke="#000000" stroke-width="4.0" stroke-linejoin="round" stroke-linecap="butt" d="m252.46272 84.0l44.7874 0l0 48.0l-44.7874 0z" fill-rule="evenodd"/><path fill="#ffffff" d="m262.36078 121.34l10.25 -26.71875l3.8125 0l10.9375 26.71875l-4.03125 0l-3.109375 -8.09375l-11.171875 0l-2.9375 8.09375l-3.75 0zm7.703125 -10.96875l9.0625 0l-2.796875 -7.40625q-1.265625 -3.375 -1.890625 -5.53125q-0.515625 2.5625 -1.4375 5.09375l-2.9375 7.84375z" fill-rule="nonzero"/><path fill="#000000" fill-opacity="0.0" d="m274.85645 132.0l0 53.669296" fill-rule="evenodd"/><path stroke="#000000" stroke-width="3.0" stroke-linejoin="round" stroke-linecap="butt" d="m274.8564 150.0l0 17.669296" fill-rule="evenodd"/><path fill="#000000" stroke="#000000" stroke-width="3.0" stroke-linecap="butt" d="m279.8116 150.0l-4.9552 -13.614288l-4.9552 13.614288z" fill-rule="evenodd"/><path fill="#000000" stroke="#000000" stroke-width="3.0" stroke-linecap="butt" d="m269.9012 167.6693l4.9552 13.614288l4.9552 -13.614288z" fill-rule="evenodd"/><path fill="#000000" fill-opacity="0.0" d="m476.46457 132.0l226.23624 0l0 53.669296l-226.23624 0z" fill-rule="evenodd"/><path fill="#000000" d="m499.55832 163.20688q-1.375 0.796875 -2.859375 0.796875q-1.953125 0 -2.984375 -1.03125q-1.375 -1.375 -1.375 -3.09375q0 -1.828125 1.375 -3.203125q1.375 -1.375 3.4375 -1.375q1.375 0 2.640625 0.34375l0 -2.515625l-12.609375 0.796875l-0.453125 -2.40625l13.0625 -0.578125l0 -5.375l2.046875 0q1.265625 0.21875 0.234375 0.90625l0 4.359375l9.734375 -0.6875l0 2.40625l-9.734375 0.453125l0 4.359375q0.453125 2.0625 0.453125 4.578125q-0.109375 5.84375 -6.515625 9.859375l-2.1875 -1.609375q5.734375 -3.328125 5.734375 -6.984375zm-2.171875 -5.96875q-1.265625 0 -2.0625 0.8125q-0.6875 0.6875 -0.6875 1.828125q0 1.03125 0.5625 1.609375q0.578125 0.5625 1.84375 0.5625q1.25 0 2.0625 -0.796875q0.6875 -0.6875 0.6875 -1.71875q0 -1.03125 -0.6875 -1.71875q-0.578125 -0.578125 -1.71875 -0.578125zm41.57309 8.484375q-6.40625 -4.703125 -11.796875 -9.515625q-0.6875 -0.5625 -1.375 -0.5625q-0.6875 0 -1.140625 0.453125q-5.265625 4.703125 -7.21875 6.296875l-2.296875 -2.28125q3.09375 -1.84375 8.140625 -6.53125q1.140625 -1.03125 2.296875 -1.03125q1.484375 0 2.75 1.03125q8.703125 7.21875 13.28125 9.5l-2.640625 2.640625zm-6.75 -16.5q2.0625 1.03125 4.8125 2.984375l-1.5 1.484375q-2.515625 -1.9375 -4.6875 -3.09375l1.375 -1.375zm2.40625 -2.75q1.9375 1.03125 4.578125 3.09375l-1.375 1.5q-2.640625 -2.0625 -4.578125 -3.21875l1.375 -1.375zm33.109375 4.703125q-4.015625 0 -6.3125 0.796875q-2.515625 0.921875 -4.6875 3.09375q-2.171875 2.171875 -2.171875 5.609375q0 2.75 1.71875 4.46875q2.28125 2.296875 8.8125 2.53125l-0.921875 2.515625q-6.75 -0.34375 -9.390625 -2.984375q-2.625 -2.625 -2.625 -6.40625q0 -5.390625 4.234375 -8.484375q-5.390625 0.8125 -11.0 1.609375l-0.6875 -2.640625q11.234375 -0.796875 22.5625 -2.75l0.46875 2.640625zm28.1828 5.375l0 2.53125l-24.171875 0l0 -2.53125l24.171875 0zm21.640625 -3.203125q0.578125 5.734375 2.1875 9.28125q2.0625 -4.46875 2.28125 -9.28125l-4.46875 0zm-5.265625 4.359375q3.78125 -4.703125 4.46875 -12.265625l2.640625 0.34375q0.453125 0.46875 -0.34375 0.578125q-0.46875 2.640625 -1.15625 4.8125l8.375 0l0 2.171875l-1.953125 0q0 5.5 -3.09375 11.109375q2.0625 2.0625 5.953125 4.015625l-1.484375 2.515625q-3.09375 -1.59375 -5.84375 -4.578125q-2.984375 3.4375 -7.90625 5.390625l-1.375 -2.40625q5.15625 -1.84375 7.796875 -4.9375q-1.71875 -3.4375 -2.1875 -8.359375q-0.796875 1.828125 -2.28125 3.4375l-1.609375 -1.828125zm1.15625 -10.65625l0 2.171875l-5.734375 0q-1.140625 2.875 -2.515625 5.390625l4.8125 -0.578125l-1.71875 -2.40625l1.71875 -1.140625q2.0625 2.515625 3.65625 5.03125l-1.9375 1.265625l-0.578125 -0.921875l-2.859375 0.46875l0 3.890625l4.34375 0l0 2.171875l-4.34375 0l0 4.015625l4.921875 -1.265625l0.453125 1.953125l-11.453125 3.203125q-0.109375 0.8125 -0.578125 0.34375l-0.90625 -2.515625l5.265625 -1.140625l0 -4.59375l-4.125 0l0 -2.171875l4.125 0l0 -3.546875l-4.234375 0.453125q-0.125 0.796875 -0.578125 0.34375l-0.6875 -2.515625l2.296875 -0.125q1.375 -2.625 2.40625 -5.609375l-4.125 0l0 -2.171875l12.375 0zm20.609375 8.359375q0 -1.140625 0.578125 -2.28125q0.453125 -0.921875 1.265625 -1.71875q2.28125 -2.296875 7.09375 -2.296875q4.46875 0 6.296875 1.828125q1.5 1.5 1.5 3.09375q0 1.375 -0.6875 2.40625q-0.8125 1.140625 -2.296875 1.828125q-2.296875 1.03125 -3.328125 1.84375q-0.5625 0.453125 -0.5625 1.25l0 0.921875l-2.515625 0l0 -1.71875q0 -1.609375 1.140625 -2.296875q2.515625 -1.484375 4.0 -2.171875q1.265625 -0.6875 1.265625 -1.9375q0 -0.921875 -0.6875 -1.609375q-1.03125 -1.03125 -4.125 -1.03125q-3.3125 0 -4.6875 1.375q-1.265625 1.265625 -1.265625 2.515625l0 0.578125l-2.984375 0l0 -0.578125zm7.0 10.078125l3.203125 0l0 3.328125l-3.203125 0l0 -3.328125z" fill-rule="nonzero"/><path fill="#3c78d8" d="m342.06274 181.39896l44.787384 0l0 48.0l-44.787384 0z" fill-rule="evenodd"/><path stroke="#000000" stroke-width="4.0" stroke-linejoin="round" stroke-linecap="butt" d="m342.06274 181.39896l44.787384 0l0 48.0l-44.787384 0z" fill-rule="evenodd"/><path fill="#ffffff" d="m373.00024 209.36395l3.546875 0.90625q-1.109375 4.34375 -4.0 6.640625q-2.890625 2.28125 -7.0625 2.28125q-4.328125 0 -7.03125 -1.75q-2.703125 -1.765625 -4.125 -5.09375q-1.40625 -3.34375 -1.40625 -7.171875q0 -4.171875 1.59375 -7.28125q1.59375 -3.109375 4.53125 -4.71875q2.953125 -1.609375 6.484375 -1.609375q4.015625 0 6.75 2.046875q2.734375 2.03125 3.8125 5.734375l-3.484375 0.8125q-0.9375 -2.90625 -2.703125 -4.234375q-1.765625 -1.34375 -4.4375 -1.34375q-3.09375 0 -5.15625 1.484375q-2.0625 1.46875 -2.90625 3.96875q-0.84375 2.484375 -0.84375 5.125q0 3.40625 0.984375 5.953125q1.0 2.546875 3.09375 3.8125q2.109375 1.25 4.546875 1.25q2.96875 0 5.03125 -1.71875q2.0625 -1.71875 2.78125 -5.09375z" fill-rule="nonzero"/><path fill="#3c78d8" d="m297.26273 189.93964l44.787415 0l0 48.0l-44.787415 0z" fill-rule="evenodd"/><path stroke="#000000" stroke-width="4.0" stroke-linejoin="round" stroke-linecap="butt" d="m297.26273 189.93964l44.787415 0l0 48.0l-44.787415 0z" fill-rule="evenodd"/><path fill="#ffffff" d="m309.94202 227.27963l0 -26.71875l10.03125 0q3.0625 0 4.90625 0.8125q1.84375 0.8125 2.890625 2.5q1.046875 1.6875 1.046875 3.515625q0 1.71875 -0.9375 3.234375q-0.921875 1.515625 -2.796875 2.4375q2.421875 0.71875 3.71875 2.4375q1.3125 1.703125 1.3125 4.03125q0 1.875 -0.796875 3.5q-0.78125 1.609375 -1.953125 2.484375q-1.171875 0.875 -2.9375 1.328125q-1.75 0.4375 -4.296875 0.4375l-10.1875 0zm3.53125 -15.5l5.78125 0q2.359375 0 3.375 -0.296875q1.34375 -0.40625 2.03125 -1.328125q0.6875 -0.9375 0.6875 -2.34375q0 -1.328125 -0.640625 -2.328125q-0.640625 -1.015625 -1.828125 -1.390625q-1.1875 -0.375 -4.0625 -0.375l-5.34375 0l0 8.0625zm0 12.34375l6.65625 0q1.71875 0 2.40625 -0.125q1.21875 -0.21875 2.03125 -0.71875q0.828125 -0.515625 1.359375 -1.484375q0.53125 -0.984375 0.53125 -2.265625q0 -1.484375 -0.765625 -2.59375q-0.765625 -1.109375 -2.125 -1.546875q-1.359375 -0.453125 -3.90625 -0.453125l-6.1875 0l0 9.1875z" fill-rule="nonzero"/><path fill="#3c78d8" d="m386.86273 189.93964l44.787415 0l0 48.0l-44.787415 0z" fill-rule="evenodd"/><path stroke="#000000" stroke-width="4.0" stroke-linejoin="round" stroke-linecap="butt" d="m386.86273 189.93964l44.787415 0l0 48.0l-44.787415 0z" fill-rule="evenodd"/><path fill="#ffffff" d="m398.73773 227.27963l0 -26.71875l9.203125 0q3.125 0 4.765625 0.375q2.296875 0.53125 3.921875 1.921875q2.109375 1.78125 3.15625 4.5625q1.046875 2.78125 1.046875 6.359375q0 3.03125 -0.71875 5.390625q-0.703125 2.34375 -1.8125 3.890625q-1.109375 1.546875 -2.4375 2.4375q-1.3125 0.875 -3.1875 1.328125q-1.859375 0.453125 -4.296875 0.453125l-9.640625 0zm3.546875 -3.15625l5.703125 0q2.640625 0 4.140625 -0.484375q1.5 -0.5 2.40625 -1.390625q1.25 -1.25 1.953125 -3.375q0.703125 -2.125 0.703125 -5.15625q0 -4.1875 -1.375 -6.4375q-1.375 -2.25 -3.34375 -3.015625q-1.421875 -0.546875 -4.578125 -0.546875l-5.609375 0l0 20.40625z" fill-rule="nonzero"/><path fill="#3c78d8" d="m431.66272 181.39896l44.787415 0l0 48.0l-44.787415 0z" fill-rule="evenodd"/><path stroke="#000000" stroke-width="4.0" stroke-linejoin="round" stroke-linecap="butt" d="m431.66272 181.39896l44.787415 0l0 48.0l-44.787415 0z" fill-rule="evenodd"/><path fill="#ffffff" d="m444.56076 218.73895l0 -26.71875l19.3125 0l0 3.15625l-15.78125 0l0 8.171875l14.78125 0l0 3.140625l-14.78125 0l0 9.09375l16.40625 0l0 3.15625l-19.9375 0z" fill-rule="nonzero"/><path fill="#3c78d8" d="m252.46272 181.39896l44.7874 0l0 48.0l-44.7874 0z" fill-rule="evenodd"/><path stroke="#000000" stroke-width="4.0" stroke-linejoin="round" stroke-linecap="butt" d="m252.46272 181.39896l44.7874 0l0 48.0l-44.7874 0z" fill-rule="evenodd"/><path fill="#ffffff" d="m262.36078 218.73895l10.25 -26.71875l3.8125 0l10.9375 26.71875l-4.03125 0l-3.109375 -8.09375l-11.171875 0l-2.9375 8.09375l-3.75 0zm7.703125 -10.96875l9.0625 0l-2.796875 -7.40625q-1.265625 -3.375 -1.890625 -5.53125q-0.515625 2.5625 -1.4375 5.09375l-2.9375 7.84375z" fill-rule="nonzero"/><path fill="#000000" fill-opacity="0.0" d="m319.65643 132.0l0 57.95276" fill-rule="evenodd"/><path stroke="#000000" stroke-width="3.0" stroke-linejoin="round" stroke-linecap="butt" d="m319.65643 150.0l0 21.952759" fill-rule="evenodd"/><path fill="#000000" stroke="#000000" stroke-width="3.0" stroke-linecap="butt" d="m324.61163 150.0l-4.9552 -13.614288l-4.9552 13.614288z" fill-rule="evenodd"/><path fill="#000000" stroke="#000000" stroke-width="3.0" stroke-linecap="butt" d="m314.70123 171.95276l4.9552 13.614288l4.9552 -13.614288z" fill-rule="evenodd"/><path fill="#000000" fill-opacity="0.0" d="m364.45642 132.0l0 49.385834" fill-rule="evenodd"/><path stroke="#000000" stroke-width="3.0" stroke-linejoin="round" stroke-linecap="butt" d="m364.45645 150.0l0 13.385834" fill-rule="evenodd"/><path fill="#000000" stroke="#000000" stroke-width="3.0" stroke-linecap="butt" d="m369.41165 150.0l-4.9552 -13.614288l-4.9552 13.614288z" fill-rule="evenodd"/><path fill="#000000" stroke="#000000" stroke-width="3.0" stroke-linecap="butt" d="m359.50125 163.38583l4.9552 13.614288l4.9552 -13.614288z" fill-rule="evenodd"/><path fill="#000000" fill-opacity="0.0" d="m409.25644 132.0l0 57.95276" fill-rule="evenodd"/><path stroke="#000000" stroke-width="3.0" stroke-linejoin="round" stroke-linecap="butt" d="m409.25644 150.0l0 21.952759" fill-rule="evenodd"/><path fill="#000000" stroke="#000000" stroke-width="3.0" stroke-linecap="butt" d="m414.21164 150.0l-4.9552 -13.614288l-4.9552 13.614288z" fill-rule="evenodd"/><path fill="#000000" stroke="#000000" stroke-width="3.0" stroke-linecap="butt" d="m404.30124 171.95276l4.9552 13.614288l4.9552 -13.614288z" fill-rule="evenodd"/><path fill="#000000" fill-opacity="0.0" d="m454.05643 132.0l0 49.385834" fill-rule="evenodd"/><path stroke="#000000" stroke-width="3.0" stroke-linejoin="round" stroke-linecap="butt" d="m454.05643 150.0l0 13.385834" fill-rule="evenodd"/><path fill="#000000" stroke="#000000" stroke-width="3.0" stroke-linecap="butt" d="m459.01163 150.0l-4.9552 -13.614288l-4.9552 13.614288z" fill-rule="evenodd"/><path fill="#000000" stroke="#000000" stroke-width="3.0" stroke-linecap="butt" d="m449.10123 163.38583l4.9552 13.614288l4.9552 -13.614288z" fill-rule="evenodd"/><path fill="#000000" fill-opacity="0.0" d="m-2.7007873 169.39896l255.14961 0l0 72.0l-255.14961 0z" fill-rule="evenodd"/><path fill="#000000" d="m31.596088 188.6402l3.109375 0l0 23.6875l-3.109375 0l0 -23.6875zm10.453125 -4.296875l3.1875 0l0 34.15625q0 1.671875 -0.453125 2.484375q-0.4375 0.8125 -1.453125 1.234375q-1.078125 0.375 -2.9375 0.484375q-1.84375 0.109375 -4.78125 0.109375q-0.09375 -0.421875 -0.3125 -1.03125q-0.203125 -0.59375 -0.421875 -1.1875q-0.21875 -0.59375 -0.46875 -1.015625q2.265625 0.03125 4.09375 0.046875q1.84375 0.03125 2.4375 -0.015625q0.59375 -0.03125 0.84375 -0.265625q0.265625 -0.234375 0.265625 -0.84375l0 -34.15625zm-26.234375 19.75l10.062501 0l0 2.859375l-10.062501 0l0 -2.859375zm8.734376 0l3.0 0q0 0 -0.03125 0.234375q-0.015625 0.234375 -0.015625 0.5625q0 0.3125 0 0.515625q-0.21875 5.375 -0.5 8.640625q-0.265625 3.265625 -0.640625 4.953125q-0.359375 1.6875 -0.953125 2.359375q-0.515625 0.6875 -1.171875 0.921875q-0.65625 0.234375 -1.59375 0.3125q-0.8125 0.09375 -2.25 0.09375q-1.421875 0 -3.0 -0.09375q-0.046875 -0.625 -0.28125 -1.4375q-0.234375 -0.8125 -0.625 -1.40625q1.625 0.15625 2.96875 0.171875q1.34375 0.03125 1.90625 0.03125q0.546875 0 0.890625 -0.0625q0.34375 -0.0625 0.59375 -0.40625q0.4375 -0.421875 0.734375 -2.0q0.296875 -1.578125 0.53125 -4.671875q0.234375 -3.09375 0.4375 -8.21875l0 -0.5zm-11.250001 -15.75l0 8.234375l10.875001 0l0 -8.234375l-10.875001 0zm-2.953125 -2.859375l16.890625 0l0 14.0l-16.890625 0l0 -14.0zm4.703125 12.890625l3.156251 0q-0.171875 3.375 -0.578125 6.859375q-0.40625 3.46875 -1.265625 6.734375q-0.84375095 3.25 -2.406251 6.046875q-1.5625 2.796875 -3.984375 4.84375q-0.390625 -0.5625 -1.046875 -1.203125q-0.65625 -0.640625 -1.21875 -0.96875q2.3125 -1.875 3.6875 -4.4375q1.390625 -2.5625 2.140625 -5.5625q0.75 -3.015625 1.0625 -6.140625q0.3125 -3.140625 0.453125 -6.171875zm57.968685 -8.15625q-0.4375 3.328125 -1.09375 6.953125q-0.65625 3.625 -1.6875 7.046875q-1.28125 4.390625 -2.84375 7.34375q-1.546875 2.9375 -3.34375 4.4375q-1.7812462 1.484375 -3.7499962 1.484375q-1.875 0 -3.625 -1.359375q-1.75 -1.375 -2.859375 -3.953125q-1.109375 -2.578125 -1.109375 -6.078125q0 -3.5 1.421875 -6.609375q1.4375 -3.109375 3.96875 -5.515625q2.546875 -2.421875 5.953121 -3.828125q3.421875 -1.40625 7.296875 -1.40625q3.75 0 6.75 1.234375q3.015625 1.234375 5.140625 3.390625q2.140625 2.15625 3.296875 5.0q1.15625 2.828125 1.15625 6.078125q0 4.46875 -1.90625 7.890625q-1.890625 3.40625 -5.453125 5.546875q-3.5625 2.125 -8.640625 2.8125l-2.0 -3.15625q1.015625 -0.140625 1.953125 -0.265625q0.9375 -0.125 1.71875 -0.296875q2.046875 -0.46875 3.984375 -1.46875q1.9375 -1.0 3.46875 -2.5625q1.546875 -1.5625 2.453125 -3.703125q0.921875 -2.15625 0.921875 -4.9375q0 -2.59375 -0.859375 -4.828125q-0.84375 -2.25 -2.515625 -3.953125q-1.65625 -1.703125 -4.046875 -2.6875q-2.390625 -0.984375 -5.453125 -0.984375q-3.5 0 -6.34375 1.28125q-2.8281212 1.28125 -4.812496 3.359375q-1.984375 2.0625 -3.0625 4.515625q-1.0625 2.453125 -1.0625 4.796875q0 2.6875 0.703125 4.421875q0.703125 1.71875 1.703125 2.53125q1.015625 0.8125 1.984375 0.8125q1.03125 0 2.09375 -1.0q1.0625 -1.015625 2.1718712 -3.25q1.109375 -2.234375 2.1875 -5.828125q0.9375 -3.0625 1.59375 -6.515625q0.65625 -3.453125 0.953125 -6.78125l3.59375 0.03125zm51.68744 -3.234375q-0.03125 0.8125 -0.078125 1.734375q-0.046875 0.90625 -0.046875 1.96875q0 0.859375 0 2.1875q0 1.3125 0 2.625q0 1.296875 0 2.109375q0 3.828125 -0.28125 6.515625q-0.265625 2.6875 -0.796875 4.59375q-0.53125 1.890625 -1.390625 3.34375q-0.859375 1.453125 -2.0 2.8125q-1.375 1.625 -3.140625 2.84375q-1.765625 1.21875 -3.609375 2.046875q-1.828125 0.828125 -3.40625 1.34375l-2.78125 -2.9375q2.953125 -0.734375 5.578125 -2.078125q2.625 -1.34375 4.625 -3.609375q1.15625 -1.3125 1.859375 -2.703125q0.703125 -1.390625 1.0625 -3.09375q0.359375 -1.703125 0.484375 -3.953125q0.140625 -2.265625 0.140625 -5.296875q0 -0.859375 0 -2.140625q0 -1.28125 0 -2.578125q0 -1.296875 0 -2.03125q0 -1.0625 -0.078125 -1.96875q-0.0625 -0.921875 -0.140625 -1.734375l4.0 0zm-19.78125 0.34375q-0.046875 0.59375 -0.109375 1.453125q-0.0625 0.84375 -0.0625 1.609375q0 0.296875 0 1.34375q0 1.046875 0 2.5q0 1.453125 0 3.078125q0 1.609375 0 3.125q0 1.515625 0 2.625q0 1.109375 0 1.578125q0 0.8125 0.0625 1.734375q0.0625 0.90625 0.109375 1.515625l-3.921875 0q0.078125 -0.515625 0.140625 -1.4375q0.0625 -0.921875 0.0625 -1.859375q0 -0.421875 0 -1.546875q0 -1.140625 0 -2.625q0 -1.5 0 -3.109375q0 -1.625 0 -3.078125q0 -1.453125 0 -2.5q0 -1.046875 0 -1.34375q0 -0.546875 -0.046875 -1.5q-0.03125 -0.96875 -0.125 -1.5625l3.890625 0zm63.46869 3.5q-0.21875 0.25 -0.546875 0.828125q-0.3125 0.578125 -0.515625 1.046875q-0.8125 2.09375 -2.140625 4.625q-1.3125 2.53125 -2.9375 5.015625q-1.625 2.46875 -3.421875 4.46875q-2.34375 2.65625 -5.15625 5.15625q-2.8125 2.484375 -5.9375 4.640625q-3.109375 2.15625 -6.46875 3.6875l-2.734375 -2.859375q3.453125 -1.359375 6.625 -3.390625q3.1875 -2.03125 5.984375 -4.4375q2.796875 -2.40625 4.96875 -4.84375q1.453125 -1.65625 2.875 -3.71875q1.421875 -2.078125 2.546875 -4.234375q1.140625 -2.15625 1.65625 -3.90625q-0.34375 0 -1.625 0q-1.28125 0 -3.03125 0q-1.75 0 -3.671875 0q-1.90625 0 -3.65625 0q-1.75 0 -3.015625 0q-1.25 0 -1.640625 0q-0.71875 0 -1.640625 0.046875q-0.921875 0.046875 -1.671875 0.09375q-0.734375 0.03125 -0.984375 0.078125l0 -3.875q0.296875 0.03125 1.078125 0.109375q0.796875 0.0625 1.6875 0.109375q0.890625 0.03125 1.53125 0.03125q0.46875 0 1.703125 0q1.25 0 2.96875 0q1.734375 0 3.609375 0q1.875 0 3.59375 0q1.734375 0 2.96875 0q1.234375 0 1.625 0q1.0625 0 1.890625 -0.078125q0.84375 -0.09375 1.3125 -0.265625l2.171875 1.671875zm-9.0 13.734375q1.75 1.453125 3.59375 3.203125q1.859375 1.734375 3.65625 3.59375q1.796875 1.859375 3.328125 3.546875q1.53125 1.6875 2.640625 3.046875l-2.984375 2.5625q-1.484375 -2.046875 -3.578125 -4.40625q-2.09375 -2.375 -4.421875 -4.734375q-2.3125 -2.375 -4.671875 -4.390625l2.4375 -2.421875zm31.906189 11.046875q0 -0.59375 0 -2.40625q0 -1.828125 0 -4.3125q0 -2.5 0 -5.25q0 -2.75 0 -5.34375q0 -2.609375 0 -4.609375q0 -2.015625 0 -2.90625q0 -0.890625 -0.09375 -2.171875q-0.078125 -1.28125 -0.25 -2.265625l4.1875 0q-0.09375 0.9375 -0.203125 2.21875q-0.09375 1.28125 -0.09375 2.21875q0 1.65625 0 3.984375q0 2.328125 0 4.953125q0 2.625 0.015625 5.203125q0.015625 2.578125 0.015625 4.828125q0 2.234375 0 3.796875q0 1.546875 0 2.0625q0 0.671875 0.015625 1.578125q0.03125 0.890625 0.109375 1.8125q0.09375 0.90625 0.140625 1.640625l-4.140625 0q0.171875 -1.03125 0.234375 -2.4375q0.0625 -1.40625 0.0625 -2.59375zm2.8125 -18.09375q2.09375 0.640625 4.625 1.515625q2.546875 0.875 5.1875 1.859375q2.640625 0.984375 5.0 1.984375q2.375 1.0 4.125 1.890625l-1.453125 3.625q-1.828125 -1.015625 -4.140625 -2.015625q-2.296875 -1.0 -4.703125 -1.984375q-2.40625 -0.984375 -4.65625 -1.765625q-2.234375 -0.796875 -3.984375 -1.3125l0 -3.796875zm40.945557 5.203125q-1.140625 0 -1.984375 -0.828125q-0.828125 -0.828125 -0.828125 -2.15625q0 -1.3125 0.828125 -2.140625q0.84375 -0.84375 1.984375 -0.84375q1.15625 0 1.984375 0.84375q0.84375 0.828125 0.84375 2.140625q0 1.328125 -0.84375 2.15625q-0.828125 0.828125 -1.984375 0.828125zm0 17.1875q-1.140625 0 -1.984375 -0.828125q-0.828125 -0.828125 -0.828125 -2.109375q0 -1.359375 0.828125 -2.171875q0.84375 -0.8125 1.984375 -0.8125q1.15625 0 1.984375 0.8125q0.84375 0.8125 0.84375 2.171875q0 1.28125 -0.84375 2.109375q-0.828125 0.828125 -1.984375 0.828125z" fill-rule="nonzero"/></g></svg>