<svg version="1.1" viewBox="0.0 0.0 731.6587926509186 242.20997375328085" fill="none" stroke="none" stroke-linecap="square" stroke-miterlimit="10" xmlns:xlink="http://www.w3.org/1999/xlink" xmlns="http://www.w3.org/2000/svg"><clipPath id="p.0"><path d="m0 0l731.6588 0l0 242.20998l-731.6588 0l0 -242.20998z" clip-rule="nonzero"/></clipPath><g clip-path="url(#p.0)"><path fill="#000000" fill-opacity="0.0" d="m0 0l731.6588 0l0 242.20998l-731.6588 0z" fill-rule="evenodd"/><path fill="#3c78d8" d="m216.61838 80.685036l44.787384 0l0 48.000008l-44.787384 0z" fill-rule="evenodd"/><path stroke="#000000" stroke-width="4.0" stroke-linejoin="round" stroke-linecap="butt" d="m216.61838 80.685036l44.787384 0l0 48.000008l-44.787384 0z" fill-rule="evenodd"/><path fill="#ffffff" d="m229.29767 118.02503l0 -26.71875l10.03125 0q3.0625 0 4.90625 0.8125q1.84375 0.8125 2.890625 2.5q1.046875 1.6875 1.046875 3.515625q0 1.71875 -0.9375 3.234375q-0.921875 1.515625 -2.796875 2.4375q2.421875 0.71875 3.71875 2.4375q1.3125 1.703125 1.3125 4.03125q0 1.875 -0.796875 3.5q-0.78125 1.609375 -1.953125 2.484375q-1.171875 0.875 -2.9375 1.328125q-1.75 0.4375 -4.296875 0.4375l-10.1875 0zm3.53125 -15.5l5.78125 0q2.359375 0 3.375 -0.296875q1.34375 -0.40625 2.03125 -1.328125q0.6875 -0.9375 0.6875 -2.34375q0 -1.328125 -0.640625 -2.328125q-0.640625 -1.015625 -1.828125 -1.390625q-1.1875 -0.375 -4.0625 -0.375l-5.34375 0l0 8.0625zm0 12.34375l6.65625 0q1.71875 0 2.40625 -0.125q1.21875 -0.21875 2.03125 -0.71875q0.828125 -0.515625 1.359375 -1.484375q0.53125 -0.984375 0.53125 -2.265625q0 -1.484375 -0.765625 -2.59375q-0.765625 -1.109375 -2.125 -1.546875q-1.359375 -0.453125 -3.90625 -0.453125l-6.1875 0l0 9.1875z" fill-rule="nonzero"/><path fill="#3c78d8" d="m261.41837 80.685036l44.787415 0l0 48.000008l-44.787415 0z" fill-rule="evenodd"/><path stroke="#000000" stroke-width="4.0" stroke-linejoin="round" stroke-linecap="butt" d="m261.41837 80.685036l44.787415 0l0 48.000008l-44.787415 0z" fill-rule="evenodd"/><path fill="#ffffff" d="m292.35587 108.65003l3.546875 0.90625q-1.109375 4.34375 -4.0 6.640625q-2.890625 2.28125 -7.0625 2.28125q-4.328125 0 -7.03125 -1.75q-2.703125 -1.765625 -4.125 -5.09375q-1.40625 -3.34375 -1.40625 -7.171875q0 -4.171875 1.59375 -7.28125q1.59375 -3.109375 4.53125 -4.71875q2.953125 -1.609375 6.484375 -1.609375q4.015625 0 6.75 2.046875q2.734375 2.03125 3.8125 5.734375l-3.484375 0.8125q-0.9375 -2.90625 -2.703125 -4.234375q-1.765625 -1.34375 -4.4375 -1.34375q-3.09375 0 -5.15625 1.484375q-2.0625 1.46875 -2.90625 3.96875q-0.84375 2.484375 -0.84375 5.125q0 3.40625 0.984375 5.953125q1.0 2.546875 3.09375 3.8125q2.109375 1.25 4.546875 1.25q2.96875 0 5.03125 -1.71875q2.0625 -1.71875 2.78125 -5.09375z" fill-rule="nonzero"/><path fill="#000000" fill-opacity="0.0" d="m306.21838 80.685036l44.787384 0l0 48.000008l-44.787384 0z" fill-rule="evenodd"/><path stroke="#000000" stroke-width="4.0" stroke-linejoin="round" stroke-linecap="butt" d="m306.21838 80.685036l44.787384 0l0 48.000008l-44.787384 0z" fill-rule="evenodd"/><path fill="#000000" fill-opacity="0.0" d="m351.01837 80.685036l44.787415 0l0 48.000008l-44.787415 0z" fill-rule="evenodd"/><path stroke="#000000" stroke-width="4.0" stroke-linejoin="round" stroke-linecap="butt" d="m351.01837 80.685036l44.787415 0l0 48.000008l-44.787415 0z" fill-rule="evenodd"/><path fill="#3c78d8" d="m171.81837 80.685036l44.7874 0l0 48.000008l-44.7874 0z" fill-rule="evenodd"/><path stroke="#000000" stroke-width="4.0" stroke-linejoin="round" stroke-linecap="butt" d="m171.81837 80.685036l44.7874 0l0 48.000008l-44.7874 0z" fill-rule="evenodd"/><path fill="#ffffff" d="m181.71642 118.02503l10.25 -26.71875l3.8125 0l10.9375 26.71875l-4.03125 0l-3.109375 -8.09375l-11.171875 0l-2.9375 8.09375l-3.75 0zm7.703125 -10.96875l9.0625 0l-2.796875 -7.40625q-1.265625 -3.375 -1.890625 -5.53125q-0.515625 2.5625 -1.4375 5.09375l-2.9375 7.84375z" fill-rule="nonzero"/><path fill="#000000" fill-opacity="0.0" d="m42.46719 68.685036l139.37007 0l0 72.00001l-139.37007 0z" fill-rule="evenodd"/><path fill="#000000" d="m76.71719 98.12941l12.796875 0l0 3.109375l-12.796875 0l0 -3.109375zm-1.484375 0l3.15625 0l0 18.546875q0 1.203125 0.421875 1.5625q0.421875 0.359375 1.921875 0.359375q0.34375 0 1.234375 0q0.890625 0 1.953125 0q1.078125 0 2.03125 0q0.96875 0 1.390625 0q0.984375 0 1.453125 -0.546875q0.46875 -0.5625 0.671875 -2.09375q0.21875 -1.53125 0.3125 -4.609375q0.421875 0.265625 0.921875 0.5625q0.515625 0.296875 1.0625 0.484375q0.5625 0.1875 1.0 0.328125q-0.21875 3.453125 -0.6875 5.390625q-0.46875 1.9375 -1.515625 2.71875q-1.046875 0.796875 -3.0 0.796875q-0.265625 0 -1.0 0q-0.71875 0 -1.671875 0q-0.953125 0 -1.90625 0q-0.9375 0 -1.640625 0q-0.703125 0 -0.953125 0q-1.96875 0 -3.09375 -0.4375q-1.125 -0.421875 -1.59375 -1.484375q-0.46875 -1.0625 -0.46875 -3.03125l0 -18.546875zm-0.140625 -13.390625l16.046875 0l0 19.40625l-3.078125 0l0 -16.34375l-12.96875 0l0 -3.0625zm-20.125004 7.546875l17.062504 0l0 29.0l-2.640625 0l0 -26.234375l-11.828129 0l0 26.828125l-2.59375 0l0 -29.59375zm1.3125 17.234375l14.375004 0l0 2.390625l-14.375004 0l0 -2.390625zm0 6.828125l14.375004 0l0 2.59375l-14.375004 0l0 -2.59375zm-2.375 -31.875l19.109379 0l0 2.859375l-19.109379 0l0 -2.859375zm6.140625 0.765625l2.296875 0l0 9.046875l-2.296875 0l0 -9.046875zm4.812504 0l2.34375 0l0 9.046875l-2.34375 0l0 -9.046875zm-4.390629 9.0l1.796875 0l0 4.234375q0 1.3125 -0.265625 2.8125q-0.25 1.484375 -0.953125 2.96875q-0.703125 1.46875 -2.078125 2.703125q-0.203125 -0.296875 -0.65625 -0.671875q-0.453125 -0.390625 -0.75 -0.609375q1.25 -1.0625 1.859375 -2.3125q0.625 -1.265625 0.828125 -2.546875q0.21875 -1.28125 0.21875 -2.390625l0 -4.1875zm4.187504 0l1.828125 0l0 8.84375q0 0.375 0.078125 0.515625q0.09375 0.125 0.46875 0.125q0.140625 0 0.4375 0q0.296875 0 0.640625 0q0.34375 0 0.5 0q0.5625 0 0.640625 -0.140625q0.3125 0.21875 0.78125 0.421875q0.46875 0.1875 0.890625 0.3125q-0.125 0.640625 -0.59375 0.9375q-0.46875 0.296875 -1.375 0.296875q-0.171875 0 -0.625 0q-0.4375 0 -0.875 0q-0.421875 0 -0.578125 0q-1.28125 0 -1.75 -0.4375q-0.46875 -0.453125 -0.46875 -2.0l0 -8.875zm54.890564 -6.5625l3.15625 0l0 23.375l-3.15625 0l0 -23.375zm10.40625 -4.046875l3.15625 0l0 34.25q0 1.625 -0.421875 2.421875q-0.421875 0.8125 -1.453125 1.203125q-1.015625 0.375 -2.828125 0.484375q-1.8125 0.109375 -4.765625 0.109375q-0.125 -0.6875 -0.453125 -1.578125q-0.3125 -0.890625 -0.703125 -1.578125q2.21875 0.046875 3.984375 0.046875q1.78125 0 2.375 -0.046875q0.59375 0 0.84375 -0.234375q0.265625 -0.234375 0.265625 -0.828125l0 -34.25zm-27.078125 10.703125l11.59375 0l0 2.9375l-11.59375 0l0 -2.9375zm-6.1875 -9.296875l21.234375 0l0 2.984375l-21.234375 0l0 -2.984375zm3.15625 18.296875l1.53125 -2.390625q1.578125 0.890625 3.359375 2.0q1.796875 1.109375 3.375 2.203125q1.578125 1.09375 2.609375 1.9375l-1.578125 2.734375q-1.03125 -0.9375 -2.609375 -2.09375q-1.578125 -1.15625 -3.328125 -2.296875q-1.734375 -1.15625 -3.359375 -2.09375zm13.46875 -9.0l0.640625 0l0.5625 -0.125l2.0 0.71875q-1.140625 6.953125 -3.5 12.25q-2.34375 5.28125 -5.65625 9.0q-3.296875 3.703125 -7.21875 6.015625q-0.25 -0.390625 -0.6875 -0.84375q-0.421875 -0.4375 -0.890625 -0.890625q-0.46875 -0.453125 -0.859375 -0.65625q3.921875 -2.09375 7.078125 -5.5q3.171875 -3.421875 5.359375 -8.21875q2.203125 -4.796875 3.171875 -11.0625l0 -0.6875zm-8.90625 -7.9375l3.203125 0.59375q-0.90625 3.671875 -2.296875 7.515625q-1.375 3.84375 -3.359375 7.28125q-1.984375 3.421875 -4.625 5.984375q-0.265625 -0.34375 -0.6875 -0.71875q-0.421875 -0.390625 -0.828125 -0.765625q-0.40625 -0.390625 -0.75 -0.65625q2.46875 -2.390625 4.296875 -5.578125q1.84375 -3.203125 3.09375 -6.765625q1.265625 -3.5625 1.953125 -6.890625zm47.851807 15.609375q-1.140625 0 -1.984375 -0.828125q-0.828125 -0.828125 -0.828125 -2.15625q0 -1.3125 0.828125 -2.140625q0.84375 -0.84375 1.984375 -0.84375q1.15625 0 1.984375 0.84375q0.84375 0.828125 0.84375 2.140625q0 1.328125 -0.84375 2.15625q-0.828125 0.828125 -1.984375 0.828125zm0 17.1875q-1.140625 0 -1.984375 -0.828125q-0.828125 -0.828125 -0.828125 -2.109375q0 -1.359375 0.828125 -2.171875q0.84375 -0.8125 1.984375 -0.8125q1.15625 0 1.984375 0.8125q0.84375 0.8125 0.84375 2.171875q0 1.28125 -0.84375 2.109375q-0.828125 0.828125 -1.984375 0.828125z" fill-rule="nonzero"/><path fill="#000000" fill-opacity="0.0" d="m0 0l307.87402 0l0 72.0l-307.87402 0z" fill-rule="evenodd"/><path fill="#000000" d="m39.71875 30.381874q0 4.265625 -0.546875 7.546875q-0.53125 3.28125 -1.890625 5.84375q-1.359375 2.5625 -3.734375 4.546875q-2.359375 1.984375 -6.03125 3.609375l-2.859375 -2.6875q2.9375 -1.15625 5.109375 -2.515625q2.1875 -1.375 3.625 -3.421875q1.453125 -2.046875 2.171875 -5.109375q0.734375 -3.078125 0.734375 -7.5625l0 -10.359375q0 -1.28125 -0.09375 -2.234375q-0.078125 -0.96875 -0.109375 -1.265625l3.828125 0q-0.03125 0.296875 -0.125 1.265625q-0.078125 0.953125 -0.078125 2.234375l0 10.109375zm-15.359375 -13.359375q-0.046875 0.3125 -0.140625 1.171875q-0.078125 0.84375 -0.078125 1.953125l0 15.609375q0 0.765625 0.046875 1.609375q0.046875 0.828125 0.078125 1.453125q0.046875 0.609375 0.046875 0.8125l-3.75 0q0 -0.203125 0.03125 -0.796875q0.046875 -0.609375 0.09375 -1.4375q0.046875 -0.828125 0.046875 -1.640625l0 -15.609375q0 -0.734375 -0.046875 -1.5625q-0.046875 -0.828125 -0.125 -1.5625l3.796875 0zm-12.5 8.28125q0.21875 0.046875 0.875 0.109375q0.65625 0.0625 1.59375 0.125q0.9375 0.0625 1.796875 0.0625l28.28125 0q1.40625 0 2.421875 -0.078125q1.03125 -0.09375 1.5 -0.125l0 3.625q-0.390625 -0.046875 -1.453125 -0.09375q-1.0625 -0.046875 -2.46875 -0.046875l-28.28125 0q-0.890625 0 -1.796875 0.03125q-0.890625 0.015625 -1.5625 0.0625q-0.65625 0.046875 -0.90625 0.046875l0 -3.71875zm43.46869 9.25q5.546875 -1.484375 10.3125 -3.609375q4.78125 -2.140625 8.328125 -4.359375q2.21875 -1.40625 4.328125 -3.046875q2.109375 -1.640625 3.984375 -3.4375q1.875 -1.796875 3.328125 -3.546875l2.859375 2.65625q-1.796875 1.921875 -3.890625 3.75q-2.078125 1.828125 -4.40625 3.515625q-2.328125 1.6875 -4.84375 3.265625q-2.34375 1.40625 -5.296875 2.90625q-2.9375 1.484375 -6.265625 2.8125q-3.328125 1.3125 -6.734375 2.421875l-1.703125 -3.328125zm17.953125 -6.171875l3.671875 -1.109375l0 19.453125q0 0.796875 0.015625 1.703125q0.03125 0.890625 0.09375 1.65625q0.0625 0.765625 0.140625 1.203125l-4.171875 0q0.03125 -0.4375 0.09375 -1.203125q0.078125 -0.765625 0.109375 -1.65625q0.046875 -0.90625 0.046875 -1.703125l0 -18.34375zm52.048065 -13.140625q0.546875 0.765625 1.1875 1.8125q0.640625 1.046875 1.25 2.109375q0.625 1.0625 1.015625 1.921875l-2.3125 1.015625q-0.640625 -1.28125 -1.59375 -2.953125q-0.953125 -1.6875 -1.8125 -2.921875l2.265625 -0.984375zm4.8125 -1.5q0.59375 0.765625 1.25 1.84375q0.671875 1.0625 1.3125 2.109375q0.640625 1.046875 1.015625 1.859375l-2.296875 1.015625q-0.6875 -1.40625 -1.65625 -3.03125q-0.953125 -1.625 -1.84375 -2.8125l2.21875 -0.984375zm-3.84375 8.453125q-0.203125 0.25 -0.53125 0.828125q-0.3125 0.578125 -0.53125 1.0q-0.8125 2.09375 -2.140625 4.65625q-1.3125 2.5625 -2.9375 5.03125q-1.609375 2.46875 -3.40625 4.4375q-2.34375 2.640625 -5.171875 5.15625q-2.8125 2.515625 -5.921875 4.65625q-3.109375 2.125 -6.484375 3.703125l-2.734375 -2.859375q3.46875 -1.359375 6.640625 -3.375q3.171875 -2.03125 5.96875 -4.4375q2.796875 -2.421875 4.96875 -4.859375q1.453125 -1.65625 2.875 -3.75q1.4375 -2.09375 2.5625 -4.234375q1.140625 -2.15625 1.640625 -3.90625q-0.34375 0 -1.625 0q-1.265625 0 -3.015625 0q-1.75 0 -3.671875 0q-1.921875 0 -3.671875 0q-1.75 0 -3.015625 0q-1.25 0 -1.625 0q-0.734375 0 -1.65625 0.0625q-0.90625 0.0625 -1.65625 0.109375q-0.75 0.03125 -1.0 0.03125l0 -3.828125q0.296875 0.03125 1.078125 0.078125q0.796875 0.046875 1.6875 0.109375q0.90625 0.0625 1.546875 0.0625q0.46875 0 1.703125 0q1.234375 0 2.953125 0q1.734375 0 3.609375 0q1.875 0 3.609375 0q1.734375 0 2.96875 0q1.234375 0 1.609375 0q1.078125 0 1.90625 -0.109375q0.828125 -0.109375 1.296875 -0.234375l2.171875 1.671875zm-9.0 13.734375q1.75 1.453125 3.609375 3.203125q1.859375 1.75 3.640625 3.578125q1.796875 1.828125 3.328125 3.546875q1.546875 1.703125 2.65625 3.015625l-2.984375 2.609375q-1.5 -2.046875 -3.59375 -4.40625q-2.09375 -2.375 -4.421875 -4.765625q-2.3125 -2.390625 -4.65625 -4.390625l2.421875 -2.390625zm33.86743 -2.609375q-1.140625 0 -1.984375 -0.828125q-0.828125 -0.828125 -0.828125 -2.15625q0 -1.3125 0.828125 -2.140625q0.84375 -0.84375 1.984375 -0.84375q1.15625 0 1.984375 0.84375q0.84375 0.828125 0.84375 2.140625q0 1.328125 -0.84375 2.15625q-0.828125 0.828125 -1.984375 0.828125zm0 17.1875q-1.140625 0 -1.984375 -0.828125q-0.828125 -0.828125 -0.828125 -2.109375q0 -1.359375 0.828125 -2.171875q0.84375 -0.8125 1.984375 -0.8125q1.15625 0 1.984375 0.8125q0.84375 0.8125 0.84375 2.171875q0 1.28125 -0.84375 2.109375q-0.828125 0.828125 -1.984375 0.828125zm26.710281 0q-2.4375 0 -4.296875 -0.59375q-1.84375 -0.59375 -3.25 -1.578125q-1.40625 -0.984375 -2.4375 -2.125l2.0 -2.515625q1.375 1.40625 3.21875 2.5q1.859375 1.078125 4.515625 1.078125q1.875 0 3.296875 -0.703125q1.4375 -0.703125 2.234375 -2.0q0.8125 -1.3125 0.8125 -3.09375q0 -1.875 -0.921875 -3.28125q-0.90625 -1.421875 -3.046875 -2.203125q-2.125 -0.796875 -5.75 -0.796875l0 -2.984375q3.234375 0 5.109375 -0.78125q1.890625 -0.796875 2.71875 -2.15625q0.828125 -1.359375 0.828125 -3.03125q0 -2.265625 -1.40625 -3.609375q-1.40625 -1.34375 -3.875 -1.34375q-1.890625 0 -3.53125 0.859375q-1.640625 0.859375 -2.953125 2.171875l-2.09375 -2.46875q1.796875 -1.625 3.90625 -2.671875q2.109375 -1.046875 4.796875 -1.046875q2.640625 0 4.703125 0.921875q2.078125 0.921875 3.25 2.671875q1.171875 1.75 1.171875 4.21875q0 2.859375 -1.546875 4.734375q-1.53125 1.875 -4.0 2.765625l0 0.21875q1.84375 0.421875 3.328125 1.5q1.5 1.0625 2.390625 2.6875q0.890625 1.609375 0.890625 3.75q0 2.765625 -1.359375 4.78125q-1.359375 2.0 -3.625 3.0625q-2.265625 1.0625 -5.078125 1.0625z" fill-rule="nonzero"/><path fill="#000000" fill-opacity="0.0" d="m397.0866 135.11285l0 0c0 3.0865479 -1.2261047 6.0466614 -3.4086304 8.229172c-2.182495 2.1825104 -5.142639 3.4086304 -8.2291565 3.4086304l-90.0 0c-6.427368 0 -11.637787 5.2104187 -11.637787 11.637802l0 0c0 -6.4273834 -5.2104187 -11.637802 -11.637817 -11.637802l-89.999985 0c-6.4273834 0 -11.637802 -5.2104187 -11.637802 -11.637802z" fill-rule="evenodd"/><path fill="#000000" fill-opacity="0.0" d="m397.0866 135.11285l0 0c0 3.0865479 -1.2261047 6.0466614 -3.4086304 8.229172c-2.182495 2.1825104 -5.142639 3.4086304 -8.2291565 3.4086304l-90.0 0c-6.427368 0 -11.637787 5.2104187 -11.637787 11.637802l0 0c0 -6.4273834 -5.2104187 -11.637802 -11.637817 -11.637802l-89.999985 0c-6.4273834 0 -11.637802 -5.2104187 -11.637802 -11.637802" fill-rule="evenodd"/><path stroke="#666666" stroke-width="4.0" stroke-linejoin="round" stroke-linecap="butt" d="m397.0866 135.11285l0 0c0 3.0865479 -1.2261047 6.0466614 -3.4086304 8.229172c-2.182495 2.1825104 -5.142639 3.4086304 -8.2291565 3.4086304l-90.0 0c-6.427368 0 -11.637787 5.2104187 -11.637787 11.637802l0 0c0 -6.4273834 -5.2104187 -11.637802 -11.637817 -11.637802l-89.999985 0c-6.4273834 0 -11.637802 -5.2104187 -11.637802 -11.637802" fill-rule="evenodd"/><path fill="#000000" fill-opacity="0.0" d="m200.78215 151.97375l188.66142 0l0 72.0l-188.66142 0z" fill-rule="evenodd"/><path fill="#000000" d="m223.01653 174.0925l2.921875 0.96875q-1.3125 1.71875 -3.03125 3.375q-1.71875 1.65625 -3.625 3.078125q-1.90625 1.421875 -3.734375 2.5q-0.203125 -0.328125 -0.59375 -0.765625q-0.375 -0.4375 -0.796875 -0.875q-0.421875 -0.4375 -0.78125 -0.71875q2.765625 -1.359375 5.34375 -3.359375q2.578125 -2.0 4.296875 -4.203125zm10.25 1.71875l2.03125 -1.75q1.84375 1.078125 3.84375 2.453125q2.0 1.375 3.78125 2.765625q1.78125 1.375 2.90625 2.5l-2.203125 2.03125q-1.078125 -1.125 -2.8125 -2.5625q-1.71875 -1.4375 -3.703125 -2.875q-1.96875 -1.4375 -3.84375 -2.5625zm-3.4375 5.515625q-1.640625 2.171875 -4.25 4.46875q-2.59375 2.296875 -5.765625 4.4375q-3.15625 2.140625 -6.515625 3.78125q-0.15625 -0.40625 -0.453125 -0.84375q-0.296875 -0.4375 -0.625 -0.890625q-0.3125 -0.46875 -0.640625 -0.78125q3.40625 -1.53125 6.59375 -3.6875q3.203125 -2.15625 5.796875 -4.578125q2.609375 -2.421875 4.171875 -4.65625l3.046875 0q1.59375 1.875 3.609375 3.71875q2.03125 1.84375 4.296875 3.46875q2.28125 1.609375 4.65625 2.9375q2.390625 1.3125 4.71875 2.234375q-0.484375 0.5625 -1.015625 1.328125q-0.515625 0.75 -0.90625 1.390625q-2.203125 -1.078125 -4.59375 -2.5q-2.375 -1.421875 -4.625 -3.0625q-2.234375 -1.640625 -4.171875 -3.359375q-1.9375 -1.71875 -3.328125 -3.40625zm-11.046875 7.84375l22.125 0l0 13.28125l-3.046875 0l0 -10.59375l-16.203125 0l0 10.75l-2.875 0l0 -13.4375zm1.359375 9.40625l19.328125 0l0 2.671875l-19.328125 0l0 -2.671875zm8.0 -32.796875l3.078125 0l0 5.1875l-3.078125 0l0 -5.1875zm-15.046875 3.671875l33.40625 0l0 7.28125l-3.078125 0l0 -4.515625l-27.40625 0l0 4.515625l-2.921875 0l0 -7.28125zm46.687485 3.328125l0 2.1875l19.875 0l0 -2.1875l-19.875 0zm0 -3.921875l0 2.15625l19.875 0l0 -2.15625l-19.875 0zm-2.921875 -1.796875l25.796875 0l0 9.71875l-25.796875 0l0 -9.71875zm2.125 21.390625l0 2.328125l21.875 0l0 -2.328125l-21.875 0zm0 -4.0l0 2.234375l21.875 0l0 -2.234375l-21.875 0zm-2.84375 -1.875l27.6875 0l0 10.03125l-27.6875 0l0 -10.03125zm12.125 0.671875l2.921875 0l0 17.203125l-2.921875 0l0 -17.203125zm-16.406265 -4.75l35.875015 0l0 2.28125l-35.875015 0l0 -2.28125zm3.15625 16.3125l29.687515 0l0 2.125l-29.687515 0l0 -2.125zm-3.359375 4.4375l36.32814 0l0 2.328125l-36.32814 0l0 -2.328125zm52.647476 -15.46875q-1.078125 0 -1.859375 -0.78125q-0.78125 -0.78125 -0.78125 -2.03125q0 -1.234375 0.78125 -2.015625q0.78125 -0.78125 1.859375 -0.78125q1.078125 0 1.859375 0.78125q0.78125 0.78125 0.78125 2.015625q0 1.25 -0.78125 2.03125q-0.78125 0.78125 -1.859375 0.78125zm0 16.109375q-1.078125 0 -1.859375 -0.78125q-0.78125 -0.78125 -0.78125 -1.96875q0 -1.28125 0.78125 -2.046875q0.78125 -0.765625 1.859375 -0.765625q1.078125 0 1.859375 0.765625q0.78125 0.765625 0.78125 2.046875q0 1.1875 -0.78125 1.96875q-0.78125 0.78125 -1.859375 0.78125zm25.001862 0q-2.28125 0 -4.03125 -0.546875q-1.734375 -0.5625 -3.03125 -1.4375q-1.296875 -0.890625 -2.34375 -1.890625l1.84375 -2.40625q0.84375 0.84375 1.859375 1.59375q1.015625 0.734375 2.328125 1.203125q1.328125 0.453125 3.015625 0.453125q1.71875 0 3.140625 -0.84375q1.421875 -0.84375 2.25 -2.390625q0.84375 -1.5625 0.84375 -3.6875q0 -3.125 -1.65625 -4.90625q-1.65625 -1.78125 -4.421875 -1.78125q-1.4375 0 -2.515625 0.453125q-1.078125 0.4375 -2.359375 1.265625l-1.96875 -1.234375l0.96875 -13.671875l14.234375 0l0 3.109375l-11.046875 0l-0.75 8.484375q0.953125 -0.5625 2.015625 -0.859375q1.0625 -0.296875 2.375 -0.296875q2.453125 0 4.453125 0.984375q2.0 0.96875 3.1875 3.046875q1.203125 2.078125 1.203125 5.328125q0 3.203125 -1.390625 5.4375q-1.375 2.234375 -3.578125 3.421875q-2.1875 1.171875 -4.625 1.171875z" fill-rule="nonzero"/><path fill="#3c78d8" d="m583.7747 9.401575l35.149597 0l0 37.66929l-35.149597 0z" fill-rule="evenodd"/><path stroke="#000000" stroke-width="4.0" stroke-linejoin="round" stroke-linecap="butt" d="m583.7747 9.401575l35.149597 0l0 37.66929l-35.149597 0z" fill-rule="evenodd"/><path fill="#000000" fill-opacity="0.0" d="m583.7743 63.003937l35.149597 0l0 37.66929l-35.149597 0z" fill-rule="evenodd"/><path stroke="#000000" stroke-width="4.0" stroke-linejoin="round" stroke-linecap="butt" d="m583.7743 63.003937l35.149597 0l0 37.66929l-35.149597 0z" fill-rule="evenodd"/><path fill="#000000" fill-opacity="0.0" d="m615.90814 0l115.74805 0l0 56.472443l-115.74805 0z" fill-rule="evenodd"/><path fill="#000000" d="m635.17377 16.391876l20.515625 0l0 2.203125l-20.515625 0l0 -2.203125zm3.171875 7.359375l0 4.796875l13.984375 0l0 -4.796875l-13.984375 0zm-2.234375 -2.015625l18.53125 0l0 8.859375l-18.53125 0l0 -8.859375zm2.015625 9.5q1.5 2.53125 4.109375 4.359375q2.609375 1.828125 6.109375 2.984375q3.5 1.140625 7.671875 1.59375q-0.265625 0.25 -0.5625 0.625q-0.28125 0.390625 -0.5 0.78125q-0.21875 0.40625 -0.390625 0.765625q-4.25 -0.640625 -7.8125 -1.96875q-3.546875 -1.328125 -6.234375 -3.421875q-2.6875 -2.09375 -4.40625 -5.046875l2.015625 -0.671875zm5.953125 -18.265625l2.328125 0l0 14.140625q0 1.859375 -0.1875 3.6875q-0.1875 1.8125 -0.796875 3.515625q-0.609375 1.6875 -1.828125 3.203125q-1.21875 1.5 -3.1875 2.75q-1.96875 1.25 -4.9375 2.109375q-0.15625 -0.25 -0.421875 -0.625q-0.25 -0.375 -0.515625 -0.765625q-0.25 -0.375 -0.53125 -0.59375q2.875 -0.734375 4.734375 -1.78125q1.859375 -1.0625 2.921875 -2.390625q1.078125 -1.328125 1.578125 -2.8125q0.515625 -1.5 0.671875 -3.09375q0.171875 -1.609375 0.171875 -3.203125l0 -14.140625zm-10.28125 -0.1875l2.25 0.703125q-1.09375 2.6875 -2.546875 5.3125q-1.453125 2.625 -3.140625 4.921875q-1.671875 2.296875 -3.4375 4.09375q-0.125 -0.28125 -0.375 -0.734375q-0.234375 -0.453125 -0.5 -0.890625q-0.25 -0.453125 -0.46875 -0.734375q1.59375 -1.546875 3.125 -3.578125q1.546875 -2.03125 2.859375 -4.34375q1.3125 -2.328125 2.234375 -4.75zm-3.359375 8.34375l2.25 -2.265625l0.0625 0.03125l0 23.515625l-2.3125 0l0 -21.28125zm32.734436 -6.046875l20.703125 0l0 2.296875l-20.703125 0l0 -2.296875zm0 7.453125l20.640625 0l0 2.28125l-20.640625 0l0 -2.28125zm-0.1875 7.65625l20.890625 0l0 2.265625l-20.890625 0l0 -2.265625zm-1.1875 -15.109375l2.375 0l0 11.609375q0 1.828125 -0.171875 3.90625q-0.15625 2.078125 -0.59375 4.21875q-0.421875 2.125 -1.3125 4.078125q-0.875 1.953125 -2.3125 3.546875q-0.15625 -0.25 -0.515625 -0.5625q-0.34375 -0.296875 -0.703125 -0.59375q-0.34375 -0.28125 -0.625 -0.40625q1.34375 -1.515625 2.109375 -3.265625q0.765625 -1.765625 1.140625 -3.625q0.390625 -1.875 0.5 -3.734375q0.109375 -1.859375 0.109375 -3.5625l0 -11.609375zm21.125 0l2.375 0l0 23.9375q0 1.15625 -0.34375 1.75q-0.328125 0.609375 -1.140625 0.9375q-0.796875 0.28125 -2.234375 0.34375q-1.4375 0.078125 -3.71875 0.046875q-0.09375 -0.453125 -0.328125 -1.140625q-0.234375 -0.6875 -0.5 -1.171875q1.125 0.03125 2.15625 0.046875q1.046875 0.015625 1.8125 0q0.765625 -0.015625 1.0625 -0.015625q0.46875 -0.03125 0.65625 -0.1875q0.203125 -0.15625 0.203125 -0.609375l0 -23.9375zm-11.078125 0.859375l2.4375 0l0 26.046875l-2.4375 0l0 -26.046875zm20.140686 2.625l25.78125 0l0 15.046875l-2.453125 0l0 -12.703125l-20.9375 0l0 12.859375l-2.390625 0l0 -15.203125zm1.28125 10.859375l23.484375 0l0 2.359375l-23.484375 0l0 -2.359375zm10.296875 -16.578125l2.53125 0l0 29.40625l-2.53125 0l0 -29.40625z" fill-rule="nonzero"/><path fill="#000000" fill-opacity="0.0" d="m615.90814 53.603676l115.74805 0l0 56.472443l-115.74805 0z" fill-rule="evenodd"/><path fill="#000000" d="m626.8925 79.5893l28.15625 0l0 2.375l-28.15625 0l0 -2.375zm2.265625 -7.890625l23.71875 0l0 2.359375l-23.71875 0l0 -2.359375zm10.4375 -5.21875l2.53125 0l0 29.40625l-2.53125 0l0 -29.40625zm-0.609375 14.328125l2.046875 0.875q-1.109375 1.90625 -2.65625 3.734375q-1.53125 1.828125 -3.28125 3.453125q-1.734375 1.609375 -3.609375 2.9375q-1.875 1.328125 -3.734375 2.28125q-0.21875 -0.28125 -0.53125 -0.671875q-0.296875 -0.375 -0.625 -0.75q-0.3125 -0.375 -0.59375 -0.59375q1.8125 -0.828125 3.6875 -2.046875q1.875 -1.21875 3.59375 -2.703125q1.734375 -1.484375 3.1875 -3.140625q1.46875 -1.671875 2.515625 -3.375zm3.75 0q1.046875 1.703125 2.53125 3.359375q1.5 1.640625 3.21875 3.15625q1.734375 1.515625 3.625 2.71875q1.890625 1.203125 3.703125 2.0q-0.25 0.25 -0.59375 0.609375q-0.328125 0.359375 -0.640625 0.734375q-0.296875 0.390625 -0.515625 0.734375q-1.828125 -0.953125 -3.71875 -2.296875q-1.890625 -1.34375 -3.65625 -2.96875q-1.75 -1.640625 -3.28125 -3.46875q-1.515625 -1.828125 -2.65625 -3.703125l1.984375 -0.875zm24.437561 -10.8125l20.515625 0l0 2.203125l-20.515625 0l0 -2.203125zm3.171875 7.359375l0 4.796875l13.984375 0l0 -4.796875l-13.984375 0zm-2.234375 -2.015625l18.53125 0l0 8.859375l-18.53125 0l0 -8.859375zm2.015625 9.5q1.5 2.53125 4.109375 4.359375q2.609375 1.828125 6.109375 2.984375q3.5 1.140625 7.671875 1.59375q-0.265625 0.25 -0.5625 0.625q-0.28125 0.390625 -0.5 0.78125q-0.21875 0.40625 -0.390625 0.765625q-4.25 -0.640625 -7.8125 -1.96875q-3.546875 -1.328125 -6.234375 -3.421875q-2.6875 -2.09375 -4.40625 -5.046875l2.015625 -0.671875zm5.953125 -18.265625l2.328125 0l0 14.140625q0 1.859375 -0.1875 3.6875q-0.1875 1.8125 -0.796875 3.515625q-0.609375 1.6875 -1.828125 3.203125q-1.21875 1.5 -3.1875 2.75q-1.96875 1.25 -4.9375 2.109375q-0.15625 -0.25 -0.421875 -0.625q-0.25 -0.375 -0.515625 -0.765625q-0.25 -0.375 -0.53125 -0.59375q2.875 -0.734375 4.734375 -1.78125q1.859375 -1.0625 2.921875 -2.390625q1.078125 -1.328125 1.578125 -2.8125q0.515625 -1.5 0.671875 -3.09375q0.171875 -1.609375 0.171875 -3.203125l0 -14.140625zm-10.28125 -0.1875l2.25 0.703125q-1.09375 2.6875 -2.546875 5.3125q-1.453125 2.625 -3.140625 4.921875q-1.671875 2.296875 -3.4375 4.09375q-0.125 -0.28125 -0.375 -0.734375q-0.234375 -0.453125 -0.5 -0.890625q-0.25 -0.453125 -0.46875 -0.734375q1.59375 -1.546875 3.125 -3.578125q1.546875 -2.03125 2.859375 -4.34375q1.3125 -2.328125 2.234375 -4.75zm-3.359375 8.34375l2.25 -2.265625l0.0625 0.03125l0 23.515625l-2.3125 0l0 -21.28125zm32.734436 -6.046875l20.703125 0l0 2.296875l-20.703125 0l0 -2.296875zm0 7.453125l20.640625 0l0 2.28125l-20.640625 0l0 -2.28125zm-0.1875 7.65625l20.890625 0l0 2.265625l-20.890625 0l0 -2.265625zm-1.1875 -15.109375l2.375 0l0 11.609375q0 1.828125 -0.171875 3.90625q-0.15625 2.078125 -0.59375 4.21875q-0.421875 2.125 -1.3125 4.078125q-0.875 1.953125 -2.3125 3.546875q-0.15625 -0.25 -0.515625 -0.5625q-0.34375 -0.296875 -0.703125 -0.59375q-0.34375 -0.28125 -0.625 -0.40625q1.34375 -1.515625 2.109375 -3.265625q0.765625 -1.765625 1.140625 -3.625q0.390625 -1.875 0.5 -3.734375q0.109375 -1.859375 0.109375 -3.5625l0 -11.609375zm21.125 0l2.375 0l0 23.9375q0 1.15625 -0.34375 1.75q-0.328125 0.609375 -1.140625 0.9375q-0.796875 0.28125 -2.234375 0.34375q-1.4375 0.078125 -3.71875 0.046875q-0.09375 -0.453125 -0.328125 -1.140625q-0.234375 -0.6875 -0.5 -1.171875q1.125 0.03125 2.15625 0.046875q1.046875 0.015625 1.8125 0q0.765625 -0.015625 1.0625 -0.015625q0.46875 -0.03125 0.65625 -0.1875q0.203125 -0.15625 0.203125 -0.609375l0 -23.9375zm-11.078125 0.859375l2.4375 0l0 26.046875l-2.4375 0l0 -26.046875z" fill-rule="nonzero"/><path fill="#000000" fill-opacity="0.0" d="m317.28348 -3.3149607l99.30707 0l0 72.0l-99.30707 0z" fill-rule="evenodd"/><path fill="#000000" d="m328.12723 32.319412l36.359375 0l0 2.53125l-36.359375 0l0 -2.53125zm0.921875 -20.109375l34.4375 0l0 2.671875l-34.4375 0l0 -2.671875zm12.921875 15.953125l2.953125 0.765625q-1.328125 2.078125 -2.890625 4.40625q-1.546875 2.3125 -3.109375 4.5q-1.5625 2.171875 -2.875 3.8125l-2.84375 -1.0q1.3125 -1.640625 2.875 -3.796875q1.5625 -2.171875 3.125 -4.4375q1.5625 -2.28125 2.765625 -4.25zm12.0 5.078125l2.875 0.84375q-1.28125 3.28125 -3.578125 5.609375q-2.296875 2.3125 -5.625 3.828125q-3.3125 1.515625 -7.765625 2.421875q-4.4375 0.90625 -10.03125 1.296875q-0.125 -0.640625 -0.46875 -1.375q-0.328125 -0.734375 -0.734375 -1.265625q7.15625 -0.390625 12.21875 -1.5625q5.0625 -1.1875 8.28125 -3.546875q3.21875 -2.359375 4.828125 -6.25zm-18.5625 7.046875l1.46875 -2.203125q4.96875 0.84375 9.84375 1.984375q4.875 1.140625 9.171875 2.40625q4.3125 1.25 7.390625 2.453125l-1.84375 2.4375q-3.03125 -1.234375 -7.171875 -2.515625q-4.140625 -1.28125 -8.96875 -2.453125q-4.8125 -1.1875 -9.890625 -2.109375zm4.5625 -27.078125l2.828125 0l0 14.0l-2.828125 0l0 -14.0zm9.359375 0l2.828125 0l0 14.0l-2.828125 0l0 -14.0zm-15.453125 7.5625l0 5.4375l24.96875 0l0 -5.4375l-24.96875 0zm-2.828125 -2.484375l30.75 0l0 10.359375l-30.75 0l0 -10.359375zm53.671844 18.078125l2.96875 0l0 10.875l-2.96875 0l0 -10.875zm-1.921875 -12.28125l2.71875 1.3125q-1.640625 1.53125 -3.546875 3.09375q-1.890625 1.546875 -3.484375 2.59375l-2.125 -1.15625q1.078125 -0.765625 2.25 -1.78125q1.1875 -1.015625 2.3125 -2.09375q1.125 -1.09375 1.875 -1.96875zm8.171875 2.125l2.671875 1.46875q-2.046875 1.640625 -4.5 3.421875q-2.453125 1.78125 -4.953125 3.390625q-2.5 1.59375 -4.75 2.796875l-1.953125 -1.359375q2.203125 -1.25 4.671875 -2.921875q2.484375 -1.6875 4.796875 -3.484375q2.328125 -1.796875 4.015625 -3.3125zm-18.53125 3.671875l1.96875 -1.71875q1.515625 0.6875 3.1875 1.625q1.6875 0.9375 3.203125 1.875q1.53125 0.9375 2.53125 1.78125l-2.125 1.921875q-0.921875 -0.84375 -2.40625 -1.8125q-1.46875 -0.984375 -3.140625 -1.96875q-1.65625 -0.984375 -3.21875 -1.703125zm19.96875 2.515625l2.078125 -1.59375q1.75 0.921875 3.59375 2.140625q1.84375 1.21875 3.484375 2.484375q1.640625 1.25 2.671875 2.34375l-2.1875 1.75q-1.0 -1.03125 -2.609375 -2.3125q-1.59375 -1.28125 -3.4375 -2.546875q-1.84375 -1.265625 -3.59375 -2.265625zm-0.765625 8.046875l2.234375 -1.59375q1.6875 0.75 3.5625 1.75q1.890625 1.0 3.5625 2.046875q1.6875 1.03125 2.796875 1.953125l-2.359375 1.796875q-1.03125 -0.875 -2.671875 -1.953125q-1.640625 -1.078125 -3.53125 -2.140625q-1.875 -1.0625 -3.59375 -1.859375zm-22.765625 -4.875q2.8125 0 6.421875 -0.0625q3.625 -0.0625 7.765625 -0.125q4.140625 -0.0625 8.515625 -0.140625q4.390625 -0.078125 8.703125 -0.203125l-0.15625 2.359375q-4.25 0.09375 -8.515625 0.21875q-4.25 0.109375 -8.3125 0.1875q-4.0625 0.078125 -7.6875 0.15625q-3.609375 0.078125 -6.484375 0.125l-0.25 -2.515625zm9.046875 3.3125l2.765625 1.046875q-1.359375 1.28125 -3.109375 2.515625q-1.734375 1.234375 -3.59375 2.3125q-1.859375 1.09375 -3.625 1.84375q-0.234375 -0.28125 -0.65625 -0.65625q-0.421875 -0.375 -0.859375 -0.765625q-0.4375 -0.375 -0.796875 -0.609375q2.671875 -1.046875 5.34375 -2.546875q2.6875 -1.5 4.53125 -3.140625zm6.796875 -28.4375l3.0 0l0 14.203125l-3.0 0l0 -14.203125zm-13.84375 2.953125l31.25 0l0 2.328125l-31.25 0l0 -2.328125zm2.203125 4.890625l26.6875 0l0 2.28125l-26.6875 0l0 -2.28125zm-4.3125 4.875l35.15625 0l0 2.40625l-35.15625 0l0 -2.40625z" fill-rule="nonzero"/><path fill="#000000" fill-opacity="0.0" d="m283.81207 85.66929l0 -47.999996l33.480316 0" fill-rule="evenodd"/><path stroke="#ffffff" stroke-width="4.0" stroke-linejoin="round" stroke-linecap="butt" d="m283.81207 61.669292l0 -24.0l33.480316 0" fill-rule="evenodd"/><path fill="#ffffff" stroke="#ffffff" stroke-width="4.0" stroke-linecap="butt" d="m277.20514 61.669292l6.6069336 18.152393l6.6069336 -18.152393z" fill-rule="evenodd"/><path fill="#000000" fill-opacity="0.0" d="m283.81207 80.685036l0 -47.999996l33.480316 0" fill-rule="evenodd"/><path stroke="#000000" stroke-width="4.0" stroke-linejoin="round" stroke-linecap="butt" d="m283.81207 56.68504l0 -24.0l33.480316 0" fill-rule="evenodd"/><path fill="#000000" stroke="#000000" stroke-width="4.0" stroke-linecap="butt" d="m277.20514 56.68504l6.6069336 18.152393l6.6069336 -18.152393z" fill-rule="evenodd"/></g></svg>