<svg version="1.1" viewBox="0.0 0.0 1305.0 373.0" fill="none" stroke="none" stroke-linecap="square" stroke-miterlimit="10" xmlns:xlink="http://www.w3.org/1999/xlink" xmlns="http://www.w3.org/2000/svg"><clipPath id="p.0"><path d="m0 0l1305.0 0l0 373.0l-1305.0 0l0 -373.0z" clip-rule="nonzero"/></clipPath><g clip-path="url(#p.0)"><path fill="#000000" fill-opacity="0.0" d="m0 0l1305.0 0l0 373.0l-1305.0 0z" fill-rule="evenodd"/><path fill="#f4cccc" d="m304.61023 130.5748l243.87402 0l0 50.960632l-243.87402 0z" fill-rule="evenodd"/><path stroke="#000000" stroke-width="1.0" stroke-linejoin="round" stroke-linecap="butt" d="m304.61023 130.5748l243.87402 0l0 50.960632l-243.87402 0z" fill-rule="evenodd"/><path fill="#000000" d="m357.97116 160.812l4.046875 1.015625q-1.28125 4.984375 -4.578125 7.59375q-3.296875 2.609375 -8.078125 2.609375q-4.9375 0 -8.03125 -2.0q-3.078125 -2.015625 -4.703125 -5.828125q-1.609375 -3.8125 -1.609375 -8.1875q0 -4.765625 1.8125 -8.3125q1.828125 -3.5625 5.1875 -5.40625q3.375 -1.84375 7.40625 -1.84375q4.59375 0 7.71875 2.34375q3.125 2.328125 4.34375 6.5625l-3.96875 0.9375q-1.0625 -3.34375 -3.09375 -4.859375q-2.015625 -1.515625 -5.078125 -1.515625q-3.515625 0 -5.890625 1.6875q-2.359375 1.6875 -3.3125 4.53125q-0.953125 2.84375 -0.953125 5.859375q0 3.890625 1.125 6.796875q1.140625 2.90625 3.53125 4.34375q2.390625 1.4375 5.1875 1.4375q3.390625 0 5.75 -1.953125q2.359375 -1.96875 3.1875 -5.8125zm7.148712 -0.359375q0 -6.140625 3.40625 -9.09375q2.859375 -2.46875 6.953125 -2.46875q4.5625 0 7.453125 3.0q2.90625 2.984375 2.90625 8.25q0 4.265625 -1.28125 6.71875q-1.28125 2.453125 -3.734375 3.8125q-2.4375 1.34375 -5.34375 1.34375q-4.640625 0 -7.5 -2.96875q-2.859375 -2.984375 -2.859375 -8.59375zm3.84375 0q0 4.25 1.859375 6.375q1.859375 2.109375 4.65625 2.109375q2.796875 0 4.640625 -2.125q1.859375 -2.125 1.859375 -6.484375q0 -4.09375 -1.859375 -6.203125q-1.859375 -2.125 -4.640625 -2.125q-2.796875 0 -4.65625 2.109375q-1.859375 2.09375 -1.859375 6.34375zm21.192139 11.0625l0 -30.53125l3.75 0l0 30.53125l-3.75 0zm9.476837 0l0 -30.53125l3.75 0l0 30.53125l-3.75 0zm24.695618 -7.125l3.875 0.484375q-0.921875 3.390625 -3.40625 5.265625q-2.46875 1.875 -6.328125 1.875q-4.84375 0 -7.6875 -2.984375q-2.84375 -3.0 -2.84375 -8.390625q0 -5.578125 2.875 -8.65625q2.875 -3.09375 7.453125 -3.09375q4.4375 0 7.25 3.03125q2.8125 3.015625 2.8125 8.5q0 0.328125 -0.015625 0.984375l-16.5 0q0.203125 3.65625 2.0625 5.59375q1.859375 1.9375 4.625 1.9375q2.0625 0 3.515625 -1.078125q1.453125 -1.09375 2.3125 -3.46875zm-12.3125 -6.0625l12.359375 0q-0.25 -2.78125 -1.421875 -4.1875q-1.796875 -2.15625 -4.640625 -2.15625q-2.578125 0 -4.34375 1.734375q-1.765625 1.71875 -1.953125 4.609375zm35.332733 5.078125l3.6875 0.484375q-0.609375 3.8125 -3.109375 5.96875q-2.484375 2.15625 -6.109375 2.15625q-4.53125 0 -7.296875 -2.96875q-2.75 -2.96875 -2.75 -8.5q0 -3.59375 1.1875 -6.28125q1.1875 -2.6875 3.609375 -4.03125q2.421875 -1.34375 5.28125 -1.34375q3.59375 0 5.890625 1.828125q2.296875 1.828125 2.9375 5.171875l-3.640625 0.5625q-0.53125 -2.21875 -1.859375 -3.34375q-1.3125 -1.125 -3.1875 -1.125q-2.828125 0 -4.609375 2.03125q-1.765625 2.03125 -1.765625 6.421875q0 4.453125 1.703125 6.484375q1.71875 2.015625 4.46875 2.015625q2.203125 0 3.671875 -1.359375q1.484375 -1.359375 1.890625 -4.171875zm15.078125 4.75l0.53125 3.3125q-1.578125 0.34375 -2.828125 0.34375q-2.03125 0 -3.15625 -0.640625q-1.125 -0.65625 -1.59375 -1.703125q-0.453125 -1.0625 -0.453125 -4.4375l0 -12.71875l-2.75 0l0 -2.921875l2.75 0l0 -5.46875l3.734375 -2.25l0 7.71875l3.765625 0l0 2.921875l-3.765625 0l0 12.9375q0 1.59375 0.1875 2.0625q0.203125 0.453125 0.640625 0.734375q0.453125 0.265625 1.296875 0.265625q0.625 0 1.640625 -0.15625zm3.6794128 -22.859375l0 -4.3125l3.75 0l0 4.3125l-3.75 0zm0 26.21875l0 -22.125l3.75 0l0 22.125l-3.75 0zm8.070587 -11.0625q0 -6.140625 3.40625 -9.09375q2.859375 -2.46875 6.953125 -2.46875q4.5625 0 7.453125 3.0q2.90625 2.984375 2.90625 8.25q0 4.265625 -1.28125 6.71875q-1.28125 2.453125 -3.734375 3.8125q-2.4375 1.34375 -5.34375 1.34375q-4.640625 0 -7.5 -2.96875q-2.859375 -2.984375 -2.859375 -8.59375zm3.84375 0q0 4.25 1.859375 6.375q1.859375 2.109375 4.65625 2.109375q2.796875 0 4.640625 -2.125q1.859375 -2.125 1.859375 -6.484375q0 -4.09375 -1.859375 -6.203125q-1.859375 -2.125 -4.640625 -2.125q-2.796875 0 -4.65625 2.109375q-1.859375 2.09375 -1.859375 6.34375zm21.270264 11.0625l0 -22.125l3.375 0l0 3.15625q2.4375 -3.65625 7.03125 -3.65625q2.0 0 3.671875 0.71875q1.6875 0.71875 2.515625 1.890625q0.84375 1.171875 1.171875 2.765625q0.203125 1.046875 0.203125 3.65625l0 13.59375l-3.75 0l0 -13.453125q0 -2.296875 -0.4375 -3.421875q-0.4375 -1.140625 -1.546875 -1.8125q-1.109375 -0.6875 -2.609375 -0.6875q-2.390625 0 -4.140625 1.53125q-1.734375 1.515625 -1.734375 5.765625l0 12.078125l-3.75 0z" fill-rule="nonzero"/><path fill="#f4cccc" d="m2.0209973 130.5748l242.51968 0l0 50.960632l-242.51968 0z" fill-rule="evenodd"/><path stroke="#000000" stroke-width="1.0" stroke-linejoin="round" stroke-linecap="butt" d="m2.0209973 130.5748l242.51968 0l0 50.960632l-242.51968 0z" fill-rule="evenodd"/><path fill="#000000" d="m56.126335 171.51512l0 -30.53125l4.03125 0l0 30.53125l-4.03125 0zm18.866898 -3.359375l0.53125 3.3125q-1.578125 0.34375 -2.828125 0.34375q-2.03125 0 -3.15625 -0.640625q-1.125 -0.65625 -1.59375 -1.703125q-0.453125 -1.0625 -0.453125 -4.4375l0 -12.71875l-2.75 0l0 -2.921875l2.75 0l0 -5.46875l3.734375 -2.25l0 7.71875l3.765625 0l0 2.921875l-3.765625 0l0 12.9375q0 1.59375 0.1875 2.0625q0.203125 0.453125 0.640625 0.734375q0.453125 0.265625 1.296875 0.265625q0.625 0 1.640625 -0.15625zm18.804398 -3.765625l3.875 0.484375q-0.921875 3.390625 -3.40625 5.265625q-2.46875 1.875 -6.328125 1.875q-4.84375 0 -7.6875 -2.984375q-2.84375 -3.0 -2.84375 -8.390625q0 -5.578125 2.875 -8.65625q2.875 -3.09375 7.453125 -3.09375q4.4375 0 7.25 3.03125q2.8125 3.015625 2.8125 8.5q0 0.328125 -0.015625 0.984375l-16.5 0q0.203125 3.65625 2.0625 5.59375q1.859375 1.9375 4.625 1.9375q2.0625 0 3.515625 -1.078125q1.453125 -1.09375 2.3125 -3.46875zm-12.3125 -6.0625l12.359375 0q-0.25 -2.78125 -1.421875 -4.1875q-1.796875 -2.15625 -4.640625 -2.15625q-2.578125 0 -4.34375 1.734375q-1.765625 1.71875 -1.953125 4.609375zm20.848373 13.1875l0 -22.125l3.375 0l0 3.359375q1.296875 -2.359375 2.390625 -3.109375q1.09375 -0.75 2.40625 -0.75q1.890625 0 3.84375 1.21875l-1.28125 3.46875q-1.375 -0.8125 -2.75 -0.8125q-1.234375 0 -2.21875 0.75q-0.96875 0.734375 -1.390625 2.046875q-0.625 2.0 -0.625 4.375l0 11.578125l-3.75 0zm28.689232 -2.734375q-2.0937347 1.78125 -4.0156174 2.515625q-1.921875 0.71875 -4.125 0.71875q-3.65625 0 -5.609375 -1.78125q-1.953125 -1.78125 -1.953125 -4.546875q0 -1.625 0.734375 -2.96875q0.734375 -1.34375 1.9375 -2.15625q1.203125 -0.8125 2.703125 -1.234375q1.09375 -0.28125 3.328125 -0.5625q4.5312576 -0.53125 6.6874924 -1.28125q0.015625 -0.78125 0.015625 -0.984375q0 -2.296875 -1.0624847 -3.234375q-1.4375 -1.265625 -4.2656326 -1.265625q-2.640625 0 -3.90625 0.9375q-1.265625 0.921875 -1.859375 3.265625l-3.671875 -0.5q0.5 -2.34375 1.640625 -3.796875q1.15625 -1.453125 3.3125 -2.234375q2.171875 -0.78125 5.015625 -0.78125q2.8437576 0 4.6093674 0.671875q1.765625 0.671875 2.59375 1.6875q0.84375 1.0 1.171875 2.546875q0.1875 0.953125 0.1875 3.453125l0 5.0q0 5.21875 0.234375 6.609375q0.25 1.390625 0.953125 2.65625l-3.90625 0q-0.59375 -1.171875 -0.75 -2.734375zm-0.3125 -8.359375q-2.0468597 0.828125 -6.1249924 1.40625q-2.3125 0.328125 -3.28125 0.75q-0.953125 0.421875 -1.46875 1.21875q-0.515625 0.796875 -0.515625 1.78125q0 1.5 1.125 2.5q1.140625 1.0 3.328125 1.0q2.15625 0 3.84375 -0.9375q1.6875076 -0.953125 2.4843674 -2.609375q0.609375 -1.265625 0.609375 -3.75l0 -1.359375zm13.051514 11.09375l-3.46875 0l0 -30.53125l3.75 0l0 10.890625q2.375 -2.984375 6.046875 -2.984375q2.046875 0 3.859375 0.828125q1.828125 0.828125 3.0 2.3125q1.1875 1.484375 1.84375 3.59375q0.671875 2.109375 0.671875 4.5q0 5.6875 -2.8125 8.796875q-2.8125 3.09375 -6.75 3.09375q-3.90625 0 -6.140625 -3.265625l0 2.765625zm-0.03125 -11.21875q0 3.96875 1.078125 5.734375q1.765625 2.90625 4.78125 2.90625q2.46875 0 4.25 -2.140625q1.796875 -2.140625 1.796875 -6.359375q0 -4.328125 -1.71875 -6.390625q-1.71875 -2.0625 -4.15625 -2.0625q-2.453125 0 -4.25 2.140625q-1.78125 2.125 -1.78125 6.171875zm20.223358 11.21875l0 -30.53125l3.75 0l0 30.53125l-3.75 0zm24.695618 -7.125l3.875 0.484375q-0.921875 3.390625 -3.40625 5.265625q-2.46875 1.875 -6.328125 1.875q-4.84375 0 -7.6875 -2.984375q-2.84375 -3.0 -2.84375 -8.390625q0 -5.578125 2.875 -8.65625q2.875 -3.09375 7.453125 -3.09375q4.4375 0 7.25 3.03125q2.8125 3.015625 2.8125 8.5q0 0.328125 -0.015625 0.984375l-16.5 0q0.203125 3.65625 2.0625 5.59375q1.859375 1.9375 4.625 1.9375q2.0625 0 3.515625 -1.078125q1.453125 -1.09375 2.3125 -3.46875zm-12.3125 -6.0625l12.359375 0q-0.25 -2.78125 -1.421875 -4.1875q-1.796875 -2.15625 -4.640625 -2.15625q-2.578125 0 -4.34375 1.734375q-1.765625 1.71875 -1.953125 4.609375z" fill-rule="nonzero"/><path fill="#f4cccc" d="m641.1811 105.78609l245.22833 0l0 100.53543l-245.22833 0z" fill-rule="evenodd"/><path stroke="#000000" stroke-width="1.0" stroke-linejoin="round" stroke-linecap="butt" d="m641.1811 105.78609l245.22833 0l0 100.53543l-245.22833 0z" fill-rule="evenodd"/><path fill="#000000" d="m657.7956 136.20131l3.8125 -0.328125q0.265625 2.28125 1.25 3.75q1.0 1.46875 3.078125 2.375q2.078125 0.90625 4.6875 0.90625q2.3125 0 4.078125 -0.6875q1.765625 -0.6875 2.625 -1.875q0.875 -1.203125 0.875 -2.625q0 -1.4375 -0.84375 -2.5q-0.828125 -1.078125 -2.734375 -1.796875q-1.234375 -0.484375 -5.4375 -1.484375q-4.203125 -1.015625 -5.890625 -1.921875q-2.1875 -1.140625 -3.265625 -2.8281326q-1.078125 -1.703125 -1.078125 -3.8125q0 -2.3125 1.3125 -4.3125q1.3125 -2.015625 3.828125 -3.0625q2.53125 -1.046875 5.609375 -1.046875q3.390625 0 5.984375 1.09375q2.59375 1.09375 3.984375 3.21875q1.40625 2.125 1.515625 4.8125l-3.875 0.296875q-0.3125 -2.890625 -2.125 -4.375q-1.796875 -1.484375 -5.3125 -1.484375q-3.671875 0 -5.34375 1.34375q-1.671875 1.34375 -1.671875 3.25q0 1.640625 1.1875 2.703125q1.15625 1.0625 6.078125 2.1875q4.9375 1.1093826 6.765625 1.9375076q2.671875 1.234375 3.9375 3.125q1.265625 1.875 1.265625 4.328125q0 2.4375 -1.390625 4.59375q-1.390625 2.15625 -4.015625 3.359375q-2.609375 1.1875 -5.875 1.1875q-4.15625 0 -6.953125 -1.203125q-2.796875 -1.203125 -4.390625 -3.625q-1.59375 -2.4375 -1.671875 -5.5zm44.482605 2.6875l3.875 0.484375q-0.921875 3.390625 -3.40625 5.265625q-2.46875 1.875 -6.328125 1.875q-4.84375 0 -7.6875 -2.984375q-2.84375 -3.0 -2.84375 -8.390625q0 -5.578125 2.875 -8.656258q2.875 -3.09375 7.453125 -3.09375q4.4375 0 7.25 3.03125q2.8125 3.0156326 2.8125 8.500008q0 0.328125 -0.015625 0.984375l-16.5 0q0.203125 3.65625 2.0625 5.59375q1.859375 1.9375 4.625 1.9375q2.0625 0 3.515625 -1.078125q1.453125 -1.09375 2.3125 -3.46875zm-12.3125 -6.0625l12.359375 0q-0.25 -2.78125 -1.421875 -4.1875q-1.796875 -2.1562576 -4.640625 -2.1562576q-2.578125 0 -4.34375 1.7343826q-1.765625 1.71875 -1.953125 4.609375zm34.989014 21.671875l0 -10.84375q-0.875 1.234375 -2.453125 2.046875q-1.5625 0.8125 -3.328125 0.8125q-3.9375 0 -6.78125 -3.140625q-2.84375 -3.15625 -2.84375 -8.625q0 -3.328125 1.15625 -5.96875q1.15625 -2.6562576 3.34375 -4.0156326q2.203125 -1.375 4.828125 -1.375q4.109375 0 6.453125 3.46875l0 -2.96875l3.375 0l0 30.609383l-3.75 0zm-11.546875 -19.609375q0 4.265625 1.78125 6.40625q1.796875 2.140625 4.296875 2.140625q2.390625 0 4.109375 -2.03125q1.734375 -2.03125 1.734375 -6.171875q0 -4.421875 -1.828125 -6.640625q-1.8125 -2.2343826 -4.265625 -2.2343826q-2.4375 0 -4.140625 2.0781326q-1.6875 2.0625 -1.6875 6.453125zm35.676514 11.125l0 -3.25q-2.59375 3.75 -7.015625 3.75q-1.96875 0 -3.671875 -0.75q-1.6875 -0.75 -2.515625 -1.875q-0.8125 -1.140625 -1.15625 -2.796875q-0.21875 -1.09375 -0.21875 -3.5l0 -13.703133l3.75 0l0 12.265633q0 2.9375 0.21875 3.96875q0.359375 1.46875 1.5 2.3125q1.15625 0.84375 2.828125 0.84375q1.6875 0 3.171875 -0.859375q1.484375 -0.859375 2.09375 -2.34375q0.609375 -1.5 0.609375 -4.328125l0 -11.859383l3.75 0l0 22.125008l-3.34375 0zm24.364014 -7.125l3.875 0.484375q-0.921875 3.390625 -3.40625 5.265625q-2.46875 1.875 -6.328125 1.875q-4.84375 0 -7.6875 -2.984375q-2.84375 -3.0 -2.84375 -8.390625q0 -5.578125 2.875 -8.656258q2.875 -3.09375 7.453125 -3.09375q4.4375 0 7.25 3.03125q2.8125 3.0156326 2.8125 8.500008q0 0.328125 -0.015625 0.984375l-16.5 0q0.203125 3.65625 2.0625 5.59375q1.859375 1.9375 4.625 1.9375q2.0625 0 3.515625 -1.078125q1.453125 -1.09375 2.3125 -3.46875zm-12.3125 -6.0625l12.359375 0q-0.25 -2.78125 -1.421875 -4.1875q-1.796875 -2.1562576 -4.640625 -2.1562576q-2.578125 0 -4.34375 1.7343826q-1.765625 1.71875 -1.953125 4.609375zm20.895203 13.1875l0 -22.125008l3.375 0l0 3.15625q2.4375 -3.65625 7.03125 -3.65625q2.0 0 3.671875 0.71875q1.6875 0.71875 2.515625 1.890625q0.84375 1.171875 1.171875 2.7656326q0.203125 1.046875 0.203125 3.65625l0 13.59375l-3.75 0l0 -13.453125q0 -2.296875 -0.4375 -3.421875q-0.4375 -1.1406326 -1.546875 -1.8125076q-1.109375 -0.6875 -2.609375 -0.6875q-2.390625 0 -4.140625 1.5312576q-1.734375 1.515625 -1.734375 5.765625l0 12.078125l-3.75 0zm38.16089 -8.109375l3.6875 0.484375q-0.609375 3.8125 -3.109375 5.96875q-2.484375 2.15625 -6.109375 2.15625q-4.53125 0 -7.296875 -2.96875q-2.75 -2.96875 -2.75 -8.5q0 -3.59375 1.1875 -6.28125q1.1875 -2.6875076 3.609375 -4.0312576q2.421875 -1.34375 5.28125 -1.34375q3.59375 0 5.890625 1.828125q2.296875 1.828125 2.9375 5.1718826l-3.640625 0.5625q-0.53125 -2.21875 -1.859375 -3.3437576q-1.3125 -1.125 -3.1875 -1.125q-2.828125 0 -4.609375 2.0312576q-1.765625 2.03125 -1.765625 6.421875q0 4.453125 1.703125 6.484375q1.71875 2.015625 4.46875 2.015625q2.203125 0 3.671875 -1.359375q1.484375 -1.359375 1.890625 -4.171875zm22.03125 0.984375l3.875 0.484375q-0.921875 3.390625 -3.40625 5.265625q-2.46875 1.875 -6.328125 1.875q-4.84375 0 -7.6875 -2.984375q-2.84375 -3.0 -2.84375 -8.390625q0 -5.578125 2.875 -8.656258q2.875 -3.09375 7.453125 -3.09375q4.4375 0 7.25 3.03125q2.8125 3.0156326 2.8125 8.500008q0 0.328125 -0.015625 0.984375l-16.5 0q0.203125 3.65625 2.0625 5.59375q1.859375 1.9375 4.625 1.9375q2.0625 0 3.515625 -1.078125q1.453125 -1.09375 2.3125 -3.46875zm-12.3125 -6.0625l12.359375 0q-0.25 -2.78125 -1.421875 -4.1875q-1.796875 -2.1562576 -4.640625 -2.1562576q-2.578125 0 -4.34375 1.7343826q-1.765625 1.71875 -1.953125 4.609375zm35.239014 13.1875l0 -2.796875q-2.09375 3.296875 -6.1875 3.296875q-2.640625 0 -4.859375 -1.453125q-2.21875 -1.46875 -3.4375 -4.078125q-1.21875 -2.609375 -1.21875 -6.0q0 -3.3125 1.109375 -6.015625q1.109375 -2.7031326 3.3125 -4.1406326q2.203125 -1.4375 4.9375 -1.4375q2.0 0 3.5625 0.84375q1.5625 0.84375 2.53125 2.203125l0 -10.953125l3.734375 0l0 30.531258l-3.484375 0zm-11.84375 -11.03125q0 4.234375 1.78125 6.34375q1.796875 2.109375 4.234375 2.109375q2.453125 0 4.171875 -2.015625q1.71875 -2.015625 1.71875 -6.125q0 -4.546875 -1.75 -6.671875q-1.75 -2.1250076 -4.3125 -2.1250076q-2.484375 0 -4.171875 2.0468826q-1.671875 2.03125 -1.671875 6.4375z" fill-rule="nonzero"/><path fill="#000000" d="m695.2192 186.31068l4.046875 1.015625q-1.28125 4.984375 -4.578125 7.59375q-3.296875 2.609375 -8.078125 2.609375q-4.9375 0 -8.03125 -2.0q-3.078125 -2.015625 -4.703125 -5.828125q-1.609375 -3.8125 -1.609375 -8.1875q0 -4.765625 1.8125 -8.3125q1.828125 -3.5625 5.1875 -5.40625q3.375 -1.84375 7.40625 -1.84375q4.59375 0 7.71875 2.34375q3.125 2.328125 4.34375 6.5625l-3.96875 0.9375q-1.0625 -3.34375 -3.09375 -4.859375q-2.015625 -1.515625 -5.078125 -1.515625q-3.515625 0 -5.890625 1.6875q-2.359375 1.6875 -3.3125 4.53125q-0.953125 2.84375 -0.953125 5.859375q0 3.890625 1.125 6.796875q1.140625 2.90625 3.53125 4.34375q2.390625 1.4375 5.1875 1.4375q3.390625 0 5.75 -1.953125q2.359375 -1.96875 3.1875 -5.8125zm7.1487427 -0.359375q0 -6.140625 3.40625 -9.09375q2.859375 -2.46875 6.953125 -2.46875q4.5625 0 7.453125 3.0q2.90625 2.984375 2.90625 8.25q0 4.265625 -1.28125 6.71875q-1.28125 2.453125 -3.734375 3.8125q-2.4375 1.34375 -5.34375 1.34375q-4.640625 0 -7.5 -2.96875q-2.859375 -2.984375 -2.859375 -8.59375zm3.84375 0q0 4.25 1.859375 6.375q1.859375 2.109375 4.65625 2.109375q2.796875 0 4.640625 -2.125q1.859375 -2.125 1.859375 -6.484375q0 -4.09375 -1.859375 -6.203125q-1.859375 -2.125 -4.640625 -2.125q-2.796875 0 -4.65625 2.109375q-1.859375 2.09375 -1.859375 6.34375zm21.192139 11.0625l0 -30.53125l3.75 0l0 30.53125l-3.75 0zm9.476807 0l0 -30.53125l3.75 0l0 30.53125l-3.75 0zm24.695618 -7.125l3.875 0.484375q-0.921875 3.390625 -3.40625 5.265625q-2.46875 1.875 -6.328125 1.875q-4.84375 0 -7.6875 -2.984375q-2.84375 -3.0 -2.84375 -8.390625q0 -5.578125 2.875 -8.65625q2.875 -3.09375 7.453125 -3.09375q4.4375 0 7.25 3.03125q2.8125 3.015625 2.8125 8.5q0 0.328125 -0.015625 0.984375l-16.5 0q0.203125 3.65625 2.0625 5.59375q1.859375 1.9375 4.625 1.9375q2.0625 0 3.515625 -1.078125q1.453125 -1.09375 2.3125 -3.46875zm-12.3125 -6.0625l12.359375 0q-0.25 -2.78125 -1.421875 -4.1875q-1.796875 -2.15625 -4.640625 -2.15625q-2.578125 0 -4.34375 1.734375q-1.765625 1.71875 -1.953125 4.609375zm35.332764 5.078125l3.6875 0.484375q-0.609375 3.8125 -3.109375 5.96875q-2.484375 2.15625 -6.109375 2.15625q-4.53125 0 -7.296875 -2.96875q-2.75 -2.96875 -2.75 -8.5q0 -3.59375 1.1875 -6.28125q1.1875 -2.6875 3.609375 -4.03125q2.421875 -1.34375 5.28125 -1.34375q3.59375 0 5.890625 1.828125q2.296875 1.828125 2.9375 5.171875l-3.640625 0.5625q-0.53125 -2.21875 -1.859375 -3.34375q-1.3125 -1.125 -3.1875 -1.125q-2.828125 0 -4.609375 2.03125q-1.765625 2.03125 -1.765625 6.421875q0 4.453125 1.703125 6.484375q1.71875 2.015625 4.46875 2.015625q2.203125 0 3.671875 -1.359375q1.484375 -1.359375 1.890625 -4.171875zm15.078125 4.75l0.53125 3.3125q-1.578125 0.34375 -2.828125 0.34375q-2.03125 0 -3.15625 -0.640625q-1.125 -0.65625 -1.59375 -1.703125q-0.453125 -1.0625 -0.453125 -4.4375l0 -12.71875l-2.75 0l0 -2.921875l2.75 0l0 -5.46875l3.734375 -2.25l0 7.71875l3.765625 0l0 2.921875l-3.765625 0l0 12.9375q0 1.59375 0.1875 2.0625q0.203125 0.453125 0.640625 0.734375q0.453125 0.265625 1.296875 0.265625q0.625 0 1.640625 -0.15625zm3.6793823 -22.859375l0 -4.3125l3.75 0l0 4.3125l-3.75 0zm0 26.21875l0 -22.125l3.75 0l0 22.125l-3.75 0zm8.070618 -11.0625q0 -6.140625 3.40625 -9.09375q2.859375 -2.46875 6.953125 -2.46875q4.5625 0 7.453125 3.0q2.90625 2.984375 2.90625 8.25q0 4.265625 -1.28125 6.71875q-1.28125 2.453125 -3.734375 3.8125q-2.4375 1.34375 -5.34375 1.34375q-4.640625 0 -7.5 -2.96875q-2.859375 -2.984375 -2.859375 -8.59375zm3.84375 0q0 4.25 1.859375 6.375q1.859375 2.109375 4.65625 2.109375q2.796875 0 4.640625 -2.125q1.859375 -2.125 1.859375 -6.484375q0 -4.09375 -1.859375 -6.203125q-1.859375 -2.125 -4.640625 -2.125q-2.796875 0 -4.65625 2.109375q-1.859375 2.09375 -1.859375 6.34375zm21.270264 11.0625l0 -22.125l3.375 0l0 3.15625q2.4375 -3.65625 7.03125 -3.65625q2.0 0 3.671875 0.71875q1.6875 0.71875 2.515625 1.890625q0.84375 1.171875 1.171875 2.765625q0.203125 1.046875 0.203125 3.65625l0 13.59375l-3.75 0l0 -13.453125q0 -2.296875 -0.4375 -3.421875q-0.4375 -1.140625 -1.546875 -1.8125q-1.109375 -0.6875 -2.609375 -0.6875q-2.390625 0 -4.140625 1.53125q-1.734375 1.515625 -1.734375 5.765625l0 12.078125l-3.75 0z" fill-rule="nonzero"/><path fill="#f4cccc" d="m979.105 130.5748l322.8661 0l0 50.960632l-322.8661 0z" fill-rule="evenodd"/><path stroke="#000000" stroke-width="1.0" stroke-linejoin="round" stroke-linecap="butt" d="m979.105 130.5748l322.8661 0l0 50.960632l-322.8661 0z" fill-rule="evenodd"/><path fill="#000000" d="m1110.4733 171.51512l0 -30.53125l4.046875 0l0 26.921875l15.03125 0l0 3.609375l-19.078125 0zm23.426514 -26.21875l0 -4.3125l3.75 0l0 4.3125l-3.75 0zm0 26.21875l0 -22.125l3.75 0l0 22.125l-3.75 0zm7.9611816 -6.609375l3.703125 -0.578125q0.3125 2.234375 1.734375 3.421875q1.4375 1.1875 4.0 1.1875q2.578125 0 3.828125 -1.046875q1.25 -1.0625 1.25 -2.484375q0 -1.265625 -1.109375 -2.0q-0.765625 -0.5 -3.828125 -1.265625q-4.125 -1.046875 -5.71875 -1.796875q-1.59375 -0.765625 -2.421875 -2.109375q-0.8125 -1.34375 -0.8125 -2.96875q0 -1.46875 0.671875 -2.734375q0.6875 -1.265625 1.84375 -2.09375q0.875 -0.640625 2.390625 -1.09375q1.515625 -0.453125 3.234375 -0.453125q2.609375 0 4.578125 0.75q1.96875 0.75 2.90625 2.03125q0.9375 1.28125 1.28125 3.4375l-3.65625 0.5q-0.25 -1.71875 -1.453125 -2.671875q-1.203125 -0.953125 -3.375 -0.953125q-2.59375 0 -3.703125 0.859375q-1.09375 0.84375 -1.09375 1.984375q0 0.734375 0.453125 1.3125q0.46875 0.609375 1.4375 1.0q0.5625 0.21875 3.3125 0.96875q3.984375 1.0625 5.546875 1.734375q1.578125 0.671875 2.46875 1.96875q0.90625 1.28125 0.90625 3.203125q0 1.875 -1.09375 3.53125q-1.09375 1.65625 -3.15625 2.5625q-2.0625 0.90625 -4.671875 0.90625q-4.3125 0 -6.578125 -1.78125q-2.25 -1.796875 -2.875 -5.328125zm31.015625 3.25l0.53125 3.3125q-1.578125 0.34375 -2.828125 0.34375q-2.03125 0 -3.15625 -0.640625q-1.125 -0.65625 -1.59375 -1.703125q-0.453125 -1.0625 -0.453125 -4.4375l0 -12.71875l-2.75 0l0 -2.921875l2.75 0l0 -5.46875l3.734375 -2.25l0 7.71875l3.765625 0l0 2.921875l-3.765625 0l0 12.9375q0 1.59375 0.1875 2.0625q0.203125 0.453125 0.640625 0.734375q0.453125 0.265625 1.296875 0.265625q0.625 0 1.640625 -0.15625z" fill-rule="nonzero"/><path fill="#cfe2f3" d="m641.1811 24.787401l243.87402 0l0 50.960632l-243.87402 0z" fill-rule="evenodd"/><path stroke="#000000" stroke-width="1.0" stroke-linejoin="round" stroke-linecap="butt" d="m641.1811 24.787401l243.87402 0l0 50.960632l-243.87402 0z" fill-rule="evenodd"/><path fill="#000000" d="m733.027 55.91522l3.8125 -0.328125q0.265625 2.28125 1.25 3.75q1.0 1.46875 3.078125 2.375q2.078125 0.90625 4.6875 0.90625q2.3125 0 4.078125 -0.6875q1.765625 -0.6875 2.625 -1.875q0.875 -1.203125 0.875 -2.625q0 -1.4375 -0.84375 -2.5q-0.828125 -1.078125 -2.734375 -1.796875q-1.234375 -0.484375 -5.4375 -1.484375q-4.203125 -1.015625 -5.890625 -1.921875q-2.1875 -1.140625 -3.265625 -2.828125q-1.078125 -1.703125 -1.078125 -3.8125q0 -2.3125 1.3125 -4.3125q1.3125 -2.015625 3.828125 -3.0625q2.53125 -1.046875 5.609375 -1.046875q3.390625 0 5.984375 1.09375q2.59375 1.09375 3.984375 3.21875q1.40625 2.125 1.515625 4.8125l-3.875 0.296875q-0.3125 -2.890625 -2.125 -4.375q-1.796875 -1.484375 -5.3125 -1.484375q-3.671875 0 -5.34375 1.34375q-1.671875 1.34375 -1.671875 3.25q0 1.640625 1.1875 2.703125q1.15625 1.0625 6.078125 2.1875q4.9375 1.109375 6.765625 1.9375q2.671875 1.234375 3.9375 3.125q1.265625 1.875 1.265625 4.328125q0 2.4375 -1.390625 4.59375q-1.390625 2.15625 -4.015625 3.3593712q-2.609375 1.1875 -5.875 1.1875q-4.15625 0 -6.953125 -1.203125q-2.796875 -1.2031212 -4.390625 -3.6249962q-1.59375 -2.4375 -1.671875 -5.5zm44.482605 2.6875l3.875 0.484375q-0.921875 3.390625 -3.40625 5.265621q-2.46875 1.875 -6.328125 1.875q-4.84375 0 -7.6875 -2.9843712q-2.84375 -3.0 -2.84375 -8.390625q0 -5.578125 2.875 -8.65625q2.875 -3.09375 7.453125 -3.09375q4.4375 0 7.25 3.03125q2.8125 3.015625 2.8125 8.5q0 0.328125 -0.015625 0.984375l-16.5 0q0.203125 3.65625 2.0625 5.59375q1.859375 1.9375 4.625 1.9375q2.0625 0 3.515625 -1.078125q1.453125 -1.09375 2.3125 -3.46875zm-12.3125 -6.0625l12.359375 0q-0.25 -2.78125 -1.421875 -4.1875q-1.796875 -2.15625 -4.640625 -2.15625q-2.578125 0 -4.34375 1.734375q-1.765625 1.71875 -1.953125 4.609375zm29.082764 9.828125l0.53125 3.3124962q-1.578125 0.34375 -2.828125 0.34375q-2.03125 0 -3.15625 -0.640625q-1.125 -0.65625 -1.59375 -1.7031212q-0.453125 -1.0625 -0.453125 -4.4375l0 -12.71875l-2.75 0l0 -2.921875l2.75 0l0 -5.46875l3.734375 -2.25l0 7.71875l3.765625 0l0 2.921875l-3.765625 0l0 12.9375q0 1.59375 0.1875 2.0625q0.203125 0.453125 0.640625 0.734375q0.453125 0.265625 1.296875 0.265625q0.625 0 1.640625 -0.15625z" fill-rule="nonzero"/><path fill="#cfe2f3" d="m641.1811 236.3622l243.87402 0l0 50.960648l-243.87402 0z" fill-rule="evenodd"/><path stroke="#000000" stroke-width="1.0" stroke-linejoin="round" stroke-linecap="butt" d="m641.1811 236.3622l243.87402 0l0 50.960648l-243.87402 0z" fill-rule="evenodd"/><path fill="#000000" d="m725.51917 274.0369q2.8125 1.9375 5.1875 2.828125l-1.1875 2.8125q-3.296875 -1.1875 -6.5625 -3.75q-3.40625 1.890625 -7.5 1.890625q-4.15625 0 -7.53125 -2.0q-3.359375 -2.0 -5.1875 -5.609375q-1.828125 -3.625 -1.828125 -8.171875q0 -4.515625 1.828125 -8.21875q1.84375 -3.71875 5.21875 -5.65625q3.390625 -1.9375 7.578125 -1.9375q4.234375 0 7.625 2.015625q3.390625 2.0 5.171875 5.625q1.78125 3.609375 1.78125 8.15625q0 3.765625 -1.140625 6.78125q-1.140625 3.0 -3.453125 5.234375zm-8.90625 -5.171875q3.5 0.984375 5.78125 2.921875q3.5625 -3.25 3.5625 -9.765625q0 -3.71875 -1.265625 -6.484375q-1.265625 -2.765625 -3.6875 -4.296875q-2.421875 -1.53125 -5.453125 -1.53125q-4.515625 0 -7.5 3.09375q-2.96875 3.09375 -2.96875 9.234375q0 5.953125 2.9375 9.140625q2.953125 3.1875 7.53125 3.1875q2.171875 0 4.09375 -0.8125q-1.90625 -1.234375 -4.0 -1.75l0.96875 -2.9375zm32.960632 8.4375l0 -3.25q-2.59375 3.75 -7.015625 3.75q-1.96875 0 -3.671875 -0.75q-1.6875 -0.75 -2.515625 -1.875q-0.8125 -1.140625 -1.15625 -2.796875q-0.21875 -1.09375 -0.21875 -3.5l0 -13.703125l3.75 0l0 12.265625q0 2.9375 0.21875 3.96875q0.359375 1.46875 1.5 2.3125q1.15625 0.84375 2.828125 0.84375q1.6875 0 3.171875 -0.859375q1.484375 -0.859375 2.09375 -2.34375q0.609375 -1.5 0.609375 -4.328125l0 -11.859375l3.75 0l0 22.125l-3.34375 0zm24.364014 -7.125l3.875 0.484375q-0.921875 3.390625 -3.40625 5.265625q-2.46875 1.875 -6.328125 1.875q-4.84375 0 -7.6875 -2.984375q-2.84375 -3.0 -2.84375 -8.390625q0 -5.578125 2.875 -8.65625q2.875 -3.09375 7.453125 -3.09375q4.4375 0 7.25 3.03125q2.8125 3.015625 2.8125 8.5q0 0.328125 -0.015625 0.984375l-16.5 0q0.203125 3.65625 2.0625 5.59375q1.859375 1.9375 4.625 1.9375q2.0625 0 3.515625 -1.078125q1.453125 -1.09375 2.3125 -3.46875zm-12.3125 -6.0625l12.359375 0q-0.25 -2.78125 -1.421875 -4.1875q-1.796875 -2.15625 -4.640625 -2.15625q-2.578125 0 -4.34375 1.734375q-1.765625 1.71875 -1.953125 4.609375zm35.395264 13.1875l0 -3.25q-2.59375 3.75 -7.015625 3.75q-1.96875 0 -3.671875 -0.75q-1.6875 -0.75 -2.515625 -1.875q-0.8125 -1.140625 -1.15625 -2.796875q-0.21875 -1.09375 -0.21875 -3.5l0 -13.703125l3.75 0l0 12.265625q0 2.9375 0.21875 3.96875q0.359375 1.46875 1.5 2.3125q1.15625 0.84375 2.828125 0.84375q1.6875 0 3.171875 -0.859375q1.484375 -0.859375 2.09375 -2.34375q0.609375 -1.5 0.609375 -4.328125l0 -11.859375l3.75 0l0 22.125l-3.34375 0zm24.363953 -7.125l3.875 0.484375q-0.921875 3.390625 -3.40625 5.265625q-2.46875 1.875 -6.328125 1.875q-4.84375 0 -7.6875 -2.984375q-2.84375 -3.0 -2.84375 -8.390625q0 -5.578125 2.875 -8.65625q2.875 -3.09375 7.453125 -3.09375q4.4375 0 7.25 3.03125q2.8125 3.015625 2.8125 8.5q0 0.328125 -0.015625 0.984375l-16.5 0q0.203125 3.65625 2.0625 5.59375q1.859375 1.9375 4.625 1.9375q2.0625 0 3.515625 -1.078125q1.453125 -1.09375 2.3125 -3.46875zm-12.3125 -6.0625l12.359375 0q-0.25 -2.78125 -1.421875 -4.1875q-1.796875 -2.15625 -4.640625 -2.15625q-2.578125 0 -4.34375 1.734375q-1.765625 1.71875 -1.953125 4.609375z" fill-rule="nonzero"/><path fill="#cfe2f3" d="m979.1207 236.3622l322.8661 0l0 50.960648l-322.8661 0z" fill-rule="evenodd"/><path stroke="#000000" stroke-width="1.0" stroke-linejoin="round" stroke-linecap="butt" d="m979.1207 236.3622l322.8661 0l0 50.960648l-322.8661 0z" fill-rule="evenodd"/><path fill="#000000" d="m1081.0015 277.30252l0 -30.53125l10.515625 0q3.5625 0 5.4375 0.4375q2.625 0.59375 4.46875 2.1875q2.421875 2.03125 3.609375 5.21875q1.203125 3.171875 1.203125 7.25q0 3.484375 -0.8125 6.171875q-0.8125 2.6875 -2.078125 4.453125q-1.265625 1.75 -2.78125 2.765625q-1.515625 1.0 -3.65625 1.53125q-2.125 0.515625 -4.890625 0.515625l-11.015625 0zm4.03125 -3.609375l6.515625 0q3.03125 0 4.75 -0.5625q1.71875 -0.5625 2.734375 -1.578125q1.4375 -1.4375 2.234375 -3.859375q0.8125 -2.421875 0.8125 -5.890625q0 -4.78125 -1.578125 -7.359375q-1.578125 -2.578125 -3.828125 -3.453125q-1.625 -0.625 -5.21875 -0.625l-6.421875 0l0 23.328125zm41.42993 -3.515625l3.875 0.484375q-0.921875 3.390625 -3.40625 5.265625q-2.46875 1.875 -6.328125 1.875q-4.84375 0 -7.6875 -2.984375q-2.84375 -3.0 -2.84375 -8.390625q0 -5.578125 2.875 -8.65625q2.875 -3.09375 7.453125 -3.09375q4.4375 0 7.25 3.03125q2.8125 3.015625 2.8125 8.5q0 0.328125 -0.015625 0.984375l-16.5 0q0.203125 3.65625 2.0625 5.59375q1.859375 1.9375 4.625 1.9375q2.0625 0 3.515625 -1.078125q1.453125 -1.09375 2.3125 -3.46875zm-12.3125 -6.0625l12.359375 0q-0.25 -2.78125 -1.421875 -4.1875q-1.796875 -2.15625 -4.640625 -2.15625q-2.578125 0 -4.34375 1.734375q-1.765625 1.71875 -1.953125 4.609375zm34.989014 21.671875l0 -10.84375q-0.875 1.234375 -2.453125 2.046875q-1.5625 0.8125 -3.328125 0.8125q-3.9375 0 -6.78125 -3.140625q-2.84375 -3.15625 -2.84375 -8.625q0 -3.328125 1.15625 -5.96875q1.15625 -2.65625 3.34375 -4.015625q2.203125 -1.375 4.828125 -1.375q4.109375 0 6.453125 3.46875l0 -2.96875l3.375 0l0 30.609375l-3.75 0zm-11.546875 -19.609375q0 4.265625 1.78125 6.40625q1.796875 2.140625 4.296875 2.140625q2.390625 0 4.109375 -2.03125q1.734375 -2.03125 1.734375 -6.171875q0 -4.421875 -1.828125 -6.640625q-1.8125 -2.234375 -4.265625 -2.234375q-2.4375 0 -4.140625 2.078125q-1.6875 2.0625 -1.6875 6.453125zm35.676514 11.125l0 -3.25q-2.59375 3.75 -7.015625 3.75q-1.96875 0 -3.671875 -0.75q-1.6875 -0.75 -2.515625 -1.875q-0.8125 -1.140625 -1.15625 -2.796875q-0.21875 -1.09375 -0.21875 -3.5l0 -13.703125l3.75 0l0 12.265625q0 2.9375 0.21875 3.96875q0.359375 1.46875 1.5 2.3125q1.15625 0.84375 2.828125 0.84375q1.6875 0 3.171875 -0.859375q1.484375 -0.859375 2.09375 -2.34375q0.609375 -1.5 0.609375 -4.328125l0 -11.859375l3.75 0l0 22.125l-3.34375 0zm24.364014 -7.125l3.875 0.484375q-0.921875 3.390625 -3.40625 5.265625q-2.46875 1.875 -6.328125 1.875q-4.84375 0 -7.6875 -2.984375q-2.84375 -3.0 -2.84375 -8.390625q0 -5.578125 2.875 -8.65625q2.875 -3.09375 7.453125 -3.09375q4.4375 0 7.25 3.03125q2.8125 3.015625 2.8125 8.5q0 0.328125 -0.015625 0.984375l-16.5 0q0.203125 3.65625 2.0625 5.59375q1.859375 1.9375 4.625 1.9375q2.0625 0 3.515625 -1.078125q1.453125 -1.09375 2.3125 -3.46875zm-12.3125 -6.0625l12.359375 0q-0.25 -2.78125 -1.421875 -4.1875q-1.796875 -2.15625 -4.640625 -2.15625q-2.578125 0 -4.34375 1.734375q-1.765625 1.71875 -1.953125 4.609375z" fill-rule="nonzero"/><path fill="#cfe2f3" d="m977.46716 24.787401l322.8662 0l0 50.960632l-322.8662 0z" fill-rule="evenodd"/><path stroke="#000000" stroke-width="1.0" stroke-linejoin="round" stroke-linecap="butt" d="m977.46716 24.787401l322.8662 0l0 50.960632l-322.8662 0z" fill-rule="evenodd"/><path fill="#000000" d="m1000.8876 55.91522l3.8125 -0.328125q0.265625 2.28125 1.25 3.75q1.0 1.46875 3.078125 2.375q2.078125 0.90625 4.6875 0.90625q2.3125 0 4.078125 -0.6875q1.765625 -0.6875 2.625 -1.875q0.875 -1.203125 0.875 -2.625q0 -1.4375 -0.84375 -2.5q-0.828125 -1.078125 -2.734375 -1.796875q-1.234375 -0.484375 -5.4375 -1.484375q-4.203125 -1.015625 -5.890625 -1.921875q-2.1875 -1.140625 -3.265625 -2.828125q-1.078125 -1.703125 -1.078125 -3.8125q0 -2.3125 1.3125 -4.3125q1.3125 -2.015625 3.828125 -3.0625q2.53125 -1.046875 5.609375 -1.046875q3.390625 0 5.984375 1.09375q2.59375 1.09375 3.984375 3.21875q1.40625 2.125 1.515625 4.8125l-3.875 0.296875q-0.3125 -2.890625 -2.125 -4.375q-1.796875 -1.484375 -5.3125 -1.484375q-3.671875 0 -5.34375 1.34375q-1.671875 1.34375 -1.671875 3.25q0 1.640625 1.1875 2.703125q1.15625 1.0625 6.078125 2.1875q4.9375 1.109375 6.765625 1.9375q2.671875 1.234375 3.9375 3.125q1.265625 1.875 1.265625 4.328125q0 2.4375 -1.390625 4.59375q-1.390625 2.15625 -4.015625 3.3593712q-2.609375 1.1875 -5.875 1.1875q-4.15625 0 -6.953125 -1.203125q-2.796875 -1.2031212 -4.390625 -3.6249962q-1.59375 -2.4375 -1.671875 -5.5zm44.482666 2.6875l3.875 0.484375q-0.921875 3.390625 -3.40625 5.265621q-2.46875 1.875 -6.328125 1.875q-4.84375 0 -7.6875 -2.9843712q-2.84375 -3.0 -2.84375 -8.390625q0 -5.578125 2.875 -8.65625q2.875 -3.09375 7.453125 -3.09375q4.4375 0 7.25 3.03125q2.8125 3.015625 2.8125 8.5q0 0.328125 -0.015625 0.984375l-16.5 0q0.203125 3.65625 2.0625 5.59375q1.859375 1.9375 4.625 1.9375q2.0625 0 3.515625 -1.078125q1.453125 -1.09375 2.3125 -3.46875zm-12.3125 -6.0625l12.359375 0q-0.25 -2.78125 -1.421875 -4.1875q-1.796875 -2.15625 -4.640625 -2.15625q-2.578125 0 -4.34375 1.734375q-1.765625 1.71875 -1.953125 4.609375zm34.989014 21.671871l0 -10.843746q-0.875 1.2343712 -2.453125 2.0468712q-1.5625 0.8125 -3.328125 0.8125q-3.9375 0 -6.78125 -3.1406212q-2.84375 -3.15625 -2.84375 -8.625q0 -3.328125 1.15625 -5.96875q1.15625 -2.65625 3.34375 -4.015625q2.203125 -1.375 4.828125 -1.375q4.109375 0 6.453125 3.46875l0 -2.96875l3.375 0l0 30.609371l-3.75 0zm-11.546875 -19.609371q0 4.265625 1.78125 6.40625q1.796875 2.140625 4.296875 2.140625q2.390625 0 4.109375 -2.03125q1.734375 -2.03125 1.734375 -6.171875q0 -4.421875 -1.828125 -6.640625q-1.8125 -2.234375 -4.265625 -2.234375q-2.4375 0 -4.140625 2.078125q-1.6875 2.0625 -1.6875 6.453125zm35.67639 11.124996l0 -3.2499962q-2.59375 3.7499962 -7.015625 3.7499962q-1.96875 0 -3.671875 -0.75q-1.6875 -0.75 -2.515625 -1.8749962q-0.8125 -1.140625 -1.15625 -2.796875q-0.21875 -1.09375 -0.21875 -3.5l0 -13.703125l3.75 0l0 12.265625q0 2.9375 0.21875 3.96875q0.359375 1.46875 1.5 2.3125q1.15625 0.84375 2.828125 0.84375q1.6875 0 3.171875 -0.859375q1.484375 -0.859375 2.09375 -2.34375q0.609375 -1.5 0.609375 -4.328125l0 -11.859375l3.75 0l0 22.124996l-3.34375 0zm24.364014 -7.124996l3.875 0.484375q-0.921875 3.390625 -3.40625 5.265621q-2.46875 1.875 -6.328125 1.875q-4.84375 0 -7.6875 -2.9843712q-2.84375 -3.0 -2.84375 -8.390625q0 -5.578125 2.875 -8.65625q2.875 -3.09375 7.453125 -3.09375q4.4375 0 7.25 3.03125q2.8125 3.015625 2.8125 8.5q0 0.328125 -0.015625 0.984375l-16.5 0q0.203125 3.65625 2.0625 5.59375q1.859375 1.9375 4.625 1.9375q2.0625 0 3.515625 -1.078125q1.453125 -1.09375 2.3125 -3.46875zm-12.3125 -6.0625l12.359375 0q-0.25 -2.78125 -1.421875 -4.1875q-1.796875 -2.15625 -4.640625 -2.15625q-2.578125 0 -4.34375 1.734375q-1.765625 1.71875 -1.953125 4.609375zm20.895264 13.187496l0 -22.124996l3.375 0l0 3.15625q2.4375 -3.65625 7.03125 -3.65625q2.0 0 3.671875 0.71875q1.6875 0.71875 2.515625 1.890625q0.84375 1.171875 1.171875 2.765625q0.203125 1.046875 0.203125 3.65625l0 13.593746l-3.75 0l0 -13.453121q0 -2.296875 -0.4375 -3.421875q-0.4375 -1.140625 -1.546875 -1.8125q-1.109375 -0.6875 -2.609375 -0.6875q-2.390625 0 -4.140625 1.53125q-1.734375 1.515625 -1.734375 5.765625l0 12.078121l-3.75 0zm38.16089 -8.109371l3.6875 0.484375q-0.609375 3.8125 -3.109375 5.968746q-2.484375 2.15625 -6.109375 2.15625q-4.53125 0 -7.296875 -2.9687462q-2.75 -2.96875 -2.75 -8.5q0 -3.59375 1.1875 -6.28125q1.1875 -2.6875 3.609375 -4.03125q2.421875 -1.34375 5.28125 -1.34375q3.59375 0 5.890625 1.828125q2.296875 1.828125 2.9375 5.171875l-3.640625 0.5625q-0.53125 -2.21875 -1.859375 -3.34375q-1.3125 -1.125 -3.1875 -1.125q-2.828125 0 -4.609375 2.03125q-1.765625 2.03125 -1.765625 6.421875q0 4.453125 1.703125 6.484375q1.71875 2.015625 4.46875 2.015625q2.203125 0 3.671875 -1.359375q1.484375 -1.359375 1.890625 -4.171875zm22.03125 0.984375l3.875 0.484375q-0.921875 3.390625 -3.40625 5.265621q-2.46875 1.875 -6.328125 1.875q-4.84375 0 -7.6875 -2.9843712q-2.84375 -3.0 -2.84375 -8.390625q0 -5.578125 2.875 -8.65625q2.875 -3.09375 7.453125 -3.09375q4.4375 0 7.25 3.03125q2.8125 3.015625 2.8125 8.5q0 0.328125 -0.015625 0.984375l-16.5 0q0.203125 3.65625 2.0625 5.59375q1.859375 1.9375 4.625 1.9375q2.0625 0 3.515625 -1.078125q1.453125 -1.09375 2.3125 -3.46875zm-12.3125 -6.0625l12.359375 0q-0.25 -2.78125 -1.421875 -4.1875q-1.796875 -2.15625 -4.640625 -2.15625q-2.578125 0 -4.34375 1.734375q-1.765625 1.71875 -1.953125 4.609375zm35.239014 13.187496l0 -2.7968712q-2.09375 3.2968712 -6.1875 3.2968712q-2.640625 0 -4.859375 -1.453125q-2.21875 -1.4687462 -3.4375 -4.078121q-1.21875 -2.609375 -1.21875 -6.0q0 -3.3125 1.109375 -6.015625q1.109375 -2.703125 3.3125 -4.140625q2.203125 -1.4375 4.9375 -1.4375q2.0 0 3.5625 0.84375q1.5625 0.84375 2.53125 2.203125l0 -10.953125l3.734375 0l0 30.531246l-3.484375 0zm-11.84375 -11.031246q0 4.234375 1.78125 6.34375q1.796875 2.109375 4.234375 2.109375q2.453125 0 4.171875 -2.015625q1.71875 -2.015625 1.71875 -6.125q0 -4.546875 -1.75 -6.671875q-1.75 -2.125 -4.3125 -2.125q-2.484375 0 -4.171875 2.046875q-1.671875 2.03125 -1.671875 6.4375zm20.332764 1.21875l3.8125 -0.328125q0.265625 2.28125 1.25 3.75q1.0 1.46875 3.078125 2.375q2.078125 0.90625 4.6875 0.90625q2.3125 0 4.078125 -0.6875q1.765625 -0.6875 2.625 -1.875q0.875 -1.203125 0.875 -2.625q0 -1.4375 -0.84375 -2.5q-0.828125 -1.078125 -2.734375 -1.796875q-1.234375 -0.484375 -5.4375 -1.484375q-4.203125 -1.015625 -5.890625 -1.921875q-2.1875 -1.140625 -3.265625 -2.828125q-1.078125 -1.703125 -1.078125 -3.8125q0 -2.3125 1.3125 -4.3125q1.3125 -2.015625 3.828125 -3.0625q2.53125 -1.046875 5.609375 -1.046875q3.390625 0 5.984375 1.09375q2.59375 1.09375 3.984375 3.21875q1.40625 2.125 1.515625 4.8125l-3.875 0.296875q-0.3125 -2.890625 -2.125 -4.375q-1.796875 -1.484375 -5.3125 -1.484375q-3.671875 0 -5.34375 1.34375q-1.671875 1.34375 -1.671875 3.25q0 1.640625 1.1875 2.703125q1.15625 1.0625 6.078125 2.1875q4.9375 1.109375 6.765625 1.9375q2.671875 1.234375 3.9375 3.125q1.265625 1.875 1.265625 4.328125q0 2.4375 -1.390625 4.59375q-1.390625 2.15625 -4.015625 3.3593712q-2.609375 1.1875 -5.875 1.1875q-4.15625 0 -6.953125 -1.203125q-2.796875 -1.2031212 -4.390625 -3.6249962q-1.59375 -2.4375 -1.671875 -5.5zm44.482666 2.6875l3.875 0.484375q-0.921875 3.390625 -3.40625 5.265621q-2.46875 1.875 -6.328125 1.875q-4.84375 0 -7.6875 -2.9843712q-2.84375 -3.0 -2.84375 -8.390625q0 -5.578125 2.875 -8.65625q2.875 -3.09375 7.453125 -3.09375q4.4375 0 7.25 3.03125q2.8125 3.015625 2.8125 8.5q0 0.328125 -0.015625 0.984375l-16.5 0q0.203125 3.65625 2.0625 5.59375q1.859375 1.9375 4.625 1.9375q2.0625 0 3.515625 -1.078125q1.453125 -1.09375 2.3125 -3.46875zm-12.3125 -6.0625l12.359375 0q-0.25 -2.78125 -1.421875 -4.1875q-1.796875 -2.15625 -4.640625 -2.15625q-2.578125 0 -4.34375 1.734375q-1.765625 1.71875 -1.953125 4.609375zm29.082642 9.828125l0.53125 3.3124962q-1.578125 0.34375 -2.828125 0.34375q-2.03125 0 -3.15625 -0.640625q-1.125 -0.65625 -1.59375 -1.7031212q-0.453125 -1.0625 -0.453125 -4.4375l0 -12.71875l-2.75 0l0 -2.921875l2.75 0l0 -5.46875l3.734375 -2.25l0 7.71875l3.765625 0l0 2.921875l-3.765625 0l0 12.9375q0 1.59375 0.1875 2.0625q0.203125 0.453125 0.640625 0.734375q0.453125 0.265625 1.296875 0.265625q0.625 0 1.640625 -0.15625z" fill-rule="nonzero"/><path fill="#000000" fill-opacity="0.0" d="m979.105 156.05511l-92.69293 0" fill-rule="evenodd"/><path stroke="#000000" stroke-width="4.0" stroke-linejoin="round" stroke-linecap="butt" d="m979.105 156.05511l-68.69293 0" fill-rule="evenodd"/><path fill="#000000" stroke="#000000" stroke-width="4.0" stroke-linecap="butt" d="m910.41205 149.44818l-18.152344 6.6069336l18.152344 6.6069336z" fill-rule="evenodd"/><path fill="#000000" fill-opacity="0.0" d="m979.1207 261.84253l-94.078735 0" fill-rule="evenodd"/><path stroke="#000000" stroke-width="4.0" stroke-linejoin="round" stroke-linecap="butt" d="m979.1207 261.84253l-70.078735 0" fill-rule="evenodd"/><path fill="#000000" stroke="#000000" stroke-width="4.0" stroke-linecap="butt" d="m909.042 255.2356l-18.152405 6.6069336l18.152405 6.6069336z" fill-rule="evenodd"/><path fill="#000000" fill-opacity="0.0" d="m977.46716 50.267715l-92.409424 0" fill-rule="evenodd"/><path stroke="#000000" stroke-width="4.0" stroke-linejoin="round" stroke-linecap="butt" d="m977.46716 50.267715l-68.409424 0" fill-rule="evenodd"/><path fill="#000000" stroke="#000000" stroke-width="4.0" stroke-linecap="butt" d="m909.05774 43.660786l-18.152405 6.60693l18.152405 6.60693z" fill-rule="evenodd"/><path fill="#000000" fill-opacity="0.0" d="m304.61023 156.05511l-60.06299 0" fill-rule="evenodd"/><path stroke="#000000" stroke-width="4.0" stroke-linejoin="round" stroke-linecap="butt" d="m304.61023 156.05511l-36.06299 0" fill-rule="evenodd"/><path fill="#000000" stroke="#000000" stroke-width="4.0" stroke-linecap="butt" d="m268.54724 149.44818l-18.15239 6.6069336l18.15239 6.6069336z" fill-rule="evenodd"/><path fill="#000000" fill-opacity="0.0" d="m641.1811 156.0538l-92.69293 0" fill-rule="evenodd"/><path stroke="#000000" stroke-width="4.0" stroke-linejoin="round" stroke-linecap="butt" d="m641.1811 156.0538l-68.69293 0" fill-rule="evenodd"/><path fill="#000000" stroke="#000000" stroke-width="4.0" stroke-linecap="butt" d="m572.48816 149.44687l-18.152344 6.6069336l18.152344 6.6069336z" fill-rule="evenodd"/><path fill="#000000" fill-opacity="0.0" d="m641.1811 50.267715l-46.348328 0l0 105.79527l-46.344604 0" fill-rule="evenodd"/><path stroke="#000000" stroke-width="4.0" stroke-linejoin="round" stroke-linecap="butt" d="m641.1811 50.267715l-46.348267 0l0 105.79527l-22.344666 0" fill-rule="evenodd"/><path fill="#000000" stroke="#000000" stroke-width="4.0" stroke-linecap="butt" d="m572.48816 149.45607l-18.152344 6.6069183l18.152344 6.6069336z" fill-rule="evenodd"/><path fill="#000000" fill-opacity="0.0" d="m641.1811 261.84253l-46.348328 0l0 -105.79529l-46.344604 0" fill-rule="evenodd"/><path stroke="#000000" stroke-width="4.0" stroke-linejoin="round" stroke-linecap="butt" d="m641.1811 261.84253l-46.348267 0l0 -105.79529l-22.344666 0" fill-rule="evenodd"/><path fill="#000000" stroke="#000000" stroke-width="4.0" stroke-linecap="butt" d="m572.48816 149.4403l-18.152344 6.6069336l18.152344 6.6069336z" fill-rule="evenodd"/><path fill="#000000" fill-opacity="0.0" d="m977.46716 50.267715l-45.228333 0l0 80.31496l-45.228333 0" fill-rule="evenodd"/><path stroke="#000000" stroke-width="4.0" stroke-linejoin="round" stroke-linecap="butt" d="m977.46716 50.267715l-45.228333 0l0 80.31496l-21.228333 0" fill-rule="evenodd"/><path fill="#000000" stroke="#000000" stroke-width="4.0" stroke-linecap="butt" d="m911.0105 123.975746l-18.152405 6.606926l18.152405 6.6069336z" fill-rule="evenodd"/><path fill="#000000" fill-opacity="0.0" d="m979.1207 261.84253l-45.55902 0l0 -80.8504l-45.559082 0" fill-rule="evenodd"/><path stroke="#000000" stroke-width="4.0" stroke-linejoin="round" stroke-linecap="butt" d="m979.1207 261.84253l-45.55902 0l0 -80.8504l-21.559082 0" fill-rule="evenodd"/><path fill="#000000" stroke="#000000" stroke-width="4.0" stroke-linecap="butt" d="m912.0026 174.3852l-18.152405 6.6069336l18.152405 6.6069336z" fill-rule="evenodd"/><path fill="#cfe2f3" d="m641.1798 317.3622l243.87402 0l0 50.960632l-243.87402 0z" fill-rule="evenodd"/><path stroke="#000000" stroke-width="1.0" stroke-linejoin="round" stroke-linecap="butt" d="m641.1798 317.3622l243.87402 0l0 50.960632l-243.87402 0z" fill-rule="evenodd"/><path fill="#000000" d="m724.7988 358.30252l0 -30.53125l6.078125 0l7.21875 21.609375q1.0 3.03125 1.46875 4.53125q0.515625 -1.671875 1.625 -4.90625l7.3125 -21.234375l5.421875 0l0 30.53125l-3.890625 0l0 -25.5625l-8.875 25.5625l-3.640625 0l-8.828125 -26.0l0 26.0l-3.890625 0zm49.611084 -2.734375q-2.09375 1.78125 -4.015625 2.515625q-1.921875 0.71875 -4.125 0.71875q-3.65625 0 -5.609375 -1.78125q-1.953125 -1.78125 -1.953125 -4.546875q0 -1.625 0.734375 -2.96875q0.734375 -1.34375 1.9375 -2.15625q1.203125 -0.8125 2.703125 -1.234375q1.09375 -0.28125 3.328125 -0.5625q4.53125 -0.53125 6.6875 -1.28125q0.015625 -0.78125 0.015625 -0.984375q0 -2.296875 -1.0625 -3.234375q-1.4375 -1.265625 -4.265625 -1.265625q-2.640625 0 -3.90625 0.9375q-1.265625 0.921875 -1.859375 3.265625l-3.671875 -0.5q0.5 -2.34375 1.640625 -3.796875q1.15625 -1.453125 3.3125 -2.234375q2.171875 -0.78125 5.015625 -0.78125q2.84375 0 4.609375 0.671875q1.765625 0.671875 2.59375 1.6875q0.84375 1.0 1.171875 2.546875q0.1875 0.953125 0.1875 3.453125l0 5.0q0 5.21875 0.234375 6.609375q0.25 1.390625 0.953125 2.65625l-3.90625 0q-0.59375 -1.171875 -0.75 -2.734375zm-0.3125 -8.359375q-2.046875 0.828125 -6.125 1.40625q-2.3125 0.328125 -3.28125 0.75q-0.953125 0.421875 -1.46875 1.21875q-0.515625 0.796875 -0.515625 1.78125q0 1.5 1.125 2.5q1.140625 1.0 3.328125 1.0q2.15625 0 3.84375 -0.9375q1.6875 -0.953125 2.484375 -2.609375q0.609375 -1.265625 0.609375 -3.75l0 -1.359375zm9.598389 19.578125l0 -30.609375l3.421875 0l0 2.875q1.203125 -1.6875 2.71875 -2.53125q1.53125 -0.84375 3.6875 -0.84375q2.828125 0 5.0 1.46875q2.171875 1.453125 3.265625 4.109375q1.109375 2.65625 1.109375 5.828125q0 3.390625 -1.21875 6.109375q-1.21875 2.71875 -3.546875 4.171875q-2.3125 1.4375 -4.875 1.4375q-1.875 0 -3.375 -0.78125q-1.484375 -0.796875 -2.4375 -2.015625l0 10.78125l-3.75 0zm3.390625 -19.421875q0 4.265625 1.734375 6.3125q1.734375 2.046875 4.1875 2.046875q2.5 0 4.28125 -2.109375q1.78125 -2.125 1.78125 -6.5625q0 -4.21875 -1.75 -6.328125q-1.734375 -2.109375 -4.15625 -2.109375q-2.390625 0 -4.234375 2.25q-1.84375 2.234375 -1.84375 6.5z" fill-rule="nonzero"/><path fill="#cfe2f3" d="m979.1365 317.3622l322.8662 0l0 50.960632l-322.8662 0z" fill-rule="evenodd"/><path stroke="#000000" stroke-width="1.0" stroke-linejoin="round" stroke-linecap="butt" d="m979.1365 317.3622l322.8662 0l0 50.960632l-322.8662 0z" fill-rule="evenodd"/><path fill="#000000" d="m993.08 348.49002l3.8125 -0.328125q0.265625 2.28125 1.25 3.75q1.0 1.46875 3.078125 2.375q2.078125 0.90625 4.6875 0.90625q2.3125 0 4.078125 -0.6875q1.765625 -0.6875 2.625 -1.875q0.875 -1.203125 0.875 -2.625q0 -1.4375 -0.84375 -2.5q-0.828125 -1.078125 -2.734375 -1.796875q-1.234375 -0.484375 -5.4375 -1.484375q-4.203125 -1.015625 -5.890625 -1.921875q-2.1875 -1.140625 -3.265625 -2.828125q-1.078125 -1.703125 -1.078125 -3.8125q0 -2.3125 1.3125 -4.3125q1.3125 -2.015625 3.828125 -3.0625q2.53125 -1.046875 5.609375 -1.046875q3.390625 0 5.984375 1.09375q2.59375 1.09375 3.984375 3.21875q1.40625 2.125 1.515625 4.8125l-3.875 0.296875q-0.3125 -2.890625 -2.125 -4.375q-1.796875 -1.484375 -5.3125 -1.484375q-3.671875 0 -5.34375 1.34375q-1.671875 1.34375 -1.671875 3.25q0 1.640625 1.1875 2.703125q1.15625 1.0625 6.078125 2.1875q4.9375 1.109375 6.765625 1.9375q2.671875 1.234375 3.9375 3.125q1.265625 1.875 1.265625 4.328125q0 2.4375 -1.390625 4.59375q-1.390625 2.15625 -4.015625 3.359375q-2.609375 1.1875 -5.875 1.1875q-4.15625 0 -6.953125 -1.203125q-2.796875 -1.203125 -4.390625 -3.625q-1.59375 -2.4375 -1.671875 -5.5zm44.482605 2.6875l3.875 0.484375q-0.921875 3.390625 -3.40625 5.265625q-2.46875 1.875 -6.328125 1.875q-4.84375 0 -7.6875 -2.984375q-2.84375 -3.0 -2.84375 -8.390625q0 -5.578125 2.875 -8.65625q2.875 -3.09375 7.453125 -3.09375q4.4375 0 7.25 3.03125q2.8125 3.015625 2.8125 8.5q0 0.328125 -0.015625 0.984375l-16.5 0q0.203125 3.65625 2.0625 5.59375q1.859375 1.9375 4.625 1.9375q2.0625 0 3.515625 -1.078125q1.453125 -1.09375 2.3125 -3.46875zm-12.3125 -6.0625l12.359375 0q-0.25 -2.78125 -1.421875 -4.1875q-1.796875 -2.15625 -4.640625 -2.15625q-2.578125 0 -4.34375 1.734375q-1.765625 1.71875 -1.953125 4.609375zm34.989014 21.671875l0 -10.84375q-0.875 1.234375 -2.453125 2.046875q-1.5625 0.8125 -3.328125 0.8125q-3.9375 0 -6.78125 -3.140625q-2.84375 -3.15625 -2.84375 -8.625q0 -3.328125 1.15625 -5.96875q1.15625 -2.65625 3.34375 -4.015625q2.203125 -1.375 4.828125 -1.375q4.109375 0 6.453125 3.46875l0 -2.96875l3.375 0l0 30.609375l-3.75 0zm-11.546875 -19.609375q0 4.265625 1.78125 6.40625q1.796875 2.140625 4.296875 2.140625q2.390625 0 4.109375 -2.03125q1.734375 -2.03125 1.734375 -6.171875q0 -4.421875 -1.828125 -6.640625q-1.8125 -2.234375 -4.265625 -2.234375q-2.4375 0 -4.140625 2.078125q-1.6875 2.0625 -1.6875 6.453125zm35.676514 11.125l0 -3.25q-2.59375 3.75 -7.015625 3.75q-1.96875 0 -3.671875 -0.75q-1.6875 -0.75 -2.515625 -1.875q-0.8125 -1.140625 -1.15625 -2.796875q-0.21875 -1.09375 -0.21875 -3.5l0 -13.703125l3.75 0l0 12.265625q0 2.9375 0.21875 3.96875q0.359375 1.46875 1.5 2.3125q1.15625 0.84375 2.828125 0.84375q1.6875 0 3.171875 -0.859375q1.484375 -0.859375 2.09375 -2.34375q0.609375 -1.5 0.609375 -4.328125l0 -11.859375l3.75 0l0 22.125l-3.34375 0zm24.364014 -7.125l3.875 0.484375q-0.921875 3.390625 -3.40625 5.265625q-2.46875 1.875 -6.328125 1.875q-4.84375 0 -7.6875 -2.984375q-2.84375 -3.0 -2.84375 -8.390625q0 -5.578125 2.875 -8.65625q2.875 -3.09375 7.453125 -3.09375q4.4375 0 7.25 3.03125q2.8125 3.015625 2.8125 8.5q0 0.328125 -0.015625 0.984375l-16.5 0q0.203125 3.65625 2.0625 5.59375q1.859375 1.9375 4.625 1.9375q2.0625 0 3.515625 -1.078125q1.453125 -1.09375 2.3125 -3.46875zm-12.3125 -6.0625l12.359375 0q-0.25 -2.78125 -1.421875 -4.1875q-1.796875 -2.15625 -4.640625 -2.15625q-2.578125 0 -4.34375 1.734375q-1.765625 1.71875 -1.953125 4.609375zm20.895264 13.1875l0 -22.125l3.375 0l0 3.15625q2.4375 -3.65625 7.03125 -3.65625q2.0 0 3.671875 0.71875q1.6875 0.71875 2.515625 1.890625q0.84375 1.171875 1.171875 2.765625q0.203125 1.046875 0.203125 3.65625l0 13.59375l-3.75 0l0 -13.453125q0 -2.296875 -0.4375 -3.421875q-0.4375 -1.140625 -1.546875 -1.8125q-1.109375 -0.6875 -2.609375 -0.6875q-2.390625 0 -4.140625 1.53125q-1.734375 1.515625 -1.734375 5.765625l0 12.078125l-3.75 0zm38.160767 -8.109375l3.6875 0.484375q-0.609375 3.8125 -3.109375 5.96875q-2.484375 2.15625 -6.109375 2.15625q-4.53125 0 -7.296875 -2.96875q-2.75 -2.96875 -2.75 -8.5q0 -3.59375 1.1875 -6.28125q1.1875 -2.6875 3.609375 -4.03125q2.421875 -1.34375 5.28125 -1.34375q3.59375 0 5.890625 1.828125q2.296875 1.828125 2.9375 5.171875l-3.640625 0.5625q-0.53125 -2.21875 -1.859375 -3.34375q-1.3125 -1.125 -3.1875 -1.125q-2.828125 0 -4.609375 2.03125q-1.765625 2.03125 -1.765625 6.421875q0 4.453125 1.703125 6.484375q1.71875 2.015625 4.46875 2.015625q2.203125 0 3.671875 -1.359375q1.484375 -1.359375 1.890625 -4.171875zm22.03125 0.984375l3.875 0.484375q-0.921875 3.390625 -3.40625 5.265625q-2.46875 1.875 -6.328125 1.875q-4.84375 0 -7.6875 -2.984375q-2.84375 -3.0 -2.84375 -8.390625q0 -5.578125 2.875 -8.65625q2.875 -3.09375 7.453125 -3.09375q4.4375 0 7.25 3.03125q2.8125 3.015625 2.8125 8.5q0 0.328125 -0.015625 0.984375l-16.5 0q0.203125 3.65625 2.0625 5.59375q1.859375 1.9375 4.625 1.9375q2.0625 0 3.515625 -1.078125q1.453125 -1.09375 2.3125 -3.46875zm-12.3125 -6.0625l12.359375 0q-0.25 -2.78125 -1.421875 -4.1875q-1.796875 -2.15625 -4.640625 -2.15625q-2.578125 0 -4.34375 1.734375q-1.765625 1.71875 -1.953125 4.609375zm35.239014 13.1875l0 -2.796875q-2.09375 3.296875 -6.1875 3.296875q-2.640625 0 -4.859375 -1.453125q-2.21875 -1.46875 -3.4375 -4.078125q-1.21875 -2.609375 -1.21875 -6.0q0 -3.3125 1.109375 -6.015625q1.109375 -2.703125 3.3125 -4.140625q2.203125 -1.4375 4.9375 -1.4375q2.0 0 3.5625 0.84375q1.5625 0.84375 2.53125 2.203125l0 -10.953125l3.734375 0l0 30.53125l-3.484375 0zm-11.84375 -11.03125q0 4.234375 1.78125 6.34375q1.796875 2.109375 4.234375 2.109375q2.453125 0 4.171875 -2.015625q1.71875 -2.015625 1.71875 -6.125q0 -4.546875 -1.75 -6.671875q-1.75 -2.125 -4.3125 -2.125q-2.484375 0 -4.171875 2.046875q-1.671875 2.03125 -1.671875 6.4375zm21.582764 11.03125l0 -30.53125l6.078125 0l7.21875 21.609375q1.0 3.03125 1.46875 4.53125q0.515625 -1.671875 1.625 -4.90625l7.3125 -21.234375l5.421875 0l0 30.53125l-3.890625 0l0 -25.5625l-8.875 25.5625l-3.640625 0l-8.828125 -26.0l0 26.0l-3.890625 0zm49.611206 -2.734375q-2.09375 1.78125 -4.015625 2.515625q-1.921875 0.71875 -4.125 0.71875q-3.65625 0 -5.609375 -1.78125q-1.953125 -1.78125 -1.953125 -4.546875q0 -1.625 0.734375 -2.96875q0.734375 -1.34375 1.9375 -2.15625q1.203125 -0.8125 2.703125 -1.234375q1.09375 -0.28125 3.328125 -0.5625q4.53125 -0.53125 6.6875 -1.28125q0.015625 -0.78125 0.015625 -0.984375q0 -2.296875 -1.0625 -3.234375q-1.4375 -1.265625 -4.265625 -1.265625q-2.640625 0 -3.90625 0.9375q-1.265625 0.921875 -1.859375 3.265625l-3.671875 -0.5q0.5 -2.34375 1.640625 -3.796875q1.15625 -1.453125 3.3125 -2.234375q2.171875 -0.78125 5.015625 -0.78125q2.84375 0 4.609375 0.671875q1.765625 0.671875 2.59375 1.6875q0.84375 1.0 1.171875 2.546875q0.1875 0.953125 0.1875 3.453125l0 5.0q0 5.21875 0.234375 6.609375q0.25 1.390625 0.953125 2.65625l-3.90625 0q-0.59375 -1.171875 -0.75 -2.734375zm-0.3125 -8.359375q-2.046875 0.828125 -6.125 1.40625q-2.3125 0.328125 -3.28125 0.75q-0.953125 0.421875 -1.46875 1.21875q-0.515625 0.796875 -0.515625 1.78125q0 1.5 1.125 2.5q1.140625 1.0 3.328125 1.0q2.15625 0 3.84375 -0.9375q1.6875 -0.953125 2.484375 -2.609375q0.609375 -1.265625 0.609375 -3.75l0 -1.359375zm9.598267 19.578125l0 -30.609375l3.421875 0l0 2.875q1.203125 -1.6875 2.71875 -2.53125q1.53125 -0.84375 3.6875 -0.84375q2.828125 0 5.0 1.46875q2.171875 1.453125 3.265625 4.109375q1.109375 2.65625 1.109375 5.828125q0 3.390625 -1.21875 6.109375q-1.21875 2.71875 -3.546875 4.171875q-2.3125 1.4375 -4.875 1.4375q-1.875 0 -3.375 -0.78125q-1.484375 -0.796875 -2.4375 -2.015625l0 10.78125l-3.75 0zm3.390625 -19.421875q0 4.265625 1.734375 6.3125q1.734375 2.046875 4.1875 2.046875q2.5 0 4.28125 -2.109375q1.78125 -2.125 1.78125 -6.5625q0 -4.21875 -1.75 -6.328125q-1.734375 -2.109375 -4.15625 -2.109375q-2.390625 0 -4.234375 2.25q-1.84375 2.234375 -1.84375 6.5z" fill-rule="nonzero"/><path fill="#000000" fill-opacity="0.0" d="m979.1365 342.84253l-94.078735 0" fill-rule="evenodd"/><path stroke="#000000" stroke-width="4.0" stroke-linejoin="round" stroke-linecap="butt" d="m979.1365 342.84253l-70.078735 0" fill-rule="evenodd"/><path fill="#000000" stroke="#000000" stroke-width="4.0" stroke-linecap="butt" d="m909.05774 336.2356l-18.152405 6.6069336l18.152405 6.6069336z" fill-rule="evenodd"/></g></svg>