<svg version="1.1" viewBox="0.0 0.0 1214.5984251968505 437.2257217847769" fill="none" stroke="none" stroke-linecap="square" stroke-miterlimit="10" xmlns:xlink="http://www.w3.org/1999/xlink" xmlns="http://www.w3.org/2000/svg"><clipPath id="p.0"><path d="m0 0l1214.5984 0l0 437.2257l-1214.5984 0l0 -437.2257z" clip-rule="nonzero"/></clipPath><g clip-path="url(#p.0)"><path fill="#000000" fill-opacity="0.0" d="m0 0l1214.5984 0l0 437.2257l-1214.5984 0z" fill-rule="evenodd"/><path fill="#cfe2f3" d="m329.38583 175.08661l239.99997 0l0 96.346466l-239.99997 0z" fill-rule="evenodd"/><path stroke="#000000" stroke-width="1.0" stroke-linejoin="round" stroke-linecap="butt" d="m329.38583 175.08661l239.99997 0l0 96.346466l-239.99997 0z" fill-rule="evenodd"/><path fill="#000000" d="m343.38614 203.40735l3.8125 -0.328125q0.265625 2.28125 1.25 3.75q1.0 1.46875 3.078125 2.375q2.078125 0.90625 4.6875 0.90625q2.3125 0 4.078125 -0.6875q1.765625 -0.6875 2.625 -1.875q0.875 -1.203125 0.875 -2.625q0 -1.4375 -0.84375 -2.5q-0.828125 -1.078125 -2.734375 -1.796875q-1.234375 -0.484375 -5.4375 -1.484375q-4.203125 -1.015625 -5.890625 -1.921875q-2.1875 -1.140625 -3.265625 -2.828125q-1.078125 -1.703125 -1.078125 -3.8125q0 -2.3125 1.3125 -4.3125q1.3125 -2.015625 3.828125 -3.0625q2.53125 -1.046875 5.609375 -1.046875q3.390625 0 5.984375 1.09375q2.59375 1.09375 3.984375 3.21875q1.40625 2.125 1.515625 4.8125l-3.875 0.296875q-0.3125 -2.890625 -2.125 -4.375q-1.796875 -1.484375 -5.3125 -1.484375q-3.671875 0 -5.34375 1.34375q-1.671875 1.34375 -1.671875 3.25q0 1.640625 1.1875 2.703125q1.15625 1.0625 6.078125 2.1875q4.9375 1.109375 6.765625 1.9375q2.671875 1.234375 3.9375 3.125q1.265625 1.875 1.265625 4.328125q0 2.4375 -1.390625 4.59375q-1.390625 2.15625 -4.015625 3.359375q-2.609375 1.1875 -5.875 1.1875q-4.15625 0 -6.953125 -1.203125q-2.796875 -1.203125 -4.390625 -3.625q-1.59375 -2.4375 -1.671875 -5.5zm44.482635 2.6875l3.875 0.484375q-0.921875 3.390625 -3.40625 5.265625q-2.46875 1.875 -6.328125 1.875q-4.84375 0 -7.6875 -2.984375q-2.84375 -3.0 -2.84375 -8.390625q0 -5.578125 2.875 -8.65625q2.875 -3.09375 7.453125 -3.09375q4.4375 0 7.25 3.03125q2.8125 3.015625 2.8125 8.5q0 0.328125 -0.015625 0.984375l-16.5 0q0.203125 3.65625 2.0625 5.59375q1.859375 1.9375 4.625 1.9375q2.0625 0 3.515625 -1.078125q1.453125 -1.09375 2.3125 -3.46875zm-12.3125 -6.0625l12.359375 0q-0.25 -2.78125 -1.421875 -4.1875q-1.796875 -2.15625 -4.640625 -2.15625q-2.578125 0 -4.34375 1.734375q-1.765625 1.71875 -1.953125 4.609375zm34.989014 21.671875l0 -10.84375q-0.875 1.234375 -2.453125 2.046875q-1.5625 0.8125 -3.328125 0.8125q-3.9375 0 -6.78125 -3.140625q-2.84375 -3.15625 -2.84375 -8.625q0 -3.328125 1.15625 -5.96875q1.15625 -2.65625 3.34375 -4.015625q2.203125 -1.375 4.828125 -1.375q4.109375 0 6.453125 3.46875l0 -2.96875l3.375 0l0 30.609375l-3.75 0zm-11.546875 -19.609375q0 4.265625 1.78125 6.40625q1.796875 2.140625 4.296875 2.140625q2.390625 0 4.109375 -2.03125q1.734375 -2.03125 1.734375 -6.171875q0 -4.421875 -1.828125 -6.640625q-1.8125 -2.234375 -4.265625 -2.234375q-2.4375 0 -4.140625 2.078125q-1.6875 2.0625 -1.6875 6.453125zm35.676483 11.125l0 -3.25q-2.59375 3.75 -7.015625 3.75q-1.96875 0 -3.671875 -0.75q-1.6875 -0.75 -2.515625 -1.875q-0.8125 -1.140625 -1.15625 -2.796875q-0.21875 -1.09375 -0.21875 -3.5l0 -13.703125l3.75 0l0 12.265625q0 2.9375 0.21875 3.96875q0.359375 1.46875 1.5 2.3125q1.15625 0.84375 2.828125 0.84375q1.6875 0 3.171875 -0.859375q1.484375 -0.859375 2.09375 -2.34375q0.609375 -1.5 0.609375 -4.328125l0 -11.859375l3.75 0l0 22.125l-3.34375 0zm24.364014 -7.125l3.875 0.484375q-0.921875 3.390625 -3.40625 5.265625q-2.46875 1.875 -6.328125 1.875q-4.84375 0 -7.6875 -2.984375q-2.84375 -3.0 -2.84375 -8.390625q0 -5.578125 2.875 -8.65625q2.875 -3.09375 7.453125 -3.09375q4.4375 0 7.25 3.03125q2.8125 3.015625 2.8125 8.5q0 0.328125 -0.015625 0.984375l-16.5 0q0.203125 3.65625 2.0625 5.59375q1.859375 1.9375 4.625 1.9375q2.0625 0 3.515625 -1.078125q1.453125 -1.09375 2.3125 -3.46875zm-12.3125 -6.0625l12.359375 0q-0.25 -2.78125 -1.421875 -4.1875q-1.796875 -2.15625 -4.640625 -2.15625q-2.578125 0 -4.34375 1.734375q-1.765625 1.71875 -1.953125 4.609375zm20.895233 13.1875l0 -22.125l3.375 0l0 3.15625q2.4375 -3.65625 7.03125 -3.65625q2.0 0 3.671875 0.71875q1.6875 0.71875 2.515625 1.890625q0.84375 1.171875 1.171875 2.765625q0.203125 1.046875 0.203125 3.65625l0 13.59375l-3.75 0l0 -13.453125q0 -2.296875 -0.4375 -3.421875q-0.4375 -1.140625 -1.546875 -1.8125q-1.109375 -0.6875 -2.609375 -0.6875q-2.390625 0 -4.140625 1.53125q-1.734375 1.515625 -1.734375 5.765625l0 12.078125l-3.75 0zm38.16089 -8.109375l3.6875 0.484375q-0.609375 3.8125 -3.109375 5.96875q-2.484375 2.15625 -6.109375 2.15625q-4.53125 0 -7.296875 -2.96875q-2.75 -2.96875 -2.75 -8.5q0 -3.59375 1.1875 -6.28125q1.1875 -2.6875 3.609375 -4.03125q2.421875 -1.34375 5.28125 -1.34375q3.59375 0 5.890625 1.828125q2.296875 1.828125 2.9375 5.171875l-3.640625 0.5625q-0.53125 -2.21875 -1.859375 -3.34375q-1.3125 -1.125 -3.1875 -1.125q-2.828125 0 -4.609375 2.03125q-1.765625 2.03125 -1.765625 6.421875q0 4.453125 1.703125 6.484375q1.71875 2.015625 4.46875 2.015625q2.203125 0 3.671875 -1.359375q1.484375 -1.359375 1.890625 -4.171875zm22.03125 0.984375l3.875 0.484375q-0.921875 3.390625 -3.40625 5.265625q-2.46875 1.875 -6.328125 1.875q-4.84375 0 -7.6875 -2.984375q-2.84375 -3.0 -2.84375 -8.390625q0 -5.578125 2.875 -8.65625q2.875 -3.09375 7.453125 -3.09375q4.4375 0 7.25 3.03125q2.8125 3.015625 2.8125 8.5q0 0.328125 -0.015625 0.984375l-16.5 0q0.203125 3.65625 2.0625 5.59375q1.859375 1.9375 4.625 1.9375q2.0625 0 3.515625 -1.078125q1.453125 -1.09375 2.3125 -3.46875zm-12.3125 -6.0625l12.359375 0q-0.25 -2.78125 -1.421875 -4.1875q-1.796875 -2.15625 -4.640625 -2.15625q-2.578125 0 -4.34375 1.734375q-1.765625 1.71875 -1.953125 4.609375zm35.238953 13.1875l0 -2.796875q-2.09375 3.296875 -6.1875 3.296875q-2.640625 0 -4.859375 -1.453125q-2.21875 -1.46875 -3.4375 -4.078125q-1.21875 -2.609375 -1.21875 -6.0q0 -3.3125 1.109375 -6.015625q1.109375 -2.703125 3.3125 -4.140625q2.203125 -1.4375 4.9375 -1.4375q2.0 0 3.5625 0.84375q1.5625 0.84375 2.53125 2.203125l0 -10.953125l3.734375 0l0 30.53125l-3.484375 0zm-11.84375 -11.03125q0 4.234375 1.78125 6.34375q1.796875 2.109375 4.234375 2.109375q2.453125 0 4.171875 -2.015625q1.71875 -2.015625 1.71875 -6.125q0 -4.546875 -1.75 -6.671875q-1.75 -2.125 -4.3125 -2.125q-2.484375 0 -4.171875 2.046875q-1.671875 2.03125 -1.671875 6.4375z" fill-rule="nonzero"/><path fill="#000000" d="m380.80975 253.51671l4.046875 1.015625q-1.28125 4.9843903 -4.578125 7.5937653q-3.296875 2.609375 -8.078125 2.609375q-4.9375 0 -8.03125 -2.0q-3.078125 -2.015625 -4.703125 -5.828125q-1.609375 -3.8125153 -1.609375 -8.187515q0 -4.765625 1.8125 -8.3125q1.828125 -3.5625 5.1875 -5.40625q3.375 -1.84375 7.40625 -1.84375q4.59375 0 7.71875 2.34375q3.125 2.328125 4.34375 6.5625l-3.96875 0.9375q-1.0625 -3.34375 -3.09375 -4.859375q-2.015625 -1.515625 -5.078125 -1.515625q-3.515625 0 -5.890625 1.6875q-2.359375 1.6875 -3.3125 4.53125q-0.953125 2.84375 -0.953125 5.859375q0 3.890625 1.125 6.796875q1.140625 2.9062653 3.53125 4.3437653q2.390625 1.4375 5.1875 1.4375q3.390625 0 5.75 -1.953125q2.359375 -1.96875 3.1875 -5.8125153zm7.148712 -0.359375q0 -6.140625 3.40625 -9.09375q2.859375 -2.46875 6.953125 -2.46875q4.5625 0 7.453125 3.0q2.90625 2.984375 2.90625 8.25q0 4.2656403 -1.28125 6.7187653q-1.28125 2.453125 -3.734375 3.8125q-2.4375 1.34375 -5.34375 1.34375q-4.640625 0 -7.5 -2.96875q-2.859375 -2.984375 -2.859375 -8.593765zm3.84375 0q0 4.2500153 1.859375 6.3750153q1.859375 2.109375 4.65625 2.109375q2.796875 0 4.640625 -2.125q1.859375 -2.125 1.859375 -6.4843903q0 -4.09375 -1.859375 -6.203125q-1.859375 -2.125 -4.640625 -2.125q-2.796875 0 -4.65625 2.109375q-1.859375 2.09375 -1.859375 6.34375zm21.192139 11.062515l0 -30.531265l3.75 0l0 30.531265l-3.75 0zm9.476837 0l0 -30.531265l3.75 0l0 30.531265l-3.75 0zm24.695618 -7.125l3.875 0.484375q-0.921875 3.390625 -3.40625 5.265625q-2.46875 1.875 -6.328125 1.875q-4.84375 0 -7.6875 -2.984375q-2.84375 -3.0 -2.84375 -8.39064q0 -5.578125 2.875 -8.65625q2.875 -3.09375 7.453125 -3.09375q4.4375 0 7.25 3.03125q2.8125 3.015625 2.8125 8.5q0 0.328125 -0.015625 0.984375l-16.5 0q0.203125 3.6562653 2.0625 5.5937653q1.859375 1.9375 4.625 1.9375q2.0625 0 3.515625 -1.078125q1.453125 -1.09375 2.3125 -3.46875zm-12.3125 -6.0625153l12.359375 0q-0.25 -2.78125 -1.421875 -4.1875q-1.796875 -2.15625 -4.640625 -2.15625q-2.578125 0 -4.34375 1.734375q-1.765625 1.71875 -1.953125 4.609375zm35.332733 5.0781403l3.6875 0.484375q-0.609375 3.8125 -3.109375 5.96875q-2.484375 2.15625 -6.109375 2.15625q-4.53125 0 -7.296875 -2.96875q-2.75 -2.96875 -2.75 -8.500015q0 -3.59375 1.1875 -6.28125q1.1875 -2.6875 3.609375 -4.03125q2.421875 -1.34375 5.28125 -1.34375q3.59375 0 5.890625 1.828125q2.296875 1.828125 2.9375 5.171875l-3.640625 0.5625q-0.53125 -2.21875 -1.859375 -3.34375q-1.3125 -1.125 -3.1875 -1.125q-2.828125 0 -4.609375 2.03125q-1.765625 2.03125 -1.765625 6.421875q0 4.4531403 1.703125 6.4843903q1.71875 2.015625 4.46875 2.015625q2.203125 0 3.671875 -1.359375q1.484375 -1.359375 1.890625 -4.171875zm15.078125 4.75l0.53125 3.3125q-1.578125 0.34375 -2.828125 0.34375q-2.03125 0 -3.15625 -0.640625q-1.125 -0.65625 -1.59375 -1.703125q-0.453125 -1.0625 -0.453125 -4.4375l0 -12.718765l-2.75 0l0 -2.921875l2.75 0l0 -5.46875l3.734375 -2.25l0 7.71875l3.765625 0l0 2.921875l-3.765625 0l0 12.937515q0 1.59375 0.1875 2.0625q0.203125 0.453125 0.640625 0.734375q0.453125 0.265625 1.296875 0.265625q0.625 0 1.640625 -0.15625zm3.6794128 -22.85939l0 -4.3125l3.75 0l0 4.3125l-3.75 0zm0 26.218765l0 -22.125015l3.75 0l0 22.125015l-3.75 0zm8.070587 -11.062515q0 -6.140625 3.40625 -9.09375q2.859375 -2.46875 6.953125 -2.46875q4.5625 0 7.4530945 3.0q2.90625 2.984375 2.90625 8.25q0 4.2656403 -1.28125 6.7187653q-1.28125 2.453125 -3.734375 3.8125q-2.4374695 1.34375 -5.3437195 1.34375q-4.640625 0 -7.5 -2.96875q-2.859375 -2.984375 -2.859375 -8.593765zm3.84375 0q0 4.2500153 1.859375 6.3750153q1.859375 2.109375 4.65625 2.109375q2.796875 0 4.6405945 -2.125q1.859375 -2.125 1.859375 -6.4843903q0 -4.09375 -1.859375 -6.203125q-1.8593445 -2.125 -4.6405945 -2.125q-2.796875 0 -4.65625 2.109375q-1.859375 2.09375 -1.859375 6.34375zm21.270233 11.062515l0 -22.125015l3.375 0l0 3.15625q2.4375 -3.65625 7.03125 -3.65625q2.0 0 3.671875 0.71875q1.6875 0.71875 2.515625 1.890625q0.84375 1.171875 1.171875 2.765625q0.203125 1.046875 0.203125 3.65625l0 13.593765l-3.75 0l0 -13.45314q0 -2.296875 -0.4375 -3.421875q-0.4375 -1.140625 -1.546875 -1.8125q-1.109375 -0.6875 -2.609375 -0.6875q-2.390625 0 -4.140625 1.53125q-1.734375 1.515625 -1.734375 5.765625l0 12.07814l-3.75 0z" fill-rule="nonzero"/><path fill="#cfe2f3" d="m9.385827 175.08661l238.61417 0l0 96.0l-238.61417 0z" fill-rule="evenodd"/><path stroke="#000000" stroke-width="1.0" stroke-linejoin="round" stroke-linecap="butt" d="m9.385827 175.08661l238.61417 0l0 96.0l-238.61417 0z" fill-rule="evenodd"/><path fill="#000000" d="m60.11682 227.84349l4.046875 1.015625q-1.28125 4.984375 -4.578125 7.59375q-3.296875 2.609375 -8.078125 2.609375q-4.9375 0 -8.03125 -2.0q-3.078125 -2.015625 -4.703125 -5.828125q-1.609375 -3.8125 -1.609375 -8.1875q0 -4.765625 1.8125 -8.3125q1.828125 -3.5625 5.1875 -5.40625q3.375 -1.84375 7.40625 -1.84375q4.59375 0 7.71875 2.34375q3.125 2.328125 4.34375 6.5625l-3.96875 0.9375q-1.0625 -3.34375 -3.09375 -4.859375q-2.015625 -1.515625 -5.078125 -1.515625q-3.515625 0 -5.890625 1.6875q-2.359375 1.6875 -3.3125 4.53125q-0.953125 2.84375 -0.953125 5.859375q0 3.890625 1.125 6.796875q1.140625 2.90625 3.53125 4.34375q2.390625 1.4375 5.1875 1.4375q3.390625 0 5.75 -1.953125q2.359375 -1.96875 3.1875 -5.8125zm7.1487274 -0.359375q0 -6.140625 3.40625 -9.09375q2.859375 -2.46875 6.953125 -2.46875q4.5625 0 7.453125 3.0q2.90625 2.984375 2.90625 8.25q0 4.265625 -1.28125 6.71875q-1.28125 2.453125 -3.734375 3.8125q-2.4375 1.34375 -5.34375 1.34375q-4.640625 0 -7.5 -2.96875q-2.859375 -2.984375 -2.859375 -8.59375zm3.84375 0q0 4.25 1.859375 6.375q1.859375 2.109375 4.65625 2.109375q2.796875 0 4.640625 -2.125q1.859375 -2.125 1.859375 -6.484375q0 -4.09375 -1.859375 -6.203125q-1.859375 -2.125 -4.640625 -2.125q-2.796875 0 -4.65625 2.109375q-1.859375 2.09375 -1.859375 6.34375zm21.192123 11.0625l0 -30.53125l3.75 0l0 30.53125l-3.75 0zm9.476852 0l0 -30.53125l3.75 0l0 30.53125l-3.75 0zm24.695602 -7.125l3.875 0.484375q-0.921875 3.390625 -3.40625 5.265625q-2.46875 1.875 -6.328125 1.875q-4.84375 0 -7.6875 -2.984375q-2.84375 -3.0 -2.84375 -8.390625q0 -5.578125 2.875 -8.65625q2.875 -3.09375 7.453125 -3.09375q4.4375 0 7.25 3.03125q2.8125 3.015625 2.8125 8.5q0 0.328125 -0.015625 0.984375l-16.5 0q0.203125 3.65625 2.0625 5.59375q1.859375 1.9375 4.625 1.9375q2.0625 0 3.515625 -1.078125q1.453125 -1.09375 2.3125 -3.46875zm-12.3125 -6.0625l12.359375 0q-0.25 -2.78125 -1.421875 -4.1875q-1.796875 -2.15625 -4.640625 -2.15625q-2.578125 0 -4.34375 1.734375q-1.765625 1.71875 -1.953125 4.609375zm35.332764 5.078125l3.6875 0.484375q-0.609375 3.8125 -3.109375 5.96875q-2.484375 2.15625 -6.109375 2.15625q-4.53125 0 -7.2968903 -2.96875q-2.75 -2.96875 -2.75 -8.5q0 -3.59375 1.1875 -6.28125q1.1875 -2.6875 3.6093903 -4.03125q2.421875 -1.34375 5.28125 -1.34375q3.59375 0 5.890625 1.828125q2.296875 1.828125 2.9375 5.171875l-3.640625 0.5625q-0.53125 -2.21875 -1.859375 -3.34375q-1.3125 -1.125 -3.1875 -1.125q-2.828125 0 -4.609375 2.03125q-1.765625 2.03125 -1.765625 6.421875q0 4.453125 1.703125 6.484375q1.71875 2.015625 4.46875 2.015625q2.203125 0 3.671875 -1.359375q1.484375 -1.359375 1.890625 -4.171875zm15.078125 4.75l0.53125 3.3125q-1.578125 0.34375 -2.828125 0.34375q-2.03125 0 -3.15625 -0.640625q-1.125 -0.65625 -1.59375 -1.703125q-0.453125 -1.0625 -0.453125 -4.4375l0 -12.71875l-2.75 0l0 -2.921875l2.75 0l0 -5.46875l3.734375 -2.25l0 7.71875l3.765625 0l0 2.921875l-3.765625 0l0 12.9375q0 1.59375 0.1875 2.0625q0.203125 0.453125 0.640625 0.734375q0.453125 0.265625 1.296875 0.265625q0.625 0 1.640625 -0.15625zm3.6793823 -22.859375l0 -4.3125l3.75 0l0 4.3125l-3.75 0zm0 26.21875l0 -22.125l3.75 0l0 22.125l-3.75 0zm8.070618 -11.0625q0 -6.140625 3.40625 -9.09375q2.859375 -2.46875 6.953125 -2.46875q4.5625 0 7.453125 3.0q2.90625 2.984375 2.90625 8.25q0 4.265625 -1.28125 6.71875q-1.28125 2.453125 -3.734375 3.8125q-2.4375 1.34375 -5.34375 1.34375q-4.640625 0 -7.5 -2.96875q-2.859375 -2.984375 -2.859375 -8.59375zm3.84375 0q0 4.25 1.859375 6.375q1.859375 2.109375 4.65625 2.109375q2.796875 0 4.640625 -2.125q1.859375 -2.125 1.859375 -6.484375q0 -4.09375 -1.859375 -6.203125q-1.859375 -2.125 -4.640625 -2.125q-2.796875 0 -4.65625 2.109375q-1.859375 2.09375 -1.859375 6.34375zm21.270233 11.0625l0 -22.125l3.375 0l0 3.15625q2.4375 -3.65625 7.03125 -3.65625q2.0 0 3.671875 0.71875q1.6875 0.71875 2.515625 1.890625q0.84375 1.171875 1.171875 2.765625q0.203125 1.046875 0.203125 3.65625l0 13.59375l-3.75 0l0 -13.453125q0 -2.296875 -0.4375 -3.421875q-0.4375 -1.140625 -1.546875 -1.8125q-1.109375 -0.6875 -2.609375 -0.6875q-2.390625 0 -4.140625 1.53125q-1.734375 1.515625 -1.734375 5.765625l0 12.078125l-3.75 0z" fill-rule="nonzero"/><path fill="#fce5cd" d="m9.385827 335.0866l238.61417 0l0 96.0l-238.61417 0z" fill-rule="evenodd"/><path stroke="#000000" stroke-width="1.0" stroke-linejoin="round" stroke-linecap="butt" d="m9.385827 335.0866l238.61417 0l0 96.0l-238.61417 0z" fill-rule="evenodd"/><path fill="#000000" d="m50.399513 373.0466l11.71875 -30.53125l4.359375 0l12.5 30.53125l-4.609375 0l-3.5625 -9.25l-12.765625 0l-3.34375 9.25l-4.296875 0zm8.8125 -12.53125l10.34375 0l-3.1875 -8.46875q-1.453125 -3.84375 -2.15625 -6.328125q-0.59375 2.9375 -1.65625 5.828125l-3.34375 8.96875zm25.96701 12.53125l-3.46875 0l0 -30.53125l3.75 0l0 10.890625q2.375 -2.984375 6.046875 -2.984375q2.046875 0 3.859375 0.828125q1.828125 0.828125 3.0 2.3125q1.1875 1.484375 1.84375 3.59375q0.671875 2.109375 0.671875 4.5q0 5.6875 -2.8125 8.796875q-2.8125 3.09375 -6.75 3.09375q-3.90625 0 -6.140625 -3.265625l0 2.765625zm-0.03125 -11.21875q0 3.96875 1.078125 5.734375q1.765625 2.90625 4.78125 2.90625q2.46875 0 4.25 -2.140625q1.796875 -2.140625 1.796875 -6.359375q0 -4.328125 -1.71875 -6.390625q-1.71875 -2.0625 -4.15625 -2.0625q-2.453125 0 -4.25 2.140625q-1.78125 2.125 -1.78125 6.171875zm18.801498 4.609375l3.703125 -0.578125q0.3125 2.234375 1.734375 3.421875q1.4375 1.1875 4.0 1.1875q2.578125 0 3.828125 -1.046875q1.25 -1.0625 1.25 -2.484375q0 -1.265625 -1.109375 -2.0q-0.765625 -0.5 -3.828125 -1.265625q-4.125 -1.046875 -5.71875 -1.796875q-1.59375 -0.765625 -2.421875 -2.109375q-0.8125 -1.34375 -0.8125 -2.96875q0 -1.46875 0.671875 -2.734375q0.6875 -1.265625 1.84375 -2.09375q0.875 -0.640625 2.390625 -1.09375q1.515625 -0.453125 3.234375 -0.453125q2.609375 0 4.578125 0.75q1.96875 0.75 2.90625 2.03125q0.9375 1.28125 1.28125 3.4375l-3.65625 0.5q-0.25 -1.71875 -1.453125 -2.671875q-1.203125 -0.953125 -3.375 -0.953125q-2.59375 0 -3.703125 0.859375q-1.09375 0.84375 -1.09375 1.984375q0 0.734375 0.453125 1.3125q0.46875 0.609375 1.4375 1.0q0.5625 0.21875 3.3125 0.96875q3.984375 1.0625 5.546875 1.734375q1.578125 0.671875 2.46875 1.96875q0.90625 1.28125 0.90625 3.203125q0 1.875 -1.09375 3.53125q-1.09375 1.65625 -3.15625 2.5625q-2.0625 0.90625 -4.671875 0.90625q-4.3125 0 -6.578125 -1.78125q-2.25 -1.796875 -2.875 -5.328125zm31.015633 3.25l0.53125 3.3125q-1.578125 0.34375 -2.828125 0.34375q-2.03125 0 -3.15625 -0.640625q-1.125 -0.65625 -1.5937576 -1.703125q-0.453125 -1.0625 -0.453125 -4.4375l0 -12.71875l-2.75 0l0 -2.921875l2.75 0l0 -5.46875l3.7343826 -2.25l0 7.71875l3.765625 0l0 2.921875l-3.765625 0l0 12.9375q0 1.59375 0.1875 2.0625q0.203125 0.453125 0.640625 0.734375q0.453125 0.265625 1.296875 0.265625q0.625 0 1.640625 -0.15625zm3.6168976 3.359375l0 -22.125l3.375 0l0 3.359375q1.296875 -2.359375 2.390625 -3.109375q1.09375 -0.75 2.40625 -0.75q1.890625 0 3.84375 1.21875l-1.28125 3.46875q-1.375 -0.8125 -2.75 -0.8125q-1.234375 0 -2.21875 0.75q-0.96875 0.734375 -1.390625 2.046875q-0.625 2.0 -0.625 4.375l0 11.578125l-3.75 0zm28.68924 -2.734375q-2.09375 1.78125 -4.015625 2.515625q-1.921875 0.71875 -4.125 0.71875q-3.65625 0 -5.609375 -1.78125q-1.953125 -1.78125 -1.953125 -4.546875q0 -1.625 0.734375 -2.96875q0.734375 -1.34375 1.9375 -2.15625q1.203125 -0.8125 2.703125 -1.234375q1.09375 -0.28125 3.328125 -0.5625q4.53125 -0.53125 6.6875 -1.28125q0.015625 -0.78125 0.015625 -0.984375q0 -2.296875 -1.0625 -3.234375q-1.4375 -1.265625 -4.265625 -1.265625q-2.640625 0 -3.90625 0.9375q-1.265625 0.921875 -1.859375 3.265625l-3.671875 -0.5q0.5 -2.34375 1.640625 -3.796875q1.15625 -1.453125 3.3125 -2.234375q2.171875 -0.78125 5.015625 -0.78125q2.84375 0 4.609375 0.671875q1.765625 0.671875 2.59375 1.6875q0.84375 1.0 1.171875 2.546875q0.1875 0.953125 0.1875 3.453125l0 5.0q0 5.21875 0.234375 6.609375q0.25 1.390625 0.953125 2.65625l-3.90625 0q-0.59375 -1.171875 -0.75 -2.734375zm-0.3125 -8.359375q-2.046875 0.828125 -6.125 1.40625q-2.3125 0.328125 -3.28125 0.75q-0.953125 0.421875 -1.46875 1.21875q-0.515625 0.796875 -0.515625 1.78125q0 1.5 1.125 2.5q1.140625 1.0 3.328125 1.0q2.15625 0 3.84375 -0.9375q1.6875 -0.953125 2.484375 -2.609375q0.609375 -1.265625 0.609375 -3.75l0 -1.359375zm24.035873 2.984375l3.6875 0.484375q-0.609375 3.8125 -3.109375 5.96875q-2.484375 2.15625 -6.109375 2.15625q-4.53125 0 -7.296875 -2.96875q-2.75 -2.96875 -2.75 -8.5q0 -3.59375 1.1875 -6.28125q1.1875 -2.6875 3.609375 -4.03125q2.421875 -1.34375 5.28125 -1.34375q3.59375 0 5.890625 1.828125q2.296875 1.828125 2.9375 5.171875l-3.640625 0.5625q-0.53125 -2.21875 -1.859375 -3.34375q-1.3125 -1.125 -3.1875 -1.125q-2.828125 0 -4.609375 2.03125q-1.765625 2.03125 -1.765625 6.421875q0 4.453125 1.703125 6.484375q1.71875 2.015625 4.46875 2.015625q2.203125 0 3.671875 -1.359375q1.484375 -1.359375 1.890625 -4.171875zm15.078125 4.75l0.53125 3.3125q-1.578125 0.34375 -2.828125 0.34375q-2.03125 0 -3.15625 -0.640625q-1.125 -0.65625 -1.59375 -1.703125q-0.453125 -1.0625 -0.453125 -4.4375l0 -12.71875l-2.75 0l0 -2.921875l2.75 0l0 -5.46875l3.734375 -2.25l0 7.71875l3.765625 0l0 2.921875l-3.765625 0l0 12.9375q0 1.59375 0.1875 2.0625q0.203125 0.453125 0.640625 0.734375q0.453125 0.265625 1.296875 0.265625q0.625 0 1.640625 -0.15625z" fill-rule="nonzero"/><path fill="#000000" d="m60.11682 413.34348l4.046875 1.015625q-1.28125 4.984375 -4.578125 7.59375q-3.296875 2.609375 -8.078125 2.609375q-4.9375 0 -8.03125 -2.0q-3.078125 -2.015625 -4.703125 -5.828125q-1.609375 -3.8125 -1.609375 -8.1875q0 -4.765625 1.8125 -8.3125q1.828125 -3.5625 5.1875 -5.40625q3.375 -1.84375 7.40625 -1.84375q4.59375 0 7.71875 2.34375q3.125 2.328125 4.34375 6.5625l-3.96875 0.9375q-1.0625 -3.34375 -3.09375 -4.859375q-2.015625 -1.515625 -5.078125 -1.515625q-3.515625 0 -5.890625 1.6875q-2.359375 1.6875 -3.3125 4.53125q-0.953125 2.84375 -0.953125 5.859375q0 3.890625 1.125 6.796875q1.140625 2.90625 3.53125 4.34375q2.390625 1.4375 5.1875 1.4375q3.390625 0 5.75 -1.953125q2.359375 -1.96875 3.1875 -5.8125zm7.1487274 -0.359375q0 -6.140625 3.40625 -9.09375q2.859375 -2.46875 6.953125 -2.46875q4.5625 0 7.453125 3.0q2.90625 2.984375 2.90625 8.25q0 4.265625 -1.28125 6.71875q-1.28125 2.453125 -3.734375 3.8125q-2.4375 1.34375 -5.34375 1.34375q-4.640625 0 -7.5 -2.96875q-2.859375 -2.984375 -2.859375 -8.59375zm3.84375 0q0 4.25 1.859375 6.375q1.859375 2.109375 4.65625 2.109375q2.796875 0 4.640625 -2.125q1.859375 -2.125 1.859375 -6.484375q0 -4.09375 -1.859375 -6.203125q-1.859375 -2.125 -4.640625 -2.125q-2.796875 0 -4.65625 2.109375q-1.859375 2.09375 -1.859375 6.34375zm21.192123 11.0625l0 -30.53125l3.75 0l0 30.53125l-3.75 0zm9.476852 0l0 -30.53125l3.75 0l0 30.53125l-3.75 0zm24.695602 -7.125l3.875 0.484375q-0.921875 3.390625 -3.40625 5.265625q-2.46875 1.875 -6.328125 1.875q-4.84375 0 -7.6875 -2.984375q-2.84375 -3.0 -2.84375 -8.390625q0 -5.578125 2.875 -8.65625q2.875 -3.09375 7.453125 -3.09375q4.4375 0 7.25 3.03125q2.8125 3.015625 2.8125 8.5q0 0.328125 -0.015625 0.984375l-16.5 0q0.203125 3.65625 2.0625 5.59375q1.859375 1.9375 4.625 1.9375q2.0625 0 3.515625 -1.078125q1.453125 -1.09375 2.3125 -3.46875zm-12.3125 -6.0625l12.359375 0q-0.25 -2.78125 -1.421875 -4.1875q-1.796875 -2.15625 -4.640625 -2.15625q-2.578125 0 -4.34375 1.734375q-1.765625 1.71875 -1.953125 4.609375zm35.332764 5.078125l3.6875 0.484375q-0.609375 3.8125 -3.109375 5.96875q-2.484375 2.15625 -6.109375 2.15625q-4.53125 0 -7.2968903 -2.96875q-2.75 -2.96875 -2.75 -8.5q0 -3.59375 1.1875 -6.28125q1.1875 -2.6875 3.6093903 -4.03125q2.421875 -1.34375 5.28125 -1.34375q3.59375 0 5.890625 1.828125q2.296875 1.828125 2.9375 5.171875l-3.640625 0.5625q-0.53125 -2.21875 -1.859375 -3.34375q-1.3125 -1.125 -3.1875 -1.125q-2.828125 0 -4.609375 2.03125q-1.765625 2.03125 -1.765625 6.421875q0 4.453125 1.703125 6.484375q1.71875 2.015625 4.46875 2.015625q2.203125 0 3.671875 -1.359375q1.484375 -1.359375 1.890625 -4.171875zm15.078125 4.75l0.53125 3.3125q-1.578125 0.34375 -2.828125 0.34375q-2.03125 0 -3.15625 -0.640625q-1.125 -0.65625 -1.59375 -1.703125q-0.453125 -1.0625 -0.453125 -4.4375l0 -12.71875l-2.75 0l0 -2.921875l2.75 0l0 -5.46875l3.734375 -2.25l0 7.71875l3.765625 0l0 2.921875l-3.765625 0l0 12.9375q0 1.59375 0.1875 2.0625q0.203125 0.453125 0.640625 0.734375q0.453125 0.265625 1.296875 0.265625q0.625 0 1.640625 -0.15625zm3.6793823 -22.859375l0 -4.3125l3.75 0l0 4.3125l-3.75 0zm0 26.21875l0 -22.125l3.75 0l0 22.125l-3.75 0zm8.070618 -11.0625q0 -6.140625 3.40625 -9.09375q2.859375 -2.46875 6.953125 -2.46875q4.5625 0 7.453125 3.0q2.90625 2.984375 2.90625 8.25q0 4.265625 -1.28125 6.71875q-1.28125 2.453125 -3.734375 3.8125q-2.4375 1.34375 -5.34375 1.34375q-4.640625 0 -7.5 -2.96875q-2.859375 -2.984375 -2.859375 -8.59375zm3.84375 0q0 4.25 1.859375 6.375q1.859375 2.109375 4.65625 2.109375q2.796875 0 4.640625 -2.125q1.859375 -2.125 1.859375 -6.484375q0 -4.09375 -1.859375 -6.203125q-1.859375 -2.125 -4.640625 -2.125q-2.796875 0 -4.65625 2.109375q-1.859375 2.09375 -1.859375 6.34375zm21.270233 11.0625l0 -22.125l3.375 0l0 3.15625q2.4375 -3.65625 7.03125 -3.65625q2.0 0 3.671875 0.71875q1.6875 0.71875 2.515625 1.890625q0.84375 1.171875 1.171875 2.765625q0.203125 1.046875 0.203125 3.65625l0 13.59375l-3.75 0l0 -13.453125q0 -2.296875 -0.4375 -3.421875q-0.4375 -1.140625 -1.546875 -1.8125q-1.109375 -0.6875 -2.609375 -0.6875q-2.390625 0 -4.140625 1.53125q-1.734375 1.515625 -1.734375 5.765625l0 12.078125l-3.75 0z" fill-rule="nonzero"/><path fill="#fce5cd" d="m650.77167 335.0866l238.61414 0l0 96.0l-238.61414 0z" fill-rule="evenodd"/><path stroke="#000000" stroke-width="1.0" stroke-linejoin="round" stroke-linecap="butt" d="m650.77167 335.0866l238.61414 0l0 96.0l-238.61414 0z" fill-rule="evenodd"/><path fill="#000000" d="m691.78534 373.0466l11.71875 -30.53125l4.359375 0l12.5 30.53125l-4.609375 0l-3.5625 -9.25l-12.765625 0l-3.34375 9.25l-4.296875 0zm8.8125 -12.53125l10.34375 0l-3.1875 -8.46875q-1.453125 -3.84375 -2.15625 -6.328125q-0.59375 2.9375 -1.65625 5.828125l-3.34375 8.96875zm25.967041 12.53125l-3.46875 0l0 -30.53125l3.75 0l0 10.890625q2.375 -2.984375 6.046875 -2.984375q2.046875 0 3.859375 0.828125q1.828125 0.828125 3.0 2.3125q1.1875 1.484375 1.84375 3.59375q0.671875 2.109375 0.671875 4.5q0 5.6875 -2.8125 8.796875q-2.8125 3.09375 -6.75 3.09375q-3.90625 0 -6.140625 -3.265625l0 2.765625zm-0.03125 -11.21875q0 3.96875 1.078125 5.734375q1.765625 2.90625 4.78125 2.90625q2.46875 0 4.25 -2.140625q1.796875 -2.140625 1.796875 -6.359375q0 -4.328125 -1.71875 -6.390625q-1.71875 -2.0625 -4.15625 -2.0625q-2.453125 0 -4.25 2.140625q-1.78125 2.125 -1.78125 6.171875zm18.801453 4.609375l3.703125 -0.578125q0.3125 2.234375 1.734375 3.421875q1.4375 1.1875 4.0 1.1875q2.578125 0 3.828125 -1.046875q1.25 -1.0625 1.25 -2.484375q0 -1.265625 -1.109375 -2.0q-0.765625 -0.5 -3.828125 -1.265625q-4.125 -1.046875 -5.71875 -1.796875q-1.59375 -0.765625 -2.421875 -2.109375q-0.8125 -1.34375 -0.8125 -2.96875q0 -1.46875 0.671875 -2.734375q0.6875 -1.265625 1.84375 -2.09375q0.875 -0.640625 2.390625 -1.09375q1.515625 -0.453125 3.234375 -0.453125q2.609375 0 4.578125 0.75q1.96875 0.75 2.90625 2.03125q0.9375 1.28125 1.28125 3.4375l-3.65625 0.5q-0.25 -1.71875 -1.453125 -2.671875q-1.203125 -0.953125 -3.375 -0.953125q-2.59375 0 -3.703125 0.859375q-1.09375 0.84375 -1.09375 1.984375q0 0.734375 0.453125 1.3125q0.46875 0.609375 1.4375 1.0q0.5625 0.21875 3.3125 0.96875q3.984375 1.0625 5.546875 1.734375q1.578125 0.671875 2.46875 1.96875q0.90625 1.28125 0.90625 3.203125q0 1.875 -1.09375 3.53125q-1.09375 1.65625 -3.15625 2.5625q-2.0625 0.90625 -4.671875 0.90625q-4.3125 0 -6.578125 -1.78125q-2.25 -1.796875 -2.875 -5.328125zm31.015625 3.25l0.53125 3.3125q-1.578125 0.34375 -2.828125 0.34375q-2.03125 0 -3.15625 -0.640625q-1.125 -0.65625 -1.59375 -1.703125q-0.453125 -1.0625 -0.453125 -4.4375l0 -12.71875l-2.75 0l0 -2.921875l2.75 0l0 -5.46875l3.734375 -2.25l0 7.71875l3.765625 0l0 2.921875l-3.765625 0l0 12.9375q0 1.59375 0.1875 2.0625q0.203125 0.453125 0.640625 0.734375q0.453125 0.265625 1.296875 0.265625q0.625 0 1.640625 -0.15625zm3.6169434 3.359375l0 -22.125l3.375 0l0 3.359375q1.296875 -2.359375 2.390625 -3.109375q1.09375 -0.75 2.40625 -0.75q1.890625 0 3.84375 1.21875l-1.28125 3.46875q-1.375 -0.8125 -2.75 -0.8125q-1.234375 0 -2.21875 0.75q-0.96875 0.734375 -1.390625 2.046875q-0.625 2.0 -0.625 4.375l0 11.578125l-3.75 0zm28.689209 -2.734375q-2.09375 1.78125 -4.015625 2.515625q-1.921875 0.71875 -4.125 0.71875q-3.65625 0 -5.609375 -1.78125q-1.953125 -1.78125 -1.953125 -4.546875q0 -1.625 0.734375 -2.96875q0.734375 -1.34375 1.9375 -2.15625q1.203125 -0.8125 2.703125 -1.234375q1.09375 -0.28125 3.328125 -0.5625q4.53125 -0.53125 6.6875 -1.28125q0.015625 -0.78125 0.015625 -0.984375q0 -2.296875 -1.0625 -3.234375q-1.4375 -1.265625 -4.265625 -1.265625q-2.640625 0 -3.90625 0.9375q-1.265625 0.921875 -1.859375 3.265625l-3.671875 -0.5q0.5 -2.34375 1.640625 -3.796875q1.15625 -1.453125 3.3125 -2.234375q2.171875 -0.78125 5.015625 -0.78125q2.84375 0 4.609375 0.671875q1.765625 0.671875 2.59375 1.6875q0.84375 1.0 1.171875 2.546875q0.1875 0.953125 0.1875 3.453125l0 5.0q0 5.21875 0.234375 6.609375q0.25 1.390625 0.953125 2.65625l-3.90625 0q-0.59375 -1.171875 -0.75 -2.734375zm-0.3125 -8.359375q-2.046875 0.828125 -6.125 1.40625q-2.3125 0.328125 -3.28125 0.75q-0.953125 0.421875 -1.46875 1.21875q-0.515625 0.796875 -0.515625 1.78125q0 1.5 1.125 2.5q1.140625 1.0 3.328125 1.0q2.15625 0 3.84375 -0.9375q1.6875 -0.953125 2.484375 -2.609375q0.609375 -1.265625 0.609375 -3.75l0 -1.359375zm24.035889 2.984375l3.6875 0.484375q-0.609375 3.8125 -3.109375 5.96875q-2.484375 2.15625 -6.109375 2.15625q-4.53125 0 -7.296875 -2.96875q-2.75 -2.96875 -2.75 -8.5q0 -3.59375 1.1875 -6.28125q1.1875 -2.6875 3.609375 -4.03125q2.421875 -1.34375 5.28125 -1.34375q3.59375 0 5.890625 1.828125q2.296875 1.828125 2.9375 5.171875l-3.640625 0.5625q-0.53125 -2.21875 -1.859375 -3.34375q-1.3125 -1.125 -3.1875 -1.125q-2.828125 0 -4.609375 2.03125q-1.765625 2.03125 -1.765625 6.421875q0 4.453125 1.703125 6.484375q1.71875 2.015625 4.46875 2.015625q2.203125 0 3.671875 -1.359375q1.484375 -1.359375 1.890625 -4.171875zm15.078125 4.75l0.53125 3.3125q-1.578125 0.34375 -2.828125 0.34375q-2.03125 0 -3.15625 -0.640625q-1.125 -0.65625 -1.59375 -1.703125q-0.453125 -1.0625 -0.453125 -4.4375l0 -12.71875l-2.75 0l0 -2.921875l2.75 0l0 -5.46875l3.734375 -2.25l0 7.71875l3.765625 0l0 2.921875l-3.765625 0l0 12.9375q0 1.59375 0.1875 2.0625q0.203125 0.453125 0.640625 0.734375q0.453125 0.265625 1.296875 0.265625q0.625 0 1.640625 -0.15625z" fill-rule="nonzero"/><path fill="#000000" d="m740.0139 424.0466l0 -30.53125l4.046875 0l0 26.921875l15.03125 0l0 3.609375l-19.078125 0zm23.426514 -26.21875l0 -4.3125l3.75 0l0 4.3125l-3.75 0zm0 26.21875l0 -22.125l3.75 0l0 22.125l-3.75 0zm7.9612427 -6.609375l3.703125 -0.578125q0.3125 2.234375 1.734375 3.421875q1.4375 1.1875 4.0 1.1875q2.578125 0 3.828125 -1.046875q1.25 -1.0625 1.25 -2.484375q0 -1.265625 -1.109375 -2.0q-0.765625 -0.5 -3.828125 -1.265625q-4.125 -1.046875 -5.71875 -1.796875q-1.59375 -0.765625 -2.421875 -2.109375q-0.8125 -1.34375 -0.8125 -2.96875q0 -1.46875 0.671875 -2.734375q0.6875 -1.265625 1.84375 -2.09375q0.875 -0.640625 2.390625 -1.09375q1.515625 -0.453125 3.234375 -0.453125q2.609375 0 4.578125 0.75q1.96875 0.75 2.90625 2.03125q0.9375 1.28125 1.28125 3.4375l-3.65625 0.5q-0.25 -1.71875 -1.453125 -2.671875q-1.203125 -0.953125 -3.375 -0.953125q-2.59375 0 -3.703125 0.859375q-1.09375 0.84375 -1.09375 1.984375q0 0.734375 0.453125 1.3125q0.46875 0.609375 1.4375 1.0q0.5625 0.21875 3.3125 0.96875q3.984375 1.0625 5.546875 1.734375q1.578125 0.671875 2.46875 1.96875q0.90625 1.28125 0.90625 3.203125q0 1.875 -1.09375 3.53125q-1.09375 1.65625 -3.15625 2.5625q-2.0625 0.90625 -4.671875 0.90625q-4.3125 0 -6.578125 -1.78125q-2.25 -1.796875 -2.875 -5.328125zm31.015625 3.25l0.53125 3.3125q-1.578125 0.34375 -2.828125 0.34375q-2.03125 0 -3.15625 -0.640625q-1.125 -0.65625 -1.59375 -1.703125q-0.453125 -1.0625 -0.453125 -4.4375l0 -12.71875l-2.75 0l0 -2.921875l2.75 0l0 -5.46875l3.734375 -2.25l0 7.71875l3.765625 0l0 2.921875l-3.765625 0l0 12.9375q0 1.59375 0.1875 2.0625q0.203125 0.453125 0.640625 0.734375q0.453125 0.265625 1.296875 0.265625q0.625 0 1.640625 -0.15625z" fill-rule="nonzero"/><path fill="#cfe2f3" d="m650.77167 176.0l238.61414 0l0 96.0l-238.61414 0z" fill-rule="evenodd"/><path stroke="#000000" stroke-width="1.0" stroke-linejoin="round" stroke-linecap="butt" d="m650.77167 176.0l238.61414 0l0 96.0l-238.61414 0z" fill-rule="evenodd"/><path fill="#000000" d="m740.0139 239.45999l0 -30.53125l4.046875 0l0 26.921875l15.03125 0l0 3.609375l-19.078125 0zm23.426514 -26.21875l0 -4.3125l3.75 0l0 4.3125l-3.75 0zm0 26.21875l0 -22.125l3.75 0l0 22.125l-3.75 0zm7.9612427 -6.609375l3.703125 -0.578125q0.3125 2.234375 1.734375 3.421875q1.4375 1.1875 4.0 1.1875q2.578125 0 3.828125 -1.046875q1.25 -1.0625 1.25 -2.484375q0 -1.265625 -1.109375 -2.0q-0.765625 -0.5 -3.828125 -1.265625q-4.125 -1.046875 -5.71875 -1.796875q-1.59375 -0.765625 -2.421875 -2.109375q-0.8125 -1.34375 -0.8125 -2.96875q0 -1.46875 0.671875 -2.734375q0.6875 -1.265625 1.84375 -2.09375q0.875 -0.640625 2.390625 -1.09375q1.515625 -0.453125 3.234375 -0.453125q2.609375 0 4.578125 0.75q1.96875 0.75 2.90625 2.03125q0.9375 1.28125 1.28125 3.4375l-3.65625 0.5q-0.25 -1.71875 -1.453125 -2.671875q-1.203125 -0.953125 -3.375 -0.953125q-2.59375 0 -3.703125 0.859375q-1.09375 0.84375 -1.09375 1.984375q0 0.734375 0.453125 1.3125q0.46875 0.609375 1.4375 1.0q0.5625 0.21875 3.3125 0.96875q3.984375 1.0625 5.546875 1.734375q1.578125 0.671875 2.46875 1.96875q0.90625 1.28125 0.90625 3.203125q0 1.875 -1.09375 3.53125q-1.09375 1.65625 -3.15625 2.5625q-2.0625 0.90625 -4.671875 0.90625q-4.3125 0 -6.578125 -1.78125q-2.25 -1.796875 -2.875 -5.328125zm31.015625 3.25l0.53125 3.3125q-1.578125 0.34375 -2.828125 0.34375q-2.03125 0 -3.15625 -0.640625q-1.125 -0.65625 -1.59375 -1.703125q-0.453125 -1.0625 -0.453125 -4.4375l0 -12.71875l-2.75 0l0 -2.921875l2.75 0l0 -5.46875l3.734375 -2.25l0 7.71875l3.765625 0l0 2.921875l-3.765625 0l0 12.9375q0 1.59375 0.1875 2.0625q0.203125 0.453125 0.640625 0.734375q0.453125 0.265625 1.296875 0.265625q0.625 0 1.640625 -0.15625z" fill-rule="nonzero"/><path fill="#fce5cd" d="m969.3858 335.0866l238.6142 0l0 96.0l-238.6142 0z" fill-rule="evenodd"/><path stroke="#000000" stroke-width="1.0" stroke-linejoin="round" stroke-linecap="butt" d="m969.3858 335.0866l238.6142 0l0 96.0l-238.6142 0z" fill-rule="evenodd"/><path fill="#000000" d="m1004.4843 398.5466l11.71875 -30.53125l4.359375 0l12.499939 30.53125l-4.609375 0l-3.5625 -9.25l-12.765564 0l-3.34375 9.25l-4.296875 0zm8.8125 -12.53125l10.34375 0l-3.1875 -8.46875q-1.453125 -3.84375 -2.15625 -6.328125q-0.59375 2.9375 -1.65625 5.828125l-3.34375 8.96875zm22.46698 12.53125l0 -22.125l3.375 0l0 3.359375q1.296875 -2.359375 2.390625 -3.109375q1.09375 -0.75 2.40625 -0.75q1.890625 0 3.84375 1.21875l-1.28125 3.46875q-1.375 -0.8125 -2.75 -0.8125q-1.234375 0 -2.21875 0.75q-0.96875 0.734375 -1.390625 2.046875q-0.625 2.0 -0.625 4.375l0 11.578125l-3.75 0zm14.204834 0l0 -22.125l3.375 0l0 3.359375q1.296875 -2.359375 2.390625 -3.109375q1.09375 -0.75 2.40625 -0.75q1.890625 0 3.84375 1.21875l-1.28125 3.46875q-1.375 -0.8125 -2.75 -0.8125q-1.234375 0 -2.21875 0.75q-0.96875 0.734375 -1.390625 2.046875q-0.625 2.0 -0.625 4.375l0 11.578125l-3.75 0zm28.689331 -2.734375q-2.09375 1.78125 -4.015625 2.515625q-1.921875 0.71875 -4.125 0.71875q-3.65625 0 -5.609375 -1.78125q-1.953125 -1.78125 -1.953125 -4.546875q0 -1.625 0.734375 -2.96875q0.734375 -1.34375 1.9375 -2.15625q1.203125 -0.8125 2.703125 -1.234375q1.09375 -0.28125 3.328125 -0.5625q4.53125 -0.53125 6.6875 -1.28125q0.015625 -0.78125 0.015625 -0.984375q0 -2.296875 -1.0625 -3.234375q-1.4375 -1.265625 -4.265625 -1.265625q-2.640625 0 -3.90625 0.9375q-1.265625 0.921875 -1.859375 3.265625l-3.671875 -0.5q0.5 -2.34375 1.640625 -3.796875q1.15625 -1.453125 3.3125 -2.234375q2.171875 -0.78125 5.015625 -0.78125q2.84375 0 4.609375 0.671875q1.765625 0.671875 2.59375 1.6875q0.84375 1.0 1.171875 2.546875q0.1875 0.953125 0.1875 3.453125l0 5.0q0 5.21875 0.234375 6.609375q0.25 1.390625 0.953125 2.65625l-3.90625 0q-0.59375 -1.171875 -0.75 -2.734375zm-0.3125 -8.359375q-2.046875 0.828125 -6.125 1.40625q-2.3125 0.328125 -3.28125 0.75q-0.953125 0.421875 -1.46875 1.21875q-0.515625 0.796875 -0.515625 1.78125q0 1.5 1.125 2.5q1.140625 1.0 3.328125 1.0q2.15625 0 3.84375 -0.9375q1.6875 -0.953125 2.484375 -2.609375q0.609375 -1.265625 0.609375 -3.75l0 -1.359375zm9.426392 19.609375l-0.40625 -3.515625q1.21875 0.328125 2.140625 0.328125q1.25 0 2.0 -0.421875q0.75 -0.40625 1.234375 -1.15625q0.34375 -0.5625 1.140625 -2.796875q0.109375 -0.3125 0.328125 -0.90625l-8.390625 -22.171875l4.046875 0l4.59375 12.8125q0.90625 2.4375 1.609375 5.125q0.640625 -2.578125 1.53125 -5.046875l4.734375 -12.890625l3.75 0l-8.421875 22.5q-1.34375 3.640625 -2.09375 5.015625q-1.0 1.859375 -2.296875 2.71875q-1.28125 0.875 -3.078125 0.875q-1.078125 0 -2.421875 -0.46875zm21.8125 -8.515625l0 -30.53125l4.046875 0l0 26.921875l15.03125 0l0 3.609375l-19.078125 0zm23.426514 -26.21875l0 -4.3125l3.75 0l0 4.3125l-3.75 0zm0 26.21875l0 -22.125l3.75 0l0 22.125l-3.75 0zm7.9613037 -6.609375l3.703125 -0.578125q0.3125 2.234375 1.734375 3.421875q1.4375 1.1875 4.0 1.1875q2.578125 0 3.828125 -1.046875q1.25 -1.0625 1.25 -2.484375q0 -1.265625 -1.109375 -2.0q-0.765625 -0.5 -3.828125 -1.265625q-4.125 -1.046875 -5.71875 -1.796875q-1.59375 -0.765625 -2.421875 -2.109375q-0.8125 -1.34375 -0.8125 -2.96875q0 -1.46875 0.671875 -2.734375q0.6875 -1.265625 1.84375 -2.09375q0.875 -0.640625 2.390625 -1.09375q1.515625 -0.453125 3.234375 -0.453125q2.609375 0 4.578125 0.75q1.96875 0.75 2.90625 2.03125q0.9375 1.28125 1.28125 3.4375l-3.65625 0.5q-0.25 -1.71875 -1.453125 -2.671875q-1.203125 -0.953125 -3.375 -0.953125q-2.59375 0 -3.703125 0.859375q-1.09375 0.84375 -1.09375 1.984375q0 0.734375 0.453125 1.3125q0.46875 0.609375 1.4375 1.0q0.5625 0.21875 3.3125 0.96875q3.984375 1.0625 5.546875 1.734375q1.578125 0.671875 2.46875 1.96875q0.90625 1.28125 0.90625 3.203125q0 1.875 -1.09375 3.53125q-1.09375 1.65625 -3.15625 2.5625q-2.0625 0.90625 -4.671875 0.90625q-4.3125 0 -6.578125 -1.78125q-2.25 -1.796875 -2.875 -5.328125zm31.015625 3.25l0.53125 3.3125q-1.578125 0.34375 -2.828125 0.34375q-2.03125 0 -3.15625 -0.640625q-1.125 -0.65625 -1.59375 -1.703125q-0.453125 -1.0625 -0.453125 -4.4375l0 -12.71875l-2.75 0l0 -2.921875l2.75 0l0 -5.46875l3.734375 -2.25l0 7.71875l3.765625 0l0 2.921875l-3.765625 0l0 12.9375q0 1.59375 0.1875 2.0625q0.203125 0.453125 0.640625 0.734375q0.453125 0.265625 1.296875 0.265625q0.625 0 1.640625 -0.15625z" fill-rule="nonzero"/><path fill="#000000" fill-opacity="0.0" d="m969.3858 383.0866l-80.0 0" fill-rule="evenodd"/><path stroke="#000000" stroke-width="4.0" stroke-linejoin="round" stroke-linecap="butt" d="m969.3858 383.0866l-56.0 0" fill-rule="evenodd"/><path fill="#000000" stroke="#000000" stroke-width="4.0" stroke-linecap="butt" d="m913.3858 376.47968l-18.152344 6.6069336l18.152344 6.6069336z" fill-rule="evenodd"/><path fill="#000000" fill-opacity="0.0" d="m650.77167 383.0866l-402.77167 0" fill-rule="evenodd"/><path stroke="#000000" stroke-width="4.0" stroke-linejoin="round" stroke-linecap="butt" d="m650.77167 383.0866l-378.77167 0" fill-rule="evenodd"/><path fill="#000000" stroke="#000000" stroke-width="4.0" stroke-linecap="butt" d="m272.0 376.47968l-18.15239 6.6069336l18.15239 6.6069336z" fill-rule="evenodd"/><path fill="#000000" fill-opacity="0.0" d="m128.69292 335.0866l0 -64.0" fill-rule="evenodd"/><path stroke="#000000" stroke-width="4.0" stroke-linejoin="round" stroke-linecap="butt" stroke-dasharray="4.0,12.0" d="m128.69292 335.0866l0 -40.0" fill-rule="evenodd"/><path fill="#000000" stroke="#000000" stroke-width="4.0" stroke-linecap="butt" d="m135.29985 295.0866l-6.6069336 -18.152374l-6.6069336 18.152374z" fill-rule="evenodd"/><path fill="#000000" fill-opacity="0.0" d="m329.38583 223.25984l-81.38583 -0.15748596" fill-rule="evenodd"/><path stroke="#000000" stroke-width="4.0" stroke-linejoin="round" stroke-linecap="butt" stroke-dasharray="4.0,12.0" d="m329.38583 223.25984l-57.385864 -0.11103821" fill-rule="evenodd"/><path fill="#000000" stroke="#000000" stroke-width="4.0" stroke-linecap="butt" d="m272.01273 216.54189l-18.16513 6.5717926l18.139587 6.642044z" fill-rule="evenodd"/><path fill="#000000" fill-opacity="0.0" d="m650.77167 224.0l-81.385864 -0.724411" fill-rule="evenodd"/><path stroke="#000000" stroke-width="4.0" stroke-linejoin="round" stroke-linecap="butt" stroke-dasharray="4.0,12.0" d="m650.77167 224.0l-57.38678 -0.51078796" fill-rule="evenodd"/><path fill="#000000" stroke="#000000" stroke-width="4.0" stroke-linecap="butt" d="m593.44366 216.88254l-18.21045 6.445099l18.092834 6.7682343z" fill-rule="evenodd"/><path fill="#000000" fill-opacity="0.0" d="m1088.6929 335.0866l0 -111.08661l-199.30707 0" fill-rule="evenodd"/><path stroke="#000000" stroke-width="4.0" stroke-linejoin="round" stroke-linecap="butt" stroke-dasharray="4.0,12.0" d="m1088.6929 335.0866l0 -111.08661l-175.30707 0" fill-rule="evenodd"/><path fill="#000000" stroke="#000000" stroke-width="4.0" stroke-linecap="butt" d="m913.3858 217.39307l-18.152344 6.6069336l18.152344 6.6069336z" fill-rule="evenodd"/><path fill="#000000" fill-opacity="0.0" d="m770.07874 335.0866l0 -63.08661" fill-rule="evenodd"/><path stroke="#000000" stroke-width="4.0" stroke-linejoin="round" stroke-linecap="butt" stroke-dasharray="4.0,12.0" d="m770.07874 335.0866l0 -39.08661" fill-rule="evenodd"/><path fill="#000000" stroke="#000000" stroke-width="4.0" stroke-linecap="butt" d="m776.68567 296.0l-6.6069336 -18.152405l-6.6069336 18.152405z" fill-rule="evenodd"/><path fill="#000000" fill-opacity="0.0" d="m954.7402 160.11548l253.25983 0l0 71.086624l-253.25983 0z" fill-rule="evenodd"/><path fill="#000000" d="m966.5683 183.85674l0 -4.3125l3.75 0l0 4.3125l-3.75 0zm0 26.21875l0 -22.125l3.75 0l0 22.125l-3.75 0zm9.461182 0l0 -22.125l3.359375 0l0 3.109375q1.03125 -1.625 2.765625 -2.609375q1.734375 -1.0 3.9375 -1.0q2.453125 0 4.015625 1.03125q1.578125 1.015625 2.234375 2.84375q2.625 -3.875 6.828125 -3.875q3.296875 0 5.0625 1.828125q1.765625 1.828125 1.765625 5.609375l0 15.1875l-3.71875 0l0 -13.9375q0 -2.25 -0.375 -3.234375q-0.359375 -0.984375 -1.328125 -1.59375q-0.953125 -0.609375 -2.234375 -0.609375q-2.34375 0 -3.890625 1.5625q-1.53125 1.546875 -1.53125 4.96875l0 12.84375l-3.75 0l0 -14.375q0 -2.5 -0.921875 -3.75q-0.90625 -1.25 -3.0 -1.25q-1.578125 0 -2.921875 0.84375q-1.34375 0.828125 -1.953125 2.4375q-0.59375 1.59375 -0.59375 4.625l0 11.46875l-3.75 0zm35.53302 8.484375l0 -30.609375l3.421875 0l0 2.875q1.203125 -1.6875 2.71875 -2.53125q1.53125 -0.84375 3.6875 -0.84375q2.828125 0 5.0 1.46875q2.171875 1.453125 3.265625 4.109375q1.109375 2.65625 1.109375 5.828125q0 3.390625 -1.21875 6.109375q-1.21875 2.71875 -3.546875 4.171875q-2.3125 1.4375 -4.875 1.4375q-1.875 0 -3.375 -0.78125q-1.484375 -0.796875 -2.4375 -2.015625l0 10.78125l-3.75 0zm3.390625 -19.421875q0 4.265625 1.734375 6.3125q1.734375 2.046875 4.1875 2.046875q2.5 0 4.28125 -2.109375q1.78125 -2.125 1.78125 -6.5625q0 -4.21875 -1.75 -6.328125q-1.734375 -2.109375 -4.15625 -2.109375q-2.390625 0 -4.234375 2.25q-1.84375 2.234375 -1.84375 6.5zm20.254639 10.9375l0 -30.53125l3.75 0l0 30.53125l-3.75 0zm24.695557 -7.125l3.875 0.484375q-0.921875 3.390625 -3.40625 5.265625q-2.46875 1.875 -6.328125 1.875q-4.84375 0 -7.6875 -2.984375q-2.84375 -3.0 -2.84375 -8.390625q0 -5.578125 2.875 -8.65625q2.875 -3.09375 7.453125 -3.09375q4.4375 0 7.25 3.03125q2.8125 3.015625 2.8125 8.5q0 0.328125 -0.015625 0.984375l-16.5 0q0.203125 3.65625 2.0625 5.59375q1.859375 1.9375 4.625 1.9375q2.0625 0 3.515625 -1.078125q1.453125 -1.09375 2.3125 -3.46875zm-12.3125 -6.0625l12.359375 0q-0.25 -2.78125 -1.421875 -4.1875q-1.796875 -2.15625 -4.640625 -2.15625q-2.578125 0 -4.34375 1.734375q-1.765625 1.71875 -1.953125 4.609375zm20.895264 13.1875l0 -22.125l3.359375 0l0 3.109375q1.03125 -1.625 2.765625 -2.609375q1.734375 -1.0 3.9375 -1.0q2.453125 0 4.015625 1.03125q1.578125 1.015625 2.234375 2.84375q2.625 -3.875 6.828125 -3.875q3.296875 0 5.0625 1.828125q1.765625 1.828125 1.765625 5.609375l0 15.1875l-3.71875 0l0 -13.9375q0 -2.25 -0.375 -3.234375q-0.359375 -0.984375 -1.328125 -1.59375q-0.953125 -0.609375 -2.234375 -0.609375q-2.34375 0 -3.890625 1.5625q-1.53125 1.546875 -1.53125 4.96875l0 12.84375l-3.75 0l0 -14.375q0 -2.5 -0.921875 -3.75q-0.90625 -1.25 -3.0 -1.25q-1.578125 0 -2.921875 0.84375q-1.34375 0.828125 -1.953125 2.4375q-0.59375 1.59375 -0.59375 4.625l0 11.46875l-3.75 0zm50.673584 -7.125l3.875 0.484375q-0.921875 3.390625 -3.40625 5.265625q-2.46875 1.875 -6.328125 1.875q-4.84375 0 -7.6875 -2.984375q-2.84375 -3.0 -2.84375 -8.390625q0 -5.578125 2.875 -8.65625q2.875 -3.09375 7.453125 -3.09375q4.4375 0 7.25 3.03125q2.8125 3.015625 2.8125 8.5q0 0.328125 -0.015625 0.984375l-16.5 0q0.203125 3.65625 2.0625 5.59375q1.859375 1.9375 4.625 1.9375q2.0625 0 3.515625 -1.078125q1.453125 -1.09375 2.3125 -3.46875zm-12.3125 -6.0625l12.359375 0q-0.25 -2.78125 -1.421875 -4.1875q-1.796875 -2.15625 -4.640625 -2.15625q-2.578125 0 -4.34375 1.734375q-1.765625 1.71875 -1.953125 4.609375zm20.895264 13.1875l0 -22.125l3.375 0l0 3.15625q2.4375 -3.65625 7.03125 -3.65625q2.0 0 3.671875 0.71875q1.6875 0.71875 2.515625 1.890625q0.84375 1.171875 1.171875 2.765625q0.203125 1.046875 0.203125 3.65625l0 13.59375l-3.75 0l0 -13.453125q0 -2.296875 -0.4375 -3.421875q-0.4375 -1.140625 -1.546875 -1.8125q-1.109375 -0.6875 -2.609375 -0.6875q-2.390625 0 -4.140625 1.53125q-1.734375 1.515625 -1.734375 5.765625l0 12.078125l-3.75 0zm31.910889 -3.359375l0.53125 3.3125q-1.578125 0.34375 -2.828125 0.34375q-2.03125 0 -3.15625 -0.640625q-1.125 -0.65625 -1.59375 -1.703125q-0.453125 -1.0625 -0.453125 -4.4375l0 -12.71875l-2.75 0l0 -2.921875l2.75 0l0 -5.46875l3.734375 -2.25l0 7.71875l3.765625 0l0 2.921875l-3.765625 0l0 12.9375q0 1.59375 0.1875 2.0625q0.203125 0.453125 0.640625 0.734375q0.453125 0.265625 1.296875 0.265625q0.625 0 1.640625 -0.15625zm2.1638184 -3.25l3.703125 -0.578125q0.3125 2.234375 1.734375 3.421875q1.4375 1.1875 4.0 1.1875q2.578125 0 3.828125 -1.046875q1.25 -1.0625 1.25 -2.484375q0 -1.265625 -1.109375 -2.0q-0.765625 -0.5 -3.828125 -1.265625q-4.125 -1.046875 -5.71875 -1.796875q-1.59375 -0.765625 -2.421875 -2.109375q-0.8125 -1.34375 -0.8125 -2.96875q0 -1.46875 0.671875 -2.734375q0.6875 -1.265625 1.84375 -2.09375q0.875 -0.640625 2.390625 -1.09375q1.515625 -0.453125 3.234375 -0.453125q2.609375 0 4.578125 0.75q1.96875 0.75 2.90625 2.03125q0.9375 1.28125 1.28125 3.4375l-3.65625 0.5q-0.25 -1.71875 -1.453125 -2.671875q-1.203125 -0.953125 -3.375 -0.953125q-2.59375 0 -3.703125 0.859375q-1.09375 0.84375 -1.09375 1.984375q0 0.734375 0.453125 1.3125q0.46875 0.609375 1.4375 1.0q0.5625 0.21875 3.3125 0.96875q3.984375 1.0625 5.546875 1.734375q1.578125 0.671875 2.46875 1.96875q0.90625 1.28125 0.90625 3.203125q0 1.875 -1.09375 3.53125q-1.09375 1.65625 -3.15625 2.5625q-2.0625 0.90625 -4.671875 0.90625q-4.3125 0 -6.578125 -1.78125q-2.25 -1.796875 -2.875 -5.328125z" fill-rule="nonzero"/><path fill="#cfe2f3" d="m9.385827 8.0l238.61417 0l0 96.0l-238.61417 0z" fill-rule="evenodd"/><path stroke="#000000" stroke-width="1.0" stroke-linejoin="round" stroke-linecap="butt" d="m9.385827 8.0l238.61417 0l0 96.0l-238.61417 0z" fill-rule="evenodd"/><path fill="#000000" d="m61.538406 71.46l0 -30.53125l4.03125 0l0 30.53125l-4.03125 0zm18.866898 -3.359375l0.53125 3.3125q-1.578125 0.34375 -2.828125 0.34375q-2.03125 0 -3.15625 -0.640625q-1.125 -0.65625 -1.59375 -1.703125q-0.453125 -1.0625 -0.453125 -4.4375l0 -12.71875l-2.75 0l0 -2.921875l2.75 0l0 -5.46875l3.734375 -2.25l0 7.71875l3.765625 0l0 2.921875l-3.765625 0l0 12.9375q0 1.59375 0.1875 2.0625q0.203125 0.453125 0.640625 0.734375q0.453125 0.265625 1.296875 0.265625q0.625 0 1.640625 -0.15625zm18.804398 -3.765625l3.875 0.484375q-0.921875 3.390625 -3.40625 5.265625q-2.46875 1.875 -6.328125 1.875q-4.84375 0 -7.6875 -2.984375q-2.84375 -3.0 -2.84375 -8.390625q0 -5.578125 2.875 -8.65625q2.875 -3.09375 7.453125 -3.09375q4.4375 0 7.25 3.03125q2.8125 3.015625 2.8125 8.5q0 0.328125 -0.015625 0.984375l-16.5 0q0.203125 3.65625 2.0625 5.59375q1.859375 1.9375 4.625 1.9375q2.0625 0 3.515625 -1.078125q1.453125 -1.09375 2.3125 -3.46875zm-12.3125 -6.0625l12.359375 0q-0.25 -2.78125 -1.421875 -4.1875q-1.796875 -2.15625 -4.640625 -2.15625q-2.578125 0 -4.34375 1.734375q-1.765625 1.71875 -1.953125 4.609375zm20.848373 13.1875l0 -22.125l3.375 0l0 3.359375q1.296875 -2.359375 2.390625 -3.109375q1.09375 -0.75 2.40625 -0.75q1.890625 0 3.84375 1.21875l-1.28125 3.46875q-1.375 -0.8125 -2.75 -0.8125q-1.234375 0 -2.21875 0.75q-0.96875 0.734375 -1.390625 2.046875q-0.625 2.0 -0.625 4.375l0 11.578125l-3.75 0zm28.68924 -2.734375q-2.09375 1.78125 -4.015625 2.515625q-1.921875 0.71875 -4.125 0.71875q-3.65625 0 -5.609375 -1.78125q-1.953125 -1.78125 -1.953125 -4.546875q0 -1.625 0.734375 -2.96875q0.734375 -1.34375 1.9375 -2.15625q1.203125 -0.8125 2.703125 -1.234375q1.09375 -0.28125 3.328125 -0.5625q4.53125 -0.53125 6.6875 -1.28125q0.015625 -0.78125 0.015625 -0.984375q0 -2.296875 -1.0625 -3.234375q-1.4375 -1.265625 -4.265625 -1.265625q-2.640625 0 -3.90625 0.9375q-1.265625 0.921875 -1.859375 3.265625l-3.671875 -0.5q0.5 -2.34375 1.640625 -3.796875q1.15625 -1.453125 3.3125 -2.234375q2.171875 -0.78125 5.015625 -0.78125q2.84375 0 4.609375 0.671875q1.765625 0.671875 2.59375 1.6875q0.84375 1.0 1.171875 2.546875q0.1875 0.953125 0.1875 3.453125l0 5.0q0 5.21875 0.234375 6.609375q0.25 1.390625 0.953125 2.65625l-3.90625 0q-0.59375 -1.171875 -0.75 -2.734375zm-0.3125 -8.359375q-2.046875 0.828125 -6.125 1.40625q-2.3125 0.328125 -3.28125 0.75q-0.953125 0.421875 -1.46875 1.21875q-0.515625 0.796875 -0.515625 1.78125q0 1.5 1.125 2.5q1.140625 1.0 3.328125 1.0q2.15625 0 3.84375 -0.9375q1.6875 -0.953125 2.484375 -2.609375q0.609375 -1.265625 0.609375 -3.75l0 -1.359375zm13.051514 11.09375l-3.46875 0l0 -30.53125l3.75 0l0 10.890625q2.375 -2.984375 6.046875 -2.984375q2.046875 0 3.859375 0.828125q1.828125 0.828125 3.0 2.3125q1.1875 1.484375 1.84375 3.59375q0.671875 2.109375 0.671875 4.5q0 5.6875 -2.8125 8.796875q-2.8125 3.09375 -6.75 3.09375q-3.90625 0 -6.140625 -3.265625l0 2.765625zm-0.03125 -11.21875q0 3.96875 1.078125 5.734375q1.765625 2.90625 4.78125 2.90625q2.46875 0 4.25 -2.140625q1.796875 -2.140625 1.796875 -6.359375q0 -4.328125 -1.71875 -6.390625q-1.71875 -2.0625 -4.15625 -2.0625q-2.453125 0 -4.25 2.140625q-1.78125 2.125 -1.78125 6.171875zm20.223358 11.21875l0 -30.53125l3.75 0l0 30.53125l-3.75 0zm24.695618 -7.125l3.875 0.484375q-0.921875 3.390625 -3.40625 5.265625q-2.46875 1.875 -6.328125 1.875q-4.84375 0 -7.6875 -2.984375q-2.84375 -3.0 -2.84375 -8.390625q0 -5.578125 2.875 -8.65625q2.875 -3.09375 7.453125 -3.09375q4.4375 0 7.25 3.03125q2.8125 3.015625 2.8125 8.5q0 0.328125 -0.015625 0.984375l-16.5 0q0.203125 3.65625 2.0625 5.59375q1.859375 1.9375 4.625 1.9375q2.0625 0 3.515625 -1.078125q1.453125 -1.09375 2.3125 -3.46875zm-12.3125 -6.0625l12.359375 0q-0.25 -2.78125 -1.421875 -4.1875q-1.796875 -2.15625 -4.640625 -2.15625q-2.578125 0 -4.34375 1.734375q-1.765625 1.71875 -1.953125 4.609375z" fill-rule="nonzero"/><path fill="#000000" fill-opacity="0.0" d="m128.69292 175.08661l0 -71.08661" fill-rule="evenodd"/><path stroke="#000000" stroke-width="4.0" stroke-linejoin="round" stroke-linecap="butt" stroke-dasharray="4.0,12.0" d="m128.69292 175.08661l0 -47.08661" fill-rule="evenodd"/><path fill="#000000" stroke="#000000" stroke-width="4.0" stroke-linecap="butt" d="m135.29985 128.0l-6.6069336 -18.15239l-6.6069336 18.15239z" fill-rule="evenodd"/><path fill="#000000" fill-opacity="0.0" d="m372.22046 324.4567l224.0 0l0 71.08661l-224.0 0z" fill-rule="evenodd"/><path fill="#000000" d="m399.17358 367.2917l3.875 0.484375q-0.921875 3.390625 -3.40625 5.265625q-2.46875 1.875 -6.328125 1.875q-4.84375 0 -7.6875 -2.984375q-2.84375 -3.0 -2.84375 -8.390625q0 -5.578125 2.875 -8.65625q2.875 -3.09375 7.453125 -3.09375q4.4375 0 7.25 3.03125q2.8125 3.015625 2.8125 8.5q0 0.328125 -0.015625 0.984375l-16.5 0q0.203125 3.65625 2.0625 5.59375q1.859375 1.9375 4.625 1.9375q2.0625 0 3.515625 -1.078125q1.453125 -1.09375 2.3125 -3.46875zm-12.3125 -6.0625l12.359375 0q-0.25 -2.78125 -1.421875 -4.1875q-1.796875 -2.15625 -4.640625 -2.15625q-2.578125 0 -4.34375 1.734375q-1.765625 1.71875 -1.953125 4.609375zm18.395264 13.1875l8.078125 -11.5l-7.46875 -10.625l4.6875 0l3.390625 5.1875q0.953125 1.484375 1.546875 2.484375q0.90625 -1.375 1.671875 -2.4375l3.734375 -5.234375l4.484375 0l-7.65625 10.421875l8.234375 11.703125l-4.609375 0l-4.53125 -6.875l-1.203125 -1.859375l-5.8125 8.734375l-4.546875 0zm32.015625 -3.359375l0.53125 3.3125q-1.578125 0.34375 -2.828125 0.34375q-2.03125 0 -3.15625 -0.640625q-1.125 -0.65625 -1.59375 -1.703125q-0.453125 -1.0625 -0.453125 -4.4375l0 -12.71875l-2.75 0l0 -2.921875l2.75 0l0 -5.46875l3.734375 -2.25l0 7.71875l3.765625 0l0 2.921875l-3.765625 0l0 12.9375q0 1.59375 0.1875 2.0625q0.203125 0.453125 0.640625 0.734375q0.453125 0.265625 1.296875 0.265625q0.625 0 1.640625 -0.15625zm18.804382 -3.765625l3.875 0.484375q-0.921875 3.390625 -3.40625 5.265625q-2.46875 1.875 -6.328125 1.875q-4.84375 0 -7.6875 -2.984375q-2.84375 -3.0 -2.84375 -8.390625q0 -5.578125 2.875 -8.65625q2.875 -3.09375 7.453125 -3.09375q4.4375 0 7.25 3.03125q2.8125 3.015625 2.8125 8.5q0 0.328125 -0.015625 0.984375l-16.5 0q0.203125 3.65625 2.0625 5.59375q1.859375 1.9375 4.625 1.9375q2.0625 0 3.515625 -1.078125q1.453125 -1.09375 2.3125 -3.46875zm-12.3125 -6.0625l12.359375 0q-0.25 -2.78125 -1.421875 -4.1875q-1.796875 -2.15625 -4.640625 -2.15625q-2.578125 0 -4.34375 1.734375q-1.765625 1.71875 -1.953125 4.609375zm20.895264 13.1875l0 -22.125l3.375 0l0 3.15625q2.4375 -3.65625 7.03125 -3.65625q2.0 0 3.671875 0.71875q1.6875 0.71875 2.515625 1.890625q0.84375 1.171875 1.171875 2.765625q0.203125 1.046875 0.203125 3.65625l0 13.59375l-3.75 0l0 -13.453125q0 -2.296875 -0.4375 -3.421875q-0.4375 -1.140625 -1.546875 -1.8125q-1.109375 -0.6875 -2.609375 -0.6875q-2.390625 0 -4.140625 1.53125q-1.734375 1.515625 -1.734375 5.765625l0 12.078125l-3.75 0zm38.06711 0l0 -2.796875q-2.09375 3.296875 -6.1875 3.296875q-2.640625 0 -4.859375 -1.453125q-2.21875 -1.46875 -3.4375 -4.078125q-1.21875 -2.609375 -1.21875 -6.0q0 -3.3125 1.109375 -6.015625q1.109375 -2.703125 3.3125 -4.140625q2.203125 -1.4375 4.9375 -1.4375q2.0 0 3.5625 0.84375q1.5625 0.84375 2.53125 2.203125l0 -10.953125l3.734375 0l0 30.53125l-3.484375 0zm-11.84375 -11.03125q0 4.234375 1.78125 6.34375q1.796875 2.109375 4.234375 2.109375q2.453125 0 4.171875 -2.015625q1.71875 -2.015625 1.71875 -6.125q0 -4.546875 -1.75 -6.671875q-1.75 -2.125 -4.3125 -2.125q-2.484375 0 -4.171875 2.046875q-1.671875 2.03125 -1.671875 6.4375zm19.723389 4.421875l3.7030945 -0.578125q0.3125 2.234375 1.734375 3.421875q1.4375 1.1875 4.0 1.1875q2.578125 0 3.828125 -1.046875q1.25 -1.0625 1.25 -2.484375q0 -1.265625 -1.109375 -2.0q-0.765625 -0.5 -3.828125 -1.265625q-4.125 -1.046875 -5.71875 -1.796875q-1.59375 -0.765625 -2.421875 -2.109375q-0.8124695 -1.34375 -0.8124695 -2.96875q0 -1.46875 0.671875 -2.734375q0.6874695 -1.265625 1.8437195 -2.09375q0.875 -0.640625 2.390625 -1.09375q1.515625 -0.453125 3.234375 -0.453125q2.609375 0 4.578125 0.75q1.96875 0.75 2.90625 2.03125q0.9375 1.28125 1.28125 3.4375l-3.65625 0.5q-0.25 -1.71875 -1.453125 -2.671875q-1.203125 -0.953125 -3.375 -0.953125q-2.59375 0 -3.703125 0.859375q-1.09375 0.84375 -1.09375 1.984375q0 0.734375 0.453125 1.3125q0.46875 0.609375 1.4375 1.0q0.5625 0.21875 3.3125 0.96875q3.984375 1.0625 5.546875 1.734375q1.578125 0.671875 2.46875 1.96875q0.90625 1.28125 0.90625 3.203125q0 1.875 -1.09375 3.53125q-1.09375 1.65625 -3.15625 2.5625q-2.0625 0.90625 -4.671875 0.90625q-4.3125 0 -6.578125 -1.78125q-2.2499695 -1.796875 -2.8749695 -5.328125z" fill-rule="nonzero"/></g></svg>