<svg version="1.1" viewBox="0.0 0.0 380.36482939632543 107.30708661417323" fill="none" stroke="none" stroke-linecap="square" stroke-miterlimit="10" xmlns:xlink="http://www.w3.org/1999/xlink" xmlns="http://www.w3.org/2000/svg"><clipPath id="p.0"><path d="m0 0l380.36484 0l0 107.30708l-380.36484 0l0 -107.30708z" clip-rule="nonzero"/></clipPath><g clip-path="url(#p.0)"><path fill="#000000" fill-opacity="0.0" d="m0 0l380.36484 0l0 107.30708l-380.36484 0z" fill-rule="evenodd"/><path fill="#efefef" d="m34.057743 53.553806l0 0c0 -27.927345 54.727016 -50.56693 122.23622 -50.56693l0 0c67.5092 0 122.23622 22.639584 122.23622 50.56693l0 0c0 27.927341 -54.72702 50.56693 -122.23622 50.56693l0 0c-67.5092 0 -122.23622 -22.639587 -122.23622 -50.56693z" fill-rule="evenodd"/><path stroke="#666666" stroke-width="3.0" stroke-linejoin="round" stroke-linecap="butt" d="m34.057743 53.553806l0 0c0 -27.927345 54.727016 -50.56693 122.23622 -50.56693l0 0c67.5092 0 122.23622 22.639584 122.23622 50.56693l0 0c0 27.927341 -54.72702 50.56693 -122.23622 50.56693l0 0c-67.5092 0 -122.23622 -22.639587 -122.23622 -50.56693z" fill-rule="evenodd"/><path fill="#000000" d="m155.40298 57.192554q0 -0.328125 0 -0.5q0 -0.96875 0.265625 -1.671875q0.203125 -0.515625 0.640625 -1.0625q0.328125 -0.390625 1.171875 -1.140625q0.859375 -0.75 1.109375 -1.1875q0.265625 -0.453125 0.265625 -0.984375q0 -0.953125 -0.75 -1.671875q-0.734375 -0.734375 -1.828125 -0.734375q-1.046875 0 -1.75 0.65625q-0.703125 0.65625 -0.921875 2.046875l-1.6875 -0.203125q0.234375 -1.859375 1.359375 -2.84375q1.125 -1.0 2.96875 -1.0q1.96875 0 3.125 1.0625q1.171875 1.0625 1.171875 2.578125q0 0.875 -0.40625 1.609375q-0.40625 0.734375 -1.609375 1.796875q-0.796875 0.703125 -1.046875 1.046875q-0.25 0.34375 -0.375 0.78125q-0.109375 0.4375 -0.125 1.421875l-1.578125 0zm-0.09375 3.28125l0 -1.875l1.859375 0l0 1.875l-1.859375 0z" fill-rule="nonzero"/><path fill="#3c78d8" d="m314.95093 48.664043l44.787384 0l0 47.999996l-44.787384 0z" fill-rule="evenodd"/><path stroke="#000000" stroke-width="4.0" stroke-linejoin="round" stroke-linecap="butt" d="m314.95093 48.664043l44.787384 0l0 47.999996l-44.787384 0z" fill-rule="evenodd"/><path fill="#000000" fill-opacity="0.0" d="m242.72803 17.797588c0 -0.45126343 23.653534 -4.7607946 47.307068 -0.90252686c23.653564 3.8582668 47.3071 15.884335 47.3071 31.76867" fill-rule="evenodd"/><path stroke="#000000" stroke-width="4.0" stroke-linejoin="round" stroke-linecap="butt" d="m242.72801 17.797588c0 -0.45126343 23.65355 -4.7607946 47.307083 -0.90252686c11.826782 1.9291344 23.653564 5.900217 32.52362 11.374559c0.27719116 0.171072 0.5515137 0.34361458 0.82281494 0.51760674l0.26223755 0.16980934" fill-rule="evenodd"/><path fill="#000000" stroke="#000000" stroke-width="4.0" stroke-linecap="butt" d="m318.21875 32.72805l15.785828 11.134136l-4.9357605 -18.676167z" fill-rule="evenodd"/></g></svg>