<svg version="1.1" viewBox="0.0 0.0 406.3963254593176 126.74540682414698" fill="none" stroke="none" stroke-linecap="square" stroke-miterlimit="10" xmlns:xlink="http://www.w3.org/1999/xlink" xmlns="http://www.w3.org/2000/svg"><clipPath id="p.0"><path d="m0 0l406.39633 0l0 126.74541l-406.39633 0l0 -126.74541z" clip-rule="nonzero"/></clipPath><g clip-path="url(#p.0)"><path fill="#000000" fill-opacity="0.0" d="m0 0l406.39633 0l0 126.74541l-406.39633 0z" fill-rule="evenodd"/><path fill="#efefef" d="m44.942257 3.824147l318.04724 0l0 116.94488l-318.04724 0z" fill-rule="evenodd"/><path stroke="#666666" stroke-width="3.0" stroke-linejoin="round" stroke-linecap="butt" d="m44.942257 3.824147l318.04724 0l0 116.94488l-318.04724 0z" fill-rule="evenodd"/><path fill="#3c78d8" d="m136.7706 14.296588l44.7874 0l0 48.0l-44.7874 0z" fill-rule="evenodd"/><path stroke="#000000" stroke-width="4.0" stroke-linejoin="round" stroke-linecap="butt" d="m136.7706 14.296588l44.7874 0l0 48.0l-44.7874 0z" fill-rule="evenodd"/><path fill="#ffffff" d="m149.44989 51.636585l0 -26.718752l10.03125 0q3.0625 0 4.90625 0.8125q1.84375 0.8125 2.890625 2.5q1.046875 1.6875 1.046875 3.515625q0 1.7187519 -0.9375 3.234377q-0.921875 1.515625 -2.796875 2.4375q2.421875 0.71875 3.71875 2.4375q1.3125 1.703125 1.3125 4.03125q0 1.875 -0.796875 3.5q-0.78125 1.609375 -1.953125 2.484375q-1.171875 0.875 -2.9375 1.328125q-1.75 0.4375 -4.296875 0.4375l-10.1875 0zm3.53125 -15.5l5.78125 0q2.359375 0 3.375 -0.296875q1.34375 -0.40625 2.03125 -1.328125q0.6875 -0.9375 0.6875 -2.34375q0 -1.3281269 -0.640625 -2.328127q-0.640625 -1.015625 -1.828125 -1.390625q-1.1875 -0.375 -4.0625 -0.375l-5.34375 0l0 8.062502zm0 12.34375l6.65625 0q1.71875 0 2.40625 -0.125q1.21875 -0.21875 2.03125 -0.71875q0.828125 -0.515625 1.359375 -1.484375q0.53125 -0.984375 0.53125 -2.265625q0 -1.484375 -0.765625 -2.59375q-0.765625 -1.109375 -2.125 -1.546875q-1.359375 -0.453125 -3.90625 -0.453125l-6.1875 0l0 9.1875z" fill-rule="nonzero"/><path fill="#3c78d8" d="m181.57323 14.296588l44.7874 0l0 48.0l-44.7874 0z" fill-rule="evenodd"/><path stroke="#000000" stroke-width="4.0" stroke-linejoin="round" stroke-linecap="butt" d="m181.57323 14.296588l44.7874 0l0 48.0l-44.7874 0z" fill-rule="evenodd"/><path fill="#ffffff" d="m212.51073 42.261585l3.546875 0.90625q-1.109375 4.34375 -4.0 6.640625q-2.890625 2.28125 -7.0625 2.28125q-4.328125 0 -7.03125 -1.75q-2.703125 -1.765625 -4.125 -5.09375q-1.40625 -3.34375 -1.40625 -7.171875q0 -4.171875 1.59375 -7.281252q1.59375 -3.109375 4.53125 -4.71875q2.953125 -1.609375 6.484375 -1.609375q4.015625 0 6.75 2.046875q2.734375 2.03125 3.8125 5.734377l-3.484375 0.8125q-0.9375 -2.906252 -2.703125 -4.234377q-1.765625 -1.34375 -4.4375 -1.34375q-3.09375 0 -5.15625 1.484375q-2.0625 1.46875 -2.90625 3.968752q-0.84375 2.484375 -0.84375 5.125q0 3.40625 0.984375 5.953125q1.0 2.546875 3.09375 3.8125q2.109375 1.25 4.546875 1.25q2.96875 0 5.03125 -1.71875q2.0625 -1.71875 2.78125 -5.09375z" fill-rule="nonzero"/><path fill="#3c78d8" d="m226.37323 14.296588l44.787415 0l0 48.0l-44.787415 0z" fill-rule="evenodd"/><path stroke="#000000" stroke-width="4.0" stroke-linejoin="round" stroke-linecap="butt" d="m226.37323 14.296588l44.787415 0l0 48.0l-44.787415 0z" fill-rule="evenodd"/><path fill="#ffffff" d="m238.24823 51.636585l0 -26.718752l9.203125 0q3.125 0 4.765625 0.375q2.296875 0.53125 3.921875 1.921875q2.109375 1.78125 3.15625 4.5625q1.046875 2.781252 1.046875 6.359377q0 3.03125 -0.71875 5.390625q-0.703125 2.34375 -1.8125 3.890625q-1.109375 1.546875 -2.4375 2.4375q-1.3125 0.875 -3.1875 1.328125q-1.859375 0.453125 -4.296875 0.453125l-9.640625 0zm3.546875 -3.15625l5.703125 0q2.640625 0 4.140625 -0.484375q1.5 -0.5 2.40625 -1.390625q1.25 -1.25 1.953125 -3.375q0.703125 -2.125 0.703125 -5.15625q0 -4.1875 -1.375 -6.437502q-1.375 -2.25 -3.34375 -3.015625q-1.421875 -0.546875 -4.578125 -0.546875l-5.609375 0l0 20.406252z" fill-rule="nonzero"/><path fill="#3c78d8" d="m271.17322 14.296588l44.787415 0l0 48.0l-44.787415 0z" fill-rule="evenodd"/><path stroke="#000000" stroke-width="4.0" stroke-linejoin="round" stroke-linecap="butt" d="m271.17322 14.296588l44.787415 0l0 48.0l-44.787415 0z" fill-rule="evenodd"/><path fill="#ffffff" d="m284.07126 51.636585l0 -26.718752l19.3125 0l0 3.15625l-15.78125 0l0 8.171877l14.78125 0l0 3.140625l-14.78125 0l0 9.09375l16.40625 0l0 3.15625l-19.9375 0z" fill-rule="nonzero"/><path fill="#3c78d8" d="m91.970604 14.296588l44.787407 0l0 48.0l-44.787407 0z" fill-rule="evenodd"/><path stroke="#000000" stroke-width="4.0" stroke-linejoin="round" stroke-linecap="butt" d="m91.970604 14.296588l44.787407 0l0 48.0l-44.787407 0z" fill-rule="evenodd"/><path fill="#ffffff" d="m101.868645 51.636585l10.25 -26.718752l3.8125 0l10.9375 26.718752l-4.03125 0l-3.109375 -8.09375l-11.171875 0l-2.9375 8.09375l-3.75 0zm7.703125 -10.96875l9.0625 0l-2.796875 -7.40625q-1.265625 -3.375002 -1.890625 -5.531252q-0.515625 2.5625 -1.4375 5.093752l-2.9375 7.84375z" fill-rule="nonzero"/><path fill="#000000" fill-opacity="0.0" d="m91.97113 62.29659l44.7874 0l0 47.999996l-44.7874 0z" fill-rule="evenodd"/><path fill="#000000" d="m105.53164 86.56471q0 -4.75 0.96875 -7.625q0.984375 -2.890625 2.90625 -4.453125q1.921875 -1.578125 4.84375 -1.578125q2.140625 0 3.765625 0.875q1.625 0.859375 2.671875 2.5q1.0625 1.625 1.65625 3.96875q0.609375 2.328125 0.609375 6.3125q0 4.703125 -0.96875 7.59375q-0.953125 2.875 -2.875 4.453125q-1.921875 1.578125 -4.859375 1.578125q-3.875 0 -6.078125 -2.765625q-2.640625 -3.34375 -2.640625 -10.859375zm3.375 0q0 6.578125 1.53125 8.765625q1.546875 2.171875 3.8125 2.171875q2.25 0 3.796875 -2.1875q1.546875 -2.1875 1.546875 -8.75q0 -6.609375 -1.546875 -8.765625q-1.546875 -2.171875 -3.84375 -2.171875q-2.25 0 -3.609375 1.90625q-1.6875 2.453125 -1.6875 9.03125z" fill-rule="nonzero"/><path fill="#000000" fill-opacity="0.0" d="m136.77165 62.29659l44.7874 0l0 47.999996l-44.7874 0z" fill-rule="evenodd"/><path fill="#000000" d="m162.69154 99.73659l-3.28125 0l0 -20.90625q-1.1875 1.125 -3.109375 2.265625q-1.921875 1.125 -3.453125 1.6875l0 -3.171875q2.75 -1.296875 4.8125 -3.125q2.0625 -1.84375 2.921875 -3.578125l2.109375 0l0 26.828125z" fill-rule="nonzero"/><path fill="#000000" fill-opacity="0.0" d="m181.57217 62.29659l44.7874 0l0 47.999996l-44.7874 0z" fill-rule="evenodd"/><path fill="#000000" d="m212.38269 96.58034l0 3.15625l-17.671875 0q-0.03125 -1.1875 0.390625 -2.28125q0.671875 -1.796875 2.15625 -3.546875q1.484375 -1.75 4.296875 -4.046875q4.359375 -3.578125 5.890625 -5.65625q1.53125 -2.09375 1.53125 -3.953125q0 -1.953125 -1.40625 -3.28125q-1.390625 -1.34375 -3.625 -1.34375q-2.375 0 -3.796875 1.421875q-1.421875 1.421875 -1.4375 3.9375l-3.375 -0.34375q0.34375 -3.78125 2.59375 -5.75q2.265625 -1.984375 6.078125 -1.984375q3.84375 0 6.078125 2.140625q2.25 2.125 2.25 5.28125q0 1.59375 -0.65625 3.15625q-0.65625 1.546875 -2.171875 3.265625q-1.515625 1.703125 -5.0625 4.6875q-2.953125 2.484375 -3.796875 3.375q-0.828125 0.875 -1.375 1.765625l13.109375 0z" fill-rule="nonzero"/><path fill="#000000" fill-opacity="0.0" d="m226.3727 62.29659l44.7874 0l0 47.999996l-44.7874 0z" fill-rule="evenodd"/><path fill="#000000" d="m239.94884 92.68971l3.28125 -0.4375q0.5625 2.78125 1.921875 4.015625q1.359375 1.234375 3.3125 1.234375q2.3125 0 3.90625 -1.609375q1.59375 -1.609375 1.59375 -3.96875q0 -2.265625 -1.484375 -3.734375q-1.46875 -1.46875 -3.734375 -1.46875q-0.9375 0 -2.328125 0.359375l0.375 -2.875q0.328125 0.03125 0.53125 0.03125q2.09375 0 3.765625 -1.09375q1.671875 -1.09375 1.671875 -3.359375q0 -1.8125 -1.21875 -2.984375q-1.21875 -1.1875 -3.15625 -1.1875q-1.90625 0 -3.1875 1.203125q-1.265625 1.203125 -1.640625 3.609375l-3.28125 -0.59375q0.609375 -3.296875 2.734375 -5.109375q2.140625 -1.8125 5.3125 -1.8125q2.1875 0 4.015625 0.9375q1.84375 0.9375 2.8125 2.5625q0.98435974 1.625 0.98435974 3.4375q0 1.734375 -0.93748474 3.15625q-0.921875 1.421875 -2.734375 2.265625q2.359375 0.546875 3.6718597 2.265625q1.3125 1.71875 1.3125 4.3125q0 3.5 -2.5468597 5.9375q-2.546875 2.421875 -6.453125 2.421875q-3.515625 0 -5.84375 -2.09375q-2.328125 -2.09375 -2.65625 -5.421875z" fill-rule="nonzero"/><path fill="#000000" fill-opacity="0.0" d="m271.17322 62.29659l44.787415 0l0 47.999996l-44.787415 0z" fill-rule="evenodd"/><path fill="#000000" d="m295.24936 99.73659l0 -6.390625l-11.59375 0l0 -3.015625l12.203125 -17.3125l2.671875 0l0 17.3125l3.609375 0l0 3.015625l-3.609375 0l0 6.390625l-3.28125 0zm0 -9.40625l0 -12.046875l-8.359375 12.046875l8.359375 0z" fill-rule="nonzero"/></g></svg>