<svg version="1.1" viewBox="0.0 0.0 403.7742782152231 156.96325459317586" fill="none" stroke="none" stroke-linecap="square" stroke-miterlimit="10" xmlns:xlink="http://www.w3.org/1999/xlink" xmlns="http://www.w3.org/2000/svg"><clipPath id="p.0"><path d="m0 0l403.7743 0l0 156.96326l-403.7743 0l0 -156.96326z" clip-rule="nonzero"/></clipPath><g clip-path="url(#p.0)"><path fill="#000000" fill-opacity="0.0" d="m0 0l403.7743 0l0 156.96326l-403.7743 0z" fill-rule="evenodd"/><path fill="#efefef" d="m4.3727036 28.82989l0 0c0 -13.623296 11.043863 -24.66716 24.66716 -24.66716l347.3901 0c6.5421143 0 12.816315 2.598854 17.442322 7.2248435c4.6259766 4.62599 7.224823 10.900179 7.224823 17.442316l0 98.66568c0 13.623299 -11.043854 24.667168 -24.667145 24.667168l-347.3901 0l0 0c-13.623297 0 -24.66716 -11.043869 -24.66716 -24.667168z" fill-rule="evenodd"/><path stroke="#666666" stroke-width="3.0" stroke-linejoin="round" stroke-linecap="butt" d="m4.3727036 28.82989l0 0c0 -13.623296 11.043863 -24.66716 24.66716 -24.66716l347.3901 0c6.5421143 0 12.816315 2.598854 17.442322 7.2248435c4.6259766 4.62599 7.224823 10.900179 7.224823 17.442316l0 98.66568c0 13.623299 -11.043854 24.667168 -24.667145 24.667168l-347.3901 0l0 0c-13.623297 0 -24.66716 -11.043869 -24.66716 -24.667168z" fill-rule="evenodd"/><path fill="#3c78d8" d="m109.14856 53.85302l44.7874 0l0 48.0l-44.7874 0z" fill-rule="evenodd"/><path stroke="#000000" stroke-width="4.0" stroke-linejoin="round" stroke-linecap="butt" d="m109.14856 53.85302l44.7874 0l0 48.0l-44.7874 0z" fill-rule="evenodd"/><path fill="#ffffff" d="m121.82785 91.193016l0 -26.71875l10.03125 0q3.0625 0 4.90625 0.8125q1.84375 0.8125 2.890625 2.5q1.046875 1.6875 1.046875 3.515625q0 1.71875 -0.9375 3.234375q-0.921875 1.515625 -2.796875 2.4375q2.421875 0.71875 3.71875 2.4375q1.3125 1.703125 1.3125 4.03125q0 1.875 -0.796875 3.5q-0.78125 1.609375 -1.953125 2.484375q-1.171875 0.875 -2.9375 1.328125q-1.75 0.4375 -4.296875 0.4375l-10.1875 0zm3.53125 -15.5l5.78125 0q2.359375 0 3.375 -0.296875q1.34375 -0.40625 2.03125 -1.328125q0.6875 -0.9375 0.6875 -2.34375q0 -1.328125 -0.640625 -2.328125q-0.640625 -1.015625 -1.828125 -1.390625q-1.1875 -0.375 -4.0625 -0.375l-5.34375 0l0 8.0625zm0 12.34375l6.65625 0q1.71875 0 2.40625 -0.125q1.21875 -0.21875 2.03125 -0.71875q0.828125 -0.515625 1.359375 -1.484375q0.53125 -0.984375 0.53125 -2.265625q0 -1.484375 -0.765625 -2.59375q-0.765625 -1.109375 -2.125 -1.546875q-1.359375 -0.453125 -3.90625 -0.453125l-6.1875 0l0 9.1875z" fill-rule="nonzero"/><path fill="#3c78d8" d="m181.57323 53.85302l44.7874 0l0 48.0l-44.7874 0z" fill-rule="evenodd"/><path stroke="#000000" stroke-width="4.0" stroke-linejoin="round" stroke-linecap="butt" d="m181.57323 53.85302l44.7874 0l0 48.0l-44.7874 0z" fill-rule="evenodd"/><path fill="#ffffff" d="m212.51073 81.818016l3.546875 0.90625q-1.109375 4.34375 -4.0 6.640625q-2.890625 2.28125 -7.0625 2.28125q-4.328125 0 -7.03125 -1.75q-2.703125 -1.765625 -4.125 -5.09375q-1.40625 -3.34375 -1.40625 -7.171875q0 -4.171875 1.59375 -7.28125q1.59375 -3.109375 4.53125 -4.71875q2.953125 -1.609375 6.484375 -1.609375q4.015625 0 6.75 2.046875q2.734375 2.03125 3.8125 5.734375l-3.484375 0.8125q-0.9375 -2.90625 -2.703125 -4.234375q-1.765625 -1.34375 -4.4375 -1.34375q-3.09375 0 -5.15625 1.484375q-2.0625 1.46875 -2.90625 3.96875q-0.84375 2.484375 -0.84375 5.125q0 3.40625 0.984375 5.953125q1.0 2.546875 3.09375 3.8125q2.109375 1.25 4.546875 1.25q2.96875 0 5.03125 -1.71875q2.0625 -1.71875 2.78125 -5.09375z" fill-rule="nonzero"/><path fill="#3c78d8" d="m253.99396 53.85302l44.787415 0l0 48.0l-44.787415 0z" fill-rule="evenodd"/><path stroke="#000000" stroke-width="4.0" stroke-linejoin="round" stroke-linecap="butt" d="m253.99396 53.85302l44.787415 0l0 48.0l-44.787415 0z" fill-rule="evenodd"/><path fill="#ffffff" d="m265.86896 91.193016l0 -26.71875l9.203125 0q3.125 0 4.765625 0.375q2.296875 0.53125 3.921875 1.921875q2.109375 1.78125 3.15625 4.5625q1.046875 2.78125 1.046875 6.359375q0 3.03125 -0.71875 5.390625q-0.703125 2.34375 -1.8125 3.890625q-1.109375 1.546875 -2.4375 2.4375q-1.3125 0.875 -3.1875 1.328125q-1.859375 0.453125 -4.296875 0.453125l-9.640625 0zm3.546875 -3.15625l5.703125 0q2.640625 0 4.140625 -0.484375q1.5 -0.5 2.40625 -1.390625q1.25 -1.25 1.953125 -3.375q0.703125 -2.125 0.703125 -5.15625q0 -4.1875 -1.375 -6.4375q-1.375 -2.25 -3.34375 -3.015625q-1.421875 -0.546875 -4.578125 -0.546875l-5.609375 0l0 20.40625z" fill-rule="nonzero"/><path fill="#3c78d8" d="m326.41733 53.85302l44.787384 0l0 48.0l-44.787384 0z" fill-rule="evenodd"/><path stroke="#000000" stroke-width="4.0" stroke-linejoin="round" stroke-linecap="butt" d="m326.41733 53.85302l44.787384 0l0 48.0l-44.787384 0z" fill-rule="evenodd"/><path fill="#ffffff" d="m339.31537 91.193016l0 -26.71875l19.3125 0l0 3.15625l-15.78125 0l0 8.171875l14.78125 0l0 3.140625l-14.78125 0l0 9.09375l16.40625 0l0 3.15625l-19.9375 0z" fill-rule="nonzero"/><path fill="#3c78d8" d="m36.72651 53.85302l44.7874 0l0 48.0l-44.7874 0z" fill-rule="evenodd"/><path stroke="#000000" stroke-width="4.0" stroke-linejoin="round" stroke-linecap="butt" d="m36.72651 53.85302l44.7874 0l0 48.0l-44.7874 0z" fill-rule="evenodd"/><path fill="#ffffff" d="m46.62455 91.193016l10.25 -26.71875l3.8125 0l10.9375 26.71875l-4.03125 0l-3.109375 -8.09375l-11.171875 0l-2.9375 8.09375l-3.75 0zm7.703125 -10.96875l9.0625 0l-2.796875 -7.40625q-1.265625 -3.375 -1.890625 -5.53125q-0.515625 2.5625 -1.4375 5.09375l-2.9375 7.84375z" fill-rule="nonzero"/><path fill="#000000" fill-opacity="0.0" d="m39.41995 31.27559l327.84253 -2.047245" fill-rule="evenodd"/><path stroke="#000000" stroke-width="4.0" stroke-linejoin="round" stroke-linecap="butt" d="m39.41995 31.27559l314.13443 -1.9616432" fill-rule="evenodd"/><path fill="#000000" stroke="#000000" stroke-width="4.0" stroke-linecap="butt" d="m353.55438 29.313948l-4.470154 4.526335l12.3307495 -4.5754204l-12.386932 -4.42107z" fill-rule="evenodd"/><path fill="#000000" fill-opacity="0.0" d="m370.3491 127.666664l-332.97638 0" fill-rule="evenodd"/><path stroke="#000000" stroke-width="4.0" stroke-linejoin="round" stroke-linecap="butt" d="m370.3491 127.666664l-319.26804 0" fill-rule="evenodd"/><path fill="#000000" stroke="#000000" stroke-width="4.0" stroke-linecap="butt" d="m51.08105 127.666664l4.498333 -4.498329l-12.35907 4.498329l12.35907 4.4983444z" fill-rule="evenodd"/></g></svg>