<svg version="1.1" viewBox="0.0 0.0 1310.4488188976377 291.04461942257217" fill="none" stroke="none" stroke-linecap="square" stroke-miterlimit="10" xmlns:xlink="http://www.w3.org/1999/xlink" xmlns="http://www.w3.org/2000/svg"><clipPath id="p.0"><path d="m0 0l1310.4489 0l0 291.04462l-1310.4489 0l0 -291.04462z" clip-rule="nonzero"/></clipPath><g clip-path="url(#p.0)"><path fill="#000000" fill-opacity="0.0" d="m0 0l1310.4489 0l0 291.04462l-1310.4489 0z" fill-rule="evenodd"/><path fill="#cfe2f3" d="m1.6692777 129.25197l242.51968 0l0 50.960632l-242.51968 0z" fill-rule="evenodd"/><path stroke="#000000" stroke-width="1.0" stroke-linejoin="round" stroke-linecap="butt" d="m1.6692777 129.25197l242.51968 0l0 50.960632l-242.51968 0z" fill-rule="evenodd"/><path fill="#000000" d="m54.35303 159.48917l4.046875 1.015625q-1.28125 4.984375 -4.578125 7.59375q-3.296875 2.609375 -8.078125 2.609375q-4.9375 0 -8.03125 -2.0q-3.078125 -2.015625 -4.703125 -5.828125q-1.609375 -3.8125 -1.609375 -8.1875q0 -4.765625 1.8125 -8.3125q1.828125 -3.5625 5.1875 -5.40625q3.375 -1.84375 7.40625 -1.84375q4.59375 0 7.71875 2.34375q3.125 2.328125 4.34375 6.5625l-3.96875 0.9375q-1.0625 -3.34375 -3.09375 -4.859375q-2.015625 -1.515625 -5.078125 -1.515625q-3.515625 0 -5.890625 1.6875q-2.359375 1.6875 -3.3125 4.53125q-0.953125 2.84375 -0.953125 5.859375q0 3.890625 1.125 6.796875q1.140625 2.90625 3.53125 4.34375q2.390625 1.4375 5.1875 1.4375q3.390625 0 5.75 -1.953125q2.359375 -1.96875 3.1875 -5.8125zm7.1487274 -0.359375q0 -6.140625 3.4062538 -9.09375q2.859375 -2.46875 6.953125 -2.46875q4.5625 0 7.453125 3.0q2.90625 2.984375 2.90625 8.25q0 4.265625 -1.28125 6.71875q-1.28125 2.453125 -3.734375 3.8125q-2.4375 1.34375 -5.34375 1.34375q-4.640625 0 -7.5 -2.96875q-2.8593788 -2.984375 -2.8593788 -8.59375zm3.8437538 0q0 4.25 1.859375 6.375q1.859375 2.109375 4.65625 2.109375q2.796875 0 4.640625 -2.125q1.859375 -2.125 1.859375 -6.484375q0 -4.09375 -1.859375 -6.203125q-1.859375 -2.125 -4.640625 -2.125q-2.796875 0 -4.65625 2.109375q-1.859375 2.09375 -1.859375 6.34375zm21.192123 11.0625l0 -30.53125l3.75 0l0 30.53125l-3.75 0zm9.476852 0l0 -30.53125l3.75 0l0 30.53125l-3.75 0zm24.695602 -7.125l3.875 0.484375q-0.921875 3.390625 -3.40625 5.265625q-2.46875 1.875 -6.328125 1.875q-4.84375 0 -7.6875 -2.984375q-2.84375 -3.0 -2.84375 -8.390625q0 -5.578125 2.875 -8.65625q2.875 -3.09375 7.453125 -3.09375q4.4375 0 7.25 3.03125q2.8125 3.015625 2.8125 8.5q0 0.328125 -0.015625 0.984375l-16.5 0q0.203125 3.65625 2.0625 5.59375q1.859375 1.9375 4.625 1.9375q2.0625 0 3.515625 -1.078125q1.453125 -1.09375 2.3125 -3.46875zm-12.3125 -6.0625l12.359375 0q-0.25 -2.78125 -1.421875 -4.1875q-1.796875 -2.15625 -4.640625 -2.15625q-2.578125 0 -4.34375 1.734375q-1.765625 1.71875 -1.953125 4.609375zm35.332756 5.078125l3.6875 0.484375q-0.609375 3.8125 -3.109375 5.96875q-2.484375 2.15625 -6.109375 2.15625q-4.53125 0 -7.296875 -2.96875q-2.7500153 -2.96875 -2.7500153 -8.5q0 -3.59375 1.1875 -6.28125q1.1875153 -2.6875 3.6093903 -4.03125q2.421875 -1.34375 5.28125 -1.34375q3.59375 0 5.890625 1.828125q2.296875 1.828125 2.9375 5.171875l-3.640625 0.5625q-0.53125 -2.21875 -1.859375 -3.34375q-1.3125 -1.125 -3.1875 -1.125q-2.828125 0 -4.609375 2.03125q-1.765625 2.03125 -1.765625 6.421875q0 4.453125 1.703125 6.484375q1.71875 2.015625 4.46875 2.015625q2.203125 0 3.671875 -1.359375q1.484375 -1.359375 1.890625 -4.171875zm15.078125 4.75l0.53125 3.3125q-1.578125 0.34375 -2.828125 0.34375q-2.03125 0 -3.15625 -0.640625q-1.125 -0.65625 -1.59375 -1.703125q-0.453125 -1.0625 -0.453125 -4.4375l0 -12.71875l-2.75 0l0 -2.921875l2.75 0l0 -5.46875l3.734375 -2.25l0 7.71875l3.765625 0l0 2.921875l-3.765625 0l0 12.9375q0 1.59375 0.1875 2.0625q0.203125 0.453125 0.640625 0.734375q0.453125 0.265625 1.296875 0.265625q0.625 0 1.640625 -0.15625zm3.6793823 -22.859375l0 -4.3125l3.75 0l0 4.3125l-3.75 0zm0 26.21875l0 -22.125l3.75 0l0 22.125l-3.75 0zm8.070618 -11.0625q0 -6.140625 3.40625 -9.09375q2.859375 -2.46875 6.953125 -2.46875q4.5625 0 7.453125 3.0q2.90625 2.984375 2.90625 8.25q0 4.265625 -1.28125 6.71875q-1.28125 2.453125 -3.734375 3.8125q-2.4375 1.34375 -5.34375 1.34375q-4.640625 0 -7.5 -2.96875q-2.859375 -2.984375 -2.859375 -8.59375zm3.84375 0q0 4.25 1.859375 6.375q1.859375 2.109375 4.65625 2.109375q2.796875 0 4.640625 -2.125q1.859375 -2.125 1.859375 -6.484375q0 -4.09375 -1.859375 -6.203125q-1.859375 -2.125 -4.640625 -2.125q-2.796875 0 -4.65625 2.109375q-1.859375 2.09375 -1.859375 6.34375zm21.270233 11.0625l0 -22.125l3.375 0l0 3.15625q2.4375 -3.65625 7.03125 -3.65625q2.0 0 3.671875 0.71875q1.6875 0.71875 2.515625 1.890625q0.84375 1.171875 1.171875 2.765625q0.203125 1.046875 0.203125 3.65625l0 13.59375l-3.75 0l0 -13.453125q0 -2.296875 -0.4375 -3.421875q-0.4375 -1.140625 -1.546875 -1.8125q-1.109375 -0.6875 -2.609375 -0.6875q-2.390625 0 -4.140625 1.53125q-1.734375 1.515625 -1.734375 5.765625l0 12.078125l-3.75 0z" fill-rule="nonzero"/><path fill="#cfe2f3" d="m1.6692914 23.464567l242.51968 0l0 50.960625l-242.51968 0z" fill-rule="evenodd"/><path stroke="#000000" stroke-width="1.0" stroke-linejoin="round" stroke-linecap="butt" d="m1.6692914 23.464567l242.51968 0l0 50.960625l-242.51968 0z" fill-rule="evenodd"/><path fill="#000000" d="m55.77463 64.404884l0 -30.531254l4.03125 0l0 30.531254l-4.03125 0zm18.866894 -3.3593788l0.53125 3.3125038q-1.578125 0.34375 -2.828125 0.34375q-2.03125 0 -3.15625 -0.640625q-1.125 -0.6562538 -1.59375 -1.7031288q-0.453125 -1.0625 -0.453125 -4.4375l0 -12.71875l-2.75 0l0 -2.921875l2.75 0l0 -5.46875l3.734375 -2.25l0 7.71875l3.765625 0l0 2.921875l-3.765625 0l0 12.9375q0 1.59375 0.1875 2.0625q0.203125 0.453125 0.640625 0.734375q0.453125 0.265625 1.296875 0.265625q0.625 0 1.640625 -0.15625zm18.804398 -3.765625l3.875 0.484375q-0.921875 3.390625 -3.40625 5.265625q-2.46875 1.8750038 -6.328125 1.8750038q-4.84375 0 -7.6875 -2.9843788q-2.84375 -3.0 -2.84375 -8.390625q0 -5.578125 2.875 -8.65625q2.875 -3.09375 7.453125 -3.09375q4.4375 0 7.25 3.03125q2.8125 3.015625 2.8125 8.5q0 0.328125 -0.015625 0.984375l-16.5 0q0.203125 3.65625 2.0625 5.59375q1.859375 1.9375 4.625 1.9375q2.0625 0 3.515625 -1.078125q1.453125 -1.09375 2.3125 -3.46875zm-12.3125 -6.0625l12.359375 0q-0.25 -2.78125 -1.421875 -4.1875q-1.796875 -2.15625 -4.640625 -2.15625q-2.578125 0 -4.34375 1.734375q-1.765625 1.71875 -1.953125 4.609375zm20.848373 13.187504l0 -22.125004l3.375 0l0 3.359375q1.296875 -2.359375 2.390625 -3.109375q1.09375 -0.75 2.40625 -0.75q1.890625 0 3.84375 1.21875l-1.28125 3.46875q-1.375 -0.8125 -2.75 -0.8125q-1.234375 0 -2.21875 0.75q-0.96875 0.734375 -1.390625 2.046875q-0.625 2.0 -0.625 4.375l0 11.578129l-3.75 0zm28.68924 -2.7343788q-2.09375 1.78125 -4.015625 2.5156288q-1.921875 0.71875 -4.125 0.71875q-3.65625 0 -5.609375 -1.7812538q-1.953125 -1.78125 -1.953125 -4.546875q0 -1.625 0.734375 -2.96875q0.734375 -1.34375 1.9375 -2.15625q1.203125 -0.8125 2.703125 -1.234375q1.09375 -0.28125 3.328125 -0.5625q4.53125 -0.53125 6.6875 -1.28125q0.015625 -0.78125 0.015625 -0.984375q0 -2.296875 -1.0625 -3.234375q-1.4375 -1.265625 -4.265625 -1.265625q-2.640625 0 -3.90625 0.9375q-1.265625 0.921875 -1.859375 3.265625l-3.671875 -0.5q0.5 -2.34375 1.640625 -3.796875q1.15625 -1.453125 3.3125 -2.234375q2.171875 -0.78125 5.015625 -0.78125q2.84375 0 4.609375 0.671875q1.765625 0.671875 2.59375 1.6875q0.84375 1.0 1.171875 2.546875q0.1875 0.953125 0.1875 3.453125l0 5.0q0 5.21875 0.234375 6.609375q0.25 1.390625 0.953125 2.6562538l-3.90625 0q-0.59375 -1.1718788 -0.75 -2.7343788zm-0.3125 -8.359375q-2.046875 0.828125 -6.125 1.40625q-2.3125 0.328125 -3.28125 0.75q-0.953125 0.421875 -1.46875 1.21875q-0.515625 0.796875 -0.515625 1.78125q0 1.5 1.125 2.5q1.140625 1.0 3.328125 1.0q2.15625 0 3.84375 -0.9375q1.6875 -0.953125 2.484375 -2.609375q0.609375 -1.265625 0.609375 -3.75l0 -1.359375zm13.051514 11.093754l-3.46875 0l0 -30.531254l3.75 0l0 10.890625q2.375 -2.984375 6.046875 -2.984375q2.046875 0 3.859375 0.828125q1.828125 0.828125 3.0 2.3125q1.1875 1.484375 1.84375 3.59375q0.671875 2.109375 0.671875 4.5q0 5.6875 -2.8125 8.796875q-2.8125 3.0937538 -6.75 3.0937538q-3.90625 0 -6.140625 -3.2656288l0 2.7656288zm-0.03125 -11.218754q0 3.96875 1.078125 5.734375q1.765625 2.90625 4.78125 2.90625q2.46875 0 4.25 -2.140625q1.796875 -2.140625 1.796875 -6.359375q0 -4.328125 -1.71875 -6.390625q-1.71875 -2.0625 -4.15625 -2.0625q-2.453125 0 -4.25 2.140625q-1.78125 2.125 -1.78125 6.171875zm20.223358 11.218754l0 -30.531254l3.75 0l0 30.531254l-3.75 0zm24.695618 -7.125004l3.875 0.484375q-0.921875 3.390625 -3.40625 5.265625q-2.46875 1.8750038 -6.328125 1.8750038q-4.84375 0 -7.6875 -2.9843788q-2.84375 -3.0 -2.84375 -8.390625q0 -5.578125 2.875 -8.65625q2.875 -3.09375 7.453125 -3.09375q4.4375 0 7.25 3.03125q2.8125 3.015625 2.8125 8.5q0 0.328125 -0.015625 0.984375l-16.5 0q0.203125 3.65625 2.0625 5.59375q1.859375 1.9375 4.625 1.9375q2.0625 0 3.515625 -1.078125q1.453125 -1.09375 2.3125 -3.46875zm-12.3125 -6.0625l12.359375 0q-0.25 -2.78125 -1.421875 -4.1875q-1.796875 -2.15625 -4.640625 -2.15625q-2.578125 0 -4.34375 1.734375q-1.765625 1.71875 -1.953125 4.609375z" fill-rule="nonzero"/><path fill="#fce5cd" d="m329.92126 104.46326l245.22833 0l0 100.53543l-245.22833 0z" fill-rule="evenodd"/><path stroke="#000000" stroke-width="1.0" stroke-linejoin="round" stroke-linecap="butt" d="m329.92126 104.46326l245.22833 0l0 100.53543l-245.22833 0z" fill-rule="evenodd"/><path fill="#000000" d="m346.53574 134.87846l3.8125 -0.328125q0.265625 2.28125 1.25 3.75q1.0 1.46875 3.078125 2.375q2.078125 0.90625 4.6875 0.90625q2.3125 0 4.078125 -0.6875q1.765625 -0.6875 2.625 -1.875q0.875 -1.203125 0.875 -2.625q0 -1.4375 -0.84375 -2.5q-0.828125 -1.078125 -2.734375 -1.796875q-1.234375 -0.484375 -5.4375 -1.484375q-4.203125 -1.015625 -5.890625 -1.921875q-2.1875 -1.1406174 -3.265625 -2.8281174q-1.078125 -1.703125 -1.078125 -3.8125q0 -2.3125 1.3125 -4.3125q1.3125 -2.015625 3.828125 -3.0625q2.53125 -1.046875 5.609375 -1.046875q3.390625 0 5.984375 1.09375q2.59375 1.09375 3.984375 3.21875q1.40625 2.125 1.515625 4.8125l-3.875 0.296875q-0.3125 -2.890625 -2.125 -4.375q-1.796875 -1.484375 -5.3125 -1.484375q-3.671875 0 -5.34375 1.34375q-1.671875 1.34375 -1.671875 3.25q0 1.640625 1.1875 2.703125q1.15625 1.0625 6.078125 2.1875q4.9375 1.109375 6.765625 1.9374924q2.671875 1.234375 3.9375 3.125q1.265625 1.875 1.265625 4.328125q0 2.4375 -1.390625 4.59375q-1.390625 2.15625 -4.015625 3.359375q-2.609375 1.1875 -5.875 1.1875q-4.15625 0 -6.953125 -1.203125q-2.796875 -1.203125 -4.390625 -3.625q-1.59375 -2.4375 -1.671875 -5.5zm44.482635 2.6875l3.875 0.484375q-0.921875 3.390625 -3.40625 5.265625q-2.46875 1.875 -6.328125 1.875q-4.84375 0 -7.6875 -2.984375q-2.84375 -3.0 -2.84375 -8.390625q0 -5.578125 2.875 -8.656242q2.875 -3.09375 7.453125 -3.09375q4.4375 0 7.25 3.03125q2.8125 3.0156174 2.8125 8.499992q0 0.328125 -0.015625 0.984375l-16.5 0q0.203125 3.65625 2.0625 5.59375q1.859375 1.9375 4.625 1.9375q2.0625 0 3.515625 -1.078125q1.453125 -1.09375 2.3125 -3.46875zm-12.3125 -6.0625l12.359375 0q-0.25 -2.78125 -1.421875 -4.1874924q-1.796875 -2.15625 -4.640625 -2.15625q-2.578125 0 -4.34375 1.734375q-1.765625 1.7187424 -1.953125 4.6093674zm34.989014 21.671875l0 -10.84375q-0.875 1.234375 -2.453125 2.046875q-1.5625 0.8125 -3.328125 0.8125q-3.9375 0 -6.78125 -3.140625q-2.84375 -3.15625 -2.84375 -8.625q0 -3.328125 1.15625 -5.9687424q1.15625 -2.65625 3.34375 -4.015625q2.203125 -1.375 4.828125 -1.375q4.109375 0 6.453125 3.46875l0 -2.96875l3.375 0l0 30.609367l-3.75 0zm-11.546875 -19.609375q0 4.265625 1.78125 6.40625q1.796875 2.140625 4.296875 2.140625q2.390625 0 4.109375 -2.03125q1.734375 -2.03125 1.734375 -6.171875q0 -4.421875 -1.828125 -6.6406174q-1.8125 -2.234375 -4.265625 -2.234375q-2.4375 0 -4.140625 2.078125q-1.6875 2.0624924 -1.6875 6.4531174zm35.676483 11.125l0 -3.25q-2.59375 3.75 -7.015625 3.75q-1.96875 0 -3.671875 -0.75q-1.6875 -0.75 -2.515625 -1.875q-0.8125 -1.140625 -1.15625 -2.796875q-0.21875 -1.09375 -0.21875 -3.5l0 -13.703117l3.75 0l0 12.265617q0 2.9375 0.21875 3.96875q0.359375 1.46875 1.5 2.3125q1.15625 0.84375 2.828125 0.84375q1.6875 0 3.171875 -0.859375q1.484375 -0.859375 2.09375 -2.34375q0.609375 -1.5 0.609375 -4.328125l0 -11.859367l3.75 0l0 22.124992l-3.34375 0zm24.364014 -7.125l3.875 0.484375q-0.921875 3.390625 -3.40625 5.265625q-2.46875 1.875 -6.328125 1.875q-4.84375 0 -7.6875 -2.984375q-2.84375 -3.0 -2.84375 -8.390625q0 -5.578125 2.875 -8.656242q2.875 -3.09375 7.453125 -3.09375q4.4375 0 7.25 3.03125q2.8125 3.0156174 2.8125 8.499992q0 0.328125 -0.015625 0.984375l-16.5 0q0.203125 3.65625 2.0625 5.59375q1.859375 1.9375 4.625 1.9375q2.0625 0 3.515625 -1.078125q1.453125 -1.09375 2.3125 -3.46875zm-12.3125 -6.0625l12.359375 0q-0.25 -2.78125 -1.421875 -4.1874924q-1.796875 -2.15625 -4.640625 -2.15625q-2.578125 0 -4.34375 1.734375q-1.765625 1.7187424 -1.953125 4.6093674zm20.895233 13.1875l0 -22.124992l3.375 0l0 3.15625q2.4375 -3.65625 7.03125 -3.65625q2.0 0 3.671875 0.71875q1.6875 0.71875 2.515625 1.890625q0.84375 1.171875 1.171875 2.765625q0.203125 1.0468674 0.203125 3.6562424l0 13.59375l-3.75 0l0 -13.453125q0 -2.296875 -0.4375 -3.4218674q-0.4375 -1.140625 -1.546875 -1.8125q-1.109375 -0.6875 -2.609375 -0.6875q-2.390625 0 -4.140625 1.53125q-1.734375 1.5156174 -1.734375 5.7656174l0 12.078125l-3.75 0zm38.16089 -8.109375l3.6875 0.484375q-0.609375 3.8125 -3.109375 5.96875q-2.484375 2.15625 -6.109375 2.15625q-4.53125 0 -7.296875 -2.96875q-2.75 -2.96875 -2.75 -8.5q0 -3.59375 1.1875 -6.2812424q1.1875 -2.6875 3.609375 -4.03125q2.421875 -1.34375 5.28125 -1.34375q3.59375 0 5.890625 1.828125q2.296875 1.828125 2.9375 5.1718674l-3.640625 0.5625q-0.53125 -2.2187424 -1.859375 -3.3437424q-1.3125 -1.125 -3.1875 -1.125q-2.828125 0 -4.609375 2.03125q-1.765625 2.0312424 -1.765625 6.4218674q0 4.453125 1.703125 6.484375q1.71875 2.015625 4.46875 2.015625q2.203125 0 3.671875 -1.359375q1.484375 -1.359375 1.890625 -4.171875zm22.03125 0.984375l3.875 0.484375q-0.921875 3.390625 -3.40625 5.265625q-2.46875 1.875 -6.328125 1.875q-4.84375 0 -7.6875 -2.984375q-2.84375 -3.0 -2.84375 -8.390625q0 -5.578125 2.875 -8.656242q2.875 -3.09375 7.453125 -3.09375q4.4375 0 7.25 3.03125q2.8125 3.0156174 2.8125 8.499992q0 0.328125 -0.015625 0.984375l-16.5 0q0.203125 3.65625 2.0625 5.59375q1.859375 1.9375 4.625 1.9375q2.0625 0 3.515625 -1.078125q1.453125 -1.09375 2.3125 -3.46875zm-12.3125 -6.0625l12.359375 0q-0.25 -2.78125 -1.421875 -4.1874924q-1.796875 -2.15625 -4.640625 -2.15625q-2.578125 0 -4.34375 1.734375q-1.765625 1.7187424 -1.953125 4.6093674zm35.239014 13.1875l0 -2.796875q-2.09375 3.296875 -6.1875 3.296875q-2.640625 0 -4.859375 -1.453125q-2.21875 -1.46875 -3.4375 -4.078125q-1.21875 -2.609375 -1.21875 -6.0q0 -3.3125 1.109375 -6.0156174q1.109375 -2.703125 3.3125 -4.140625q2.203125 -1.4375 4.9375 -1.4375q2.0 0 3.5625 0.84375q1.5625 0.84375 2.53125 2.203125l0 -10.953125l3.734375 0l0 30.531242l-3.484375 0zm-11.84375 -11.03125q0 4.234375 1.78125 6.34375q1.796875 2.109375 4.234375 2.109375q2.453125 0 4.171875 -2.015625q1.71875 -2.015625 1.71875 -6.125q0 -4.546875 -1.75 -6.6718674q-1.75 -2.125 -4.3125 -2.125q-2.484375 0 -4.171875 2.046875q-1.671875 2.0312424 -1.671875 6.4374924z" fill-rule="nonzero"/><path fill="#000000" d="m383.95935 184.98784l4.046875 1.015625q-1.28125 4.984375 -4.578125 7.59375q-3.296875 2.609375 -8.078125 2.609375q-4.9375 0 -8.03125 -2.0q-3.078125 -2.015625 -4.703125 -5.828125q-1.609375 -3.8125 -1.609375 -8.1875q0 -4.765625 1.8125 -8.3125q1.828125 -3.5625 5.1875 -5.40625q3.375 -1.84375 7.40625 -1.84375q4.59375 0 7.71875 2.34375q3.125 2.328125 4.34375 6.5625l-3.96875 0.9375q-1.0625 -3.34375 -3.09375 -4.859375q-2.015625 -1.515625 -5.078125 -1.515625q-3.515625 0 -5.890625 1.6875q-2.359375 1.6875 -3.3125 4.53125q-0.953125 2.84375 -0.953125 5.859375q0 3.890625 1.125 6.796875q1.140625 2.90625 3.53125 4.34375q2.390625 1.4375 5.1875 1.4375q3.390625 0 5.75 -1.953125q2.359375 -1.96875 3.1875 -5.8125zm7.148712 -0.359375q0 -6.140625 3.40625 -9.09375q2.859375 -2.46875 6.953125 -2.46875q4.5625 0 7.453125 3.0q2.90625 2.984375 2.90625 8.25q0 4.265625 -1.28125 6.71875q-1.28125 2.453125 -3.734375 3.8125q-2.4375 1.34375 -5.34375 1.34375q-4.640625 0 -7.5 -2.96875q-2.859375 -2.984375 -2.859375 -8.59375zm3.84375 0q0 4.25 1.859375 6.375q1.859375 2.109375 4.65625 2.109375q2.796875 0 4.640625 -2.125q1.859375 -2.125 1.859375 -6.484375q0 -4.09375 -1.859375 -6.203125q-1.859375 -2.125 -4.640625 -2.125q-2.796875 0 -4.65625 2.109375q-1.859375 2.09375 -1.859375 6.34375zm21.192139 11.0625l0 -30.53125l3.75 0l0 30.53125l-3.75 0zm9.476837 0l0 -30.53125l3.75 0l0 30.53125l-3.75 0zm24.695618 -7.125l3.875 0.484375q-0.921875 3.390625 -3.40625 5.265625q-2.46875 1.875 -6.328125 1.875q-4.84375 0 -7.6875 -2.984375q-2.84375 -3.0 -2.84375 -8.390625q0 -5.578125 2.875 -8.65625q2.875 -3.09375 7.453125 -3.09375q4.4375 0 7.25 3.03125q2.8125 3.015625 2.8125 8.5q0 0.328125 -0.015625 0.984375l-16.5 0q0.203125 3.65625 2.0625 5.59375q1.859375 1.9375 4.625 1.9375q2.0625 0 3.515625 -1.078125q1.453125 -1.09375 2.3125 -3.46875zm-12.3125 -6.0625l12.359375 0q-0.25 -2.78125 -1.421875 -4.1875q-1.796875 -2.15625 -4.640625 -2.15625q-2.578125 0 -4.34375 1.734375q-1.765625 1.71875 -1.953125 4.609375zm35.332733 5.078125l3.6875 0.484375q-0.609375 3.8125 -3.109375 5.96875q-2.484375 2.15625 -6.109375 2.15625q-4.53125 0 -7.296875 -2.96875q-2.75 -2.96875 -2.75 -8.5q0 -3.59375 1.1875 -6.28125q1.1875 -2.6875 3.609375 -4.03125q2.421875 -1.34375 5.28125 -1.34375q3.59375 0 5.890625 1.828125q2.296875 1.828125 2.9375 5.171875l-3.640625 0.5625q-0.53125 -2.21875 -1.859375 -3.34375q-1.3125 -1.125 -3.1875 -1.125q-2.828125 0 -4.609375 2.03125q-1.765625 2.03125 -1.765625 6.421875q0 4.453125 1.703125 6.484375q1.71875 2.015625 4.46875 2.015625q2.203125 0 3.671875 -1.359375q1.484375 -1.359375 1.890625 -4.171875zm15.078125 4.75l0.53125 3.3125q-1.578125 0.34375 -2.828125 0.34375q-2.03125 0 -3.15625 -0.640625q-1.125 -0.65625 -1.59375 -1.703125q-0.453125 -1.0625 -0.453125 -4.4375l0 -12.71875l-2.75 0l0 -2.921875l2.75 0l0 -5.46875l3.734375 -2.25l0 7.71875l3.765625 0l0 2.921875l-3.765625 0l0 12.9375q0 1.59375 0.1875 2.0625q0.203125 0.453125 0.640625 0.734375q0.453125 0.265625 1.296875 0.265625q0.625 0 1.640625 -0.15625zm3.6794128 -22.859375l0 -4.3125l3.75 0l0 4.3125l-3.75 0zm0 26.21875l0 -22.125l3.75 0l0 22.125l-3.75 0zm8.070587 -11.0625q0 -6.140625 3.40625 -9.09375q2.859375 -2.46875 6.953125 -2.46875q4.5625305 0 7.4531555 3.0q2.90625 2.984375 2.90625 8.25q0 4.265625 -1.28125 6.71875q-1.28125 2.453125 -3.734375 3.8125q-2.4375 1.34375 -5.3437805 1.34375q-4.640625 0 -7.5 -2.96875q-2.859375 -2.984375 -2.859375 -8.59375zm3.84375 0q0 4.25 1.859375 6.375q1.859375 2.109375 4.65625 2.109375q2.7969055 0 4.6406555 -2.125q1.859375 -2.125 1.859375 -6.484375q0 -4.09375 -1.859375 -6.203125q-1.859375 -2.125 -4.6406555 -2.125q-2.796875 0 -4.65625 2.109375q-1.859375 2.09375 -1.859375 6.34375zm21.270233 11.0625l0 -22.125l3.375 0l0 3.15625q2.4375 -3.65625 7.03125 -3.65625q2.0 0 3.671875 0.71875q1.6875 0.71875 2.515625 1.890625q0.84375 1.171875 1.171875 2.765625q0.203125 1.046875 0.203125 3.65625l0 13.59375l-3.75 0l0 -13.453125q0 -2.296875 -0.4375 -3.421875q-0.4375 -1.140625 -1.546875 -1.8125q-1.109375 -0.6875 -2.609375 -0.6875q-2.390625 0 -4.140625 1.53125q-1.734375 1.515625 -1.734375 5.765625l0 12.078125l-3.75 0z" fill-rule="nonzero"/><path fill="#fce5cd" d="m661.16406 129.25197l322.86615 0l0 50.960632l-322.86615 0z" fill-rule="evenodd"/><path stroke="#000000" stroke-width="1.0" stroke-linejoin="round" stroke-linecap="butt" d="m661.16406 129.25197l322.86615 0l0 50.960632l-322.86615 0z" fill-rule="evenodd"/><path fill="#000000" d="m792.5323 170.19229l0 -30.53125l4.046875 0l0 26.921875l15.03125 0l0 3.609375l-19.078125 0zm23.426514 -26.21875l0 -4.3125l3.75 0l0 4.3125l-3.75 0zm0 26.21875l0 -22.125l3.75 0l0 22.125l-3.75 0zm7.9612427 -6.609375l3.703125 -0.578125q0.3125 2.234375 1.734375 3.421875q1.4375 1.1875 4.0 1.1875q2.578125 0 3.828125 -1.046875q1.25 -1.0625 1.25 -2.484375q0 -1.265625 -1.109375 -2.0q-0.765625 -0.5 -3.828125 -1.265625q-4.125 -1.046875 -5.71875 -1.796875q-1.59375 -0.765625 -2.421875 -2.109375q-0.8125 -1.34375 -0.8125 -2.96875q0 -1.46875 0.671875 -2.734375q0.6875 -1.265625 1.84375 -2.09375q0.875 -0.640625 2.390625 -1.09375q1.515625 -0.453125 3.234375 -0.453125q2.609375 0 4.578125 0.75q1.96875 0.75 2.90625 2.03125q0.9375 1.28125 1.28125 3.4375l-3.65625 0.5q-0.25 -1.71875 -1.453125 -2.671875q-1.203125 -0.953125 -3.375 -0.953125q-2.59375 0 -3.703125 0.859375q-1.09375 0.84375 -1.09375 1.984375q0 0.734375 0.453125 1.3125q0.46875 0.609375 1.4375 1.0q0.5625 0.21875 3.3125 0.96875q3.984375 1.0625 5.546875 1.734375q1.578125 0.671875 2.46875 1.96875q0.90625 1.28125 0.90625 3.203125q0 1.875 -1.09375 3.53125q-1.09375 1.65625 -3.15625 2.5625q-2.0625 0.90625 -4.671875 0.90625q-4.3125 0 -6.578125 -1.78125q-2.25 -1.796875 -2.875 -5.328125zm31.015625 3.25l0.53125 3.3125q-1.578125 0.34375 -2.828125 0.34375q-2.03125 0 -3.15625 -0.640625q-1.125 -0.65625 -1.59375 -1.703125q-0.453125 -1.0625 -0.453125 -4.4375l0 -12.71875l-2.75 0l0 -2.921875l2.75 0l0 -5.46875l3.734375 -2.25l0 7.71875l3.765625 0l0 2.921875l-3.765625 0l0 12.9375q0 1.59375 0.1875 2.0625q0.203125 0.453125 0.640625 0.734375q0.453125 0.265625 1.296875 0.265625q0.625 0 1.640625 -0.15625z" fill-rule="nonzero"/><path fill="#cfe2f3" d="m329.92126 23.464567l243.87402 0l0 50.960625l-243.87402 0z" fill-rule="evenodd"/><path stroke="#000000" stroke-width="1.0" stroke-linejoin="round" stroke-linecap="butt" d="m329.92126 23.464567l243.87402 0l0 50.960625l-243.87402 0z" fill-rule="evenodd"/><path fill="#000000" d="m421.76712 54.59238l3.8125 -0.328125q0.265625 2.28125 1.25 3.75q1.0 1.46875 3.078125 2.375q2.078125 0.90625 4.6875 0.90625q2.3125 0 4.078125 -0.6875q1.765625 -0.6875 2.625 -1.875q0.875 -1.203125 0.875 -2.625q0 -1.4375 -0.84375 -2.5q-0.828125 -1.078125 -2.734375 -1.796875q-1.234375 -0.484375 -5.4375 -1.484375q-4.203125 -1.015625 -5.890625 -1.921875q-2.1875 -1.140625 -3.265625 -2.828125q-1.078125 -1.703125 -1.078125 -3.8125q0 -2.3125 1.3125 -4.3125q1.3125 -2.015625 3.828125 -3.0625q2.53125 -1.046875 5.609375 -1.046875q3.390625 0 5.984375 1.09375q2.59375 1.09375 3.984375 3.21875q1.40625 2.125 1.515625 4.8125l-3.875 0.296875q-0.3125 -2.890625 -2.125 -4.375q-1.796875 -1.484375 -5.3125 -1.484375q-3.671875 0 -5.34375 1.34375q-1.671875 1.34375 -1.671875 3.25q0 1.640625 1.1875 2.703125q1.15625 1.0625 6.078125 2.1875q4.9375 1.109375 6.765625 1.9375q2.671875 1.234375 3.9375 3.125q1.265625 1.875 1.265625 4.328125q0 2.4375 -1.390625 4.59375q-1.390625 2.15625 -4.015625 3.359375q-2.609375 1.1875038 -5.875 1.1875038q-4.15625 0 -6.953125 -1.2031288q-2.796875 -1.203125 -4.390625 -3.625q-1.59375 -2.4375 -1.671875 -5.5zm44.482635 2.6875l3.875 0.484375q-0.921875 3.390625 -3.40625 5.265625q-2.46875 1.8750038 -6.328125 1.8750038q-4.84375 0 -7.6875 -2.9843788q-2.84375 -3.0 -2.84375 -8.390625q0 -5.578125 2.875 -8.65625q2.875 -3.09375 7.453125 -3.09375q4.4375 0 7.25 3.03125q2.8125 3.015625 2.8125 8.5q0 0.328125 -0.015625 0.984375l-16.5 0q0.203125 3.65625 2.0625 5.59375q1.859375 1.9375 4.625 1.9375q2.0625 0 3.515625 -1.078125q1.453125 -1.09375 2.3125 -3.46875zm-12.3125 -6.0625l12.359375 0q-0.25 -2.78125 -1.421875 -4.1875q-1.796875 -2.15625 -4.640625 -2.15625q-2.578125 0 -4.34375 1.734375q-1.765625 1.71875 -1.953125 4.609375zm29.082764 9.828125l0.53125 3.3125038q-1.578125 0.34375 -2.828125 0.34375q-2.03125 0 -3.15625 -0.640625q-1.125 -0.6562538 -1.59375 -1.7031288q-0.453125 -1.0625 -0.453125 -4.4375l0 -12.71875l-2.75 0l0 -2.921875l2.75 0l0 -5.46875l3.734375 -2.25l0 7.71875l3.765625 0l0 2.921875l-3.765625 0l0 12.9375q0 1.59375 0.1875 2.0625q0.203125 0.453125 0.640625 0.734375q0.453125 0.265625 1.296875 0.265625q0.625 0 1.640625 -0.15625z" fill-rule="nonzero"/><path fill="#cfe2f3" d="m329.92126 235.03937l243.87402 0l0 50.960632l-243.87402 0z" fill-rule="evenodd"/><path stroke="#000000" stroke-width="1.0" stroke-linejoin="round" stroke-linecap="butt" d="m329.92126 235.03937l243.87402 0l0 50.960632l-243.87402 0z" fill-rule="evenodd"/><path fill="#000000" d="m414.2593 272.71405q2.8125 1.9375 5.1875 2.828125l-1.1875 2.8125q-3.296875 -1.1875 -6.5625 -3.75q-3.40625 1.890625 -7.5 1.890625q-4.15625 0 -7.53125 -2.0q-3.359375 -2.0 -5.1875 -5.609375q-1.828125 -3.625 -1.828125 -8.171875q0 -4.515625 1.828125 -8.218735q1.84375 -3.71875 5.21875 -5.65625q3.390625 -1.9375 7.578125 -1.9375q4.234375 0 7.625 2.015625q3.390625 2.0 5.171875 5.625q1.78125 3.6093597 1.78125 8.156235q0 3.765625 -1.140625 6.78125q-1.140625 3.0 -3.453125 5.234375zm-8.90625 -5.171875q3.5 0.984375 5.78125 2.921875q3.5625 -3.25 3.5625 -9.765625q0 -3.71875 -1.265625 -6.4843597q-1.265625 -2.765625 -3.6875 -4.296875q-2.421875 -1.53125 -5.453125 -1.53125q-4.515625 0 -7.5 3.09375q-2.96875 3.09375 -2.96875 9.23436q0 5.953125 2.9375 9.140625q2.953125 3.1875 7.53125 3.1875q2.171875 0 4.09375 -0.8125q-1.90625 -1.234375 -4.0 -1.75l0.96875 -2.9375zm32.960663 8.4375l0 -3.25q-2.59375 3.75 -7.015625 3.75q-1.96875 0 -3.671875 -0.75q-1.6875 -0.75 -2.515625 -1.875q-0.8125 -1.140625 -1.15625 -2.796875q-0.21875 -1.09375 -0.21875 -3.5l0 -13.70311l3.75 0l0 12.26561q0 2.9375 0.21875 3.96875q0.359375 1.46875 1.5 2.3125q1.15625 0.84375 2.828125 0.84375q1.6875 0 3.171875 -0.859375q1.484375 -0.859375 2.09375 -2.34375q0.609375 -1.5 0.609375 -4.328125l0 -11.85936l3.75 0l0 22.124985l-3.34375 0zm24.363983 -7.125l3.875 0.484375q-0.921875 3.390625 -3.40625 5.265625q-2.46875 1.875 -6.328125 1.875q-4.84375 0 -7.6875 -2.984375q-2.84375 -3.0 -2.84375 -8.390625q0 -5.578125 2.875 -8.65625q2.875 -3.0937347 7.453125 -3.0937347q4.4375 0 7.25 3.0312347q2.8125 3.015625 2.8125 8.5q0 0.328125 -0.015625 0.984375l-16.5 0q0.203125 3.65625 2.0625 5.59375q1.859375 1.9375 4.625 1.9375q2.0625 0 3.515625 -1.078125q1.453125 -1.09375 2.3125 -3.46875zm-12.3125 -6.0625l12.359375 0q-0.25 -2.78125 -1.421875 -4.1875q-1.796875 -2.15625 -4.640625 -2.15625q-2.578125 0 -4.34375 1.734375q-1.765625 1.71875 -1.953125 4.609375zm35.395264 13.1875l0 -3.25q-2.59375 3.75 -7.015625 3.75q-1.96875 0 -3.671875 -0.75q-1.6875 -0.75 -2.515625 -1.875q-0.8125 -1.140625 -1.15625 -2.796875q-0.21875 -1.09375 -0.21875 -3.5l0 -13.70311l3.75 0l0 12.26561q0 2.9375 0.21875 3.96875q0.359375 1.46875 1.5 2.3125q1.15625 0.84375 2.828125 0.84375q1.6875 0 3.171875 -0.859375q1.484375 -0.859375 2.09375 -2.34375q0.609375 -1.5 0.609375 -4.328125l0 -11.85936l3.75 0l0 22.124985l-3.34375 0zm24.363983 -7.125l3.875 0.484375q-0.921875 3.390625 -3.40625 5.265625q-2.46875 1.875 -6.328125 1.875q-4.84375 0 -7.6875 -2.984375q-2.84375 -3.0 -2.84375 -8.390625q0 -5.578125 2.875 -8.65625q2.875 -3.0937347 7.453125 -3.0937347q4.4375 0 7.25 3.0312347q2.8125 3.015625 2.8125 8.5q0 0.328125 -0.015625 0.984375l-16.5 0q0.203125 3.65625 2.0625 5.59375q1.859375 1.9375 4.625 1.9375q2.0625 0 3.515625 -1.078125q1.453125 -1.09375 2.3125 -3.46875zm-12.3125 -6.0625l12.359375 0q-0.25 -2.78125 -1.421875 -4.1875q-1.796875 -2.15625 -4.640625 -2.15625q-2.578125 0 -4.34375 1.734375q-1.765625 1.71875 -1.953125 4.609375z" fill-rule="nonzero"/><path fill="#fce5cd" d="m661.1798 235.03937l322.86615 0l0 50.960632l-322.86615 0z" fill-rule="evenodd"/><path stroke="#000000" stroke-width="1.0" stroke-linejoin="round" stroke-linecap="butt" d="m661.1798 235.03937l322.86615 0l0 50.960632l-322.86615 0z" fill-rule="evenodd"/><path fill="#000000" d="m763.0605 275.97968l0 -30.531235l10.515625 0q3.5625 0 5.4375 0.4375q2.625 0.59375 4.46875 2.1875q2.421875 2.03125 3.609375 5.21875q1.203125 3.1718597 1.203125 7.2499847q0 3.484375 -0.8125 6.171875q-0.8125 2.6875 -2.078125 4.453125q-1.265625 1.75 -2.78125 2.765625q-1.515625 1.0 -3.65625 1.53125q-2.125 0.515625 -4.890625 0.515625l-11.015625 0zm4.03125 -3.609375l6.515625 0q3.03125 0 4.75 -0.5625q1.71875 -0.5625 2.734375 -1.578125q1.4375 -1.4375 2.234375 -3.859375q0.8125 -2.421875 0.8125 -5.890625q0 -4.7812347 -1.578125 -7.3593597q-1.578125 -2.578125 -3.828125 -3.453125q-1.625 -0.625 -5.21875 -0.625l-6.421875 0l0 23.32811zm41.429993 -3.515625l3.875 0.484375q-0.921875 3.390625 -3.40625 5.265625q-2.46875 1.875 -6.328125 1.875q-4.84375 0 -7.6875 -2.984375q-2.84375 -3.0 -2.84375 -8.390625q0 -5.578125 2.875 -8.65625q2.875 -3.0937347 7.453125 -3.0937347q4.4375 0 7.25 3.0312347q2.8125 3.015625 2.8125 8.5q0 0.328125 -0.015625 0.984375l-16.5 0q0.203125 3.65625 2.0625 5.59375q1.859375 1.9375 4.625 1.9375q2.0625 0 3.515625 -1.078125q1.453125 -1.09375 2.3125 -3.46875zm-12.3125 -6.0625l12.359375 0q-0.25 -2.78125 -1.421875 -4.1875q-1.796875 -2.15625 -4.640625 -2.15625q-2.578125 0 -4.34375 1.734375q-1.765625 1.71875 -1.953125 4.609375zm34.989014 21.671875l0 -10.84375q-0.875 1.234375 -2.453125 2.046875q-1.5625 0.8125 -3.328125 0.8125q-3.9375 0 -6.78125 -3.140625q-2.84375 -3.15625 -2.84375 -8.625q0 -3.328125 1.15625 -5.96875q1.15625 -2.65625 3.34375 -4.0156097q2.203125 -1.375 4.828125 -1.375q4.109375 0 6.453125 3.4687347l0 -2.9687347l3.375 0l0 30.60936l-3.75 0zm-11.546875 -19.609375q0 4.265625 1.78125 6.40625q1.796875 2.140625 4.296875 2.140625q2.390625 0 4.109375 -2.03125q1.734375 -2.03125 1.734375 -6.171875q0 -4.421875 -1.828125 -6.640625q-1.8125 -2.234375 -4.265625 -2.234375q-2.4375 0 -4.140625 2.078125q-1.6875 2.0625 -1.6875 6.453125zm35.676514 11.125l0 -3.25q-2.59375 3.75 -7.015625 3.75q-1.96875 0 -3.671875 -0.75q-1.6875 -0.75 -2.515625 -1.875q-0.8125 -1.140625 -1.15625 -2.796875q-0.21875 -1.09375 -0.21875 -3.5l0 -13.70311l3.75 0l0 12.26561q0 2.9375 0.21875 3.96875q0.359375 1.46875 1.5 2.3125q1.15625 0.84375 2.828125 0.84375q1.6875 0 3.171875 -0.859375q1.484375 -0.859375 2.09375 -2.34375q0.609375 -1.5 0.609375 -4.328125l0 -11.85936l3.75 0l0 22.124985l-3.34375 0zm24.363953 -7.125l3.875 0.484375q-0.921875 3.390625 -3.40625 5.265625q-2.46875 1.875 -6.328125 1.875q-4.84375 0 -7.6875 -2.984375q-2.84375 -3.0 -2.84375 -8.390625q0 -5.578125 2.875 -8.65625q2.875 -3.0937347 7.453125 -3.0937347q4.4375 0 7.25 3.0312347q2.8125 3.015625 2.8125 8.5q0 0.328125 -0.015625 0.984375l-16.5 0q0.203125 3.65625 2.0625 5.59375q1.859375 1.9375 4.625 1.9375q2.0625 0 3.515625 -1.078125q1.453125 -1.09375 2.3125 -3.46875zm-12.3125 -6.0625l12.359375 0q-0.25 -2.78125 -1.421875 -4.1875q-1.796875 -2.15625 -4.640625 -2.15625q-2.578125 0 -4.34375 1.734375q-1.765625 1.71875 -1.953125 4.609375z" fill-rule="nonzero"/><path fill="#fce5cd" d="m659.52625 23.464567l322.86615 0l0 50.960625l-322.86615 0z" fill-rule="evenodd"/><path stroke="#000000" stroke-width="1.0" stroke-linejoin="round" stroke-linecap="butt" d="m659.52625 23.464567l322.86615 0l0 50.960625l-322.86615 0z" fill-rule="evenodd"/><path fill="#000000" d="m682.94666 54.59238l3.8125 -0.328125q0.265625 2.28125 1.25 3.75q1.0 1.46875 3.078125 2.375q2.078125 0.90625 4.6875 0.90625q2.3125 0 4.078125 -0.6875q1.765625 -0.6875 2.625 -1.875q0.875 -1.203125 0.875 -2.625q0 -1.4375 -0.84375 -2.5q-0.828125 -1.078125 -2.734375 -1.796875q-1.234375 -0.484375 -5.4375 -1.484375q-4.203125 -1.015625 -5.890625 -1.921875q-2.1875 -1.140625 -3.265625 -2.828125q-1.078125 -1.703125 -1.078125 -3.8125q0 -2.3125 1.3125 -4.3125q1.3125 -2.015625 3.828125 -3.0625q2.53125 -1.046875 5.609375 -1.046875q3.390625 0 5.984375 1.09375q2.59375 1.09375 3.984375 3.21875q1.40625 2.125 1.515625 4.8125l-3.875 0.296875q-0.3125 -2.890625 -2.125 -4.375q-1.796875 -1.484375 -5.3125 -1.484375q-3.671875 0 -5.34375 1.34375q-1.671875 1.34375 -1.671875 3.25q0 1.640625 1.1875 2.703125q1.15625 1.0625 6.078125 2.1875q4.9375 1.109375 6.765625 1.9375q2.671875 1.234375 3.9375 3.125q1.265625 1.875 1.265625 4.328125q0 2.4375 -1.390625 4.59375q-1.390625 2.15625 -4.015625 3.359375q-2.609375 1.1875038 -5.875 1.1875038q-4.15625 0 -6.953125 -1.2031288q-2.796875 -1.203125 -4.390625 -3.625q-1.59375 -2.4375 -1.671875 -5.5zm44.482605 2.6875l3.875 0.484375q-0.921875 3.390625 -3.40625 5.265625q-2.46875 1.8750038 -6.328125 1.8750038q-4.84375 0 -7.6875 -2.9843788q-2.84375 -3.0 -2.84375 -8.390625q0 -5.578125 2.875 -8.65625q2.875 -3.09375 7.453125 -3.09375q4.4375 0 7.25 3.03125q2.8125 3.015625 2.8125 8.5q0 0.328125 -0.015625 0.984375l-16.5 0q0.203125 3.65625 2.0625 5.59375q1.859375 1.9375 4.625 1.9375q2.0625 0 3.515625 -1.078125q1.453125 -1.09375 2.3125 -3.46875zm-12.3125 -6.0625l12.359375 0q-0.25 -2.78125 -1.421875 -4.1875q-1.796875 -2.15625 -4.640625 -2.15625q-2.578125 0 -4.34375 1.734375q-1.765625 1.71875 -1.953125 4.609375zm34.989014 21.671879l0 -10.843754q-0.875 1.234375 -2.453125 2.0468788q-1.5625 0.8125 -3.328125 0.8125q-3.9375 0 -6.78125 -3.1406288q-2.84375 -3.15625 -2.84375 -8.625q0 -3.328125 1.15625 -5.96875q1.15625 -2.65625 3.34375 -4.015625q2.203125 -1.375 4.828125 -1.375q4.109375 0 6.453125 3.46875l0 -2.96875l3.375 0l0 30.609379l-3.75 0zm-11.546875 -19.609379q0 4.265625 1.78125 6.40625q1.796875 2.140625 4.296875 2.140625q2.390625 0 4.109375 -2.03125q1.734375 -2.03125 1.734375 -6.171875q0 -4.421875 -1.828125 -6.640625q-1.8125 -2.234375 -4.265625 -2.234375q-2.4375 0 -4.140625 2.078125q-1.6875 2.0625 -1.6875 6.453125zm35.676514 11.125004l0 -3.2500038q-2.59375 3.7500038 -7.015625 3.7500038q-1.96875 0 -3.671875 -0.75q-1.6875 -0.7500038 -2.515625 -1.8750038q-0.8125 -1.140625 -1.15625 -2.796875q-0.21875 -1.09375 -0.21875 -3.5l0 -13.703125l3.75 0l0 12.265625q0 2.9375 0.21875 3.96875q0.359375 1.46875 1.5 2.3125q1.15625 0.84375 2.828125 0.84375q1.6875 0 3.171875 -0.859375q1.484375 -0.859375 2.09375 -2.34375q0.609375 -1.5 0.609375 -4.328125l0 -11.859375l3.75 0l0 22.125004l-3.34375 0zm24.363953 -7.125004l3.875 0.484375q-0.921875 3.390625 -3.40625 5.265625q-2.46875 1.8750038 -6.328125 1.8750038q-4.84375 0 -7.6875 -2.9843788q-2.84375 -3.0 -2.84375 -8.390625q0 -5.578125 2.875 -8.65625q2.875 -3.09375 7.453125 -3.09375q4.4375 0 7.25 3.03125q2.8125 3.015625 2.8125 8.5q0 0.328125 -0.015625 0.984375l-16.5 0q0.203125 3.65625 2.0625 5.59375q1.859375 1.9375 4.625 1.9375q2.0625 0 3.515625 -1.078125q1.453125 -1.09375 2.3125 -3.46875zm-12.3125 -6.0625l12.359375 0q-0.25 -2.78125 -1.421875 -4.1875q-1.796875 -2.15625 -4.640625 -2.15625q-2.578125 0 -4.34375 1.734375q-1.765625 1.71875 -1.953125 4.609375zm20.895264 13.187504l0 -22.125004l3.375 0l0 3.15625q2.4375 -3.65625 7.03125 -3.65625q2.0 0 3.671875 0.71875q1.6875 0.71875 2.515625 1.890625q0.84375 1.171875 1.171875 2.765625q0.203125 1.046875 0.203125 3.65625l0 13.593754l-3.75 0l0 -13.453129q0 -2.296875 -0.4375 -3.421875q-0.4375 -1.140625 -1.546875 -1.8125q-1.109375 -0.6875 -2.609375 -0.6875q-2.390625 0 -4.140625 1.53125q-1.734375 1.515625 -1.734375 5.765625l0 12.078129l-3.75 0zm38.16089 -8.109379l3.6875 0.484375q-0.609375 3.8125 -3.109375 5.96875q-2.484375 2.1562538 -6.109375 2.1562538q-4.53125 0 -7.296875 -2.9687538q-2.75 -2.96875 -2.75 -8.5q0 -3.59375 1.1875 -6.28125q1.1875 -2.6875 3.609375 -4.03125q2.421875 -1.34375 5.28125 -1.34375q3.59375 0 5.890625 1.828125q2.296875 1.828125 2.9375 5.171875l-3.640625 0.5625q-0.53125 -2.21875 -1.859375 -3.34375q-1.3125 -1.125 -3.1875 -1.125q-2.828125 0 -4.609375 2.03125q-1.765625 2.03125 -1.765625 6.421875q0 4.453125 1.703125 6.484375q1.71875 2.015625 4.46875 2.015625q2.203125 0 3.671875 -1.359375q1.484375 -1.359375 1.890625 -4.171875zm22.03125 0.984375l3.875 0.484375q-0.921875 3.390625 -3.40625 5.265625q-2.46875 1.8750038 -6.328125 1.8750038q-4.84375 0 -7.6875 -2.9843788q-2.84375 -3.0 -2.84375 -8.390625q0 -5.578125 2.875 -8.65625q2.875 -3.09375 7.453125 -3.09375q4.4375 0 7.25 3.03125q2.8125 3.015625 2.8125 8.5q0 0.328125 -0.015625 0.984375l-16.5 0q0.203125 3.65625 2.0625 5.59375q1.859375 1.9375 4.625 1.9375q2.0625 0 3.515625 -1.078125q1.453125 -1.09375 2.3125 -3.46875zm-12.3125 -6.0625l12.359375 0q-0.25 -2.78125 -1.421875 -4.1875q-1.796875 -2.15625 -4.640625 -2.15625q-2.578125 0 -4.34375 1.734375q-1.765625 1.71875 -1.953125 4.609375zm35.239014 13.187504l0 -2.7968788q-2.09375 3.2968788 -6.1875 3.2968788q-2.640625 0 -4.859375 -1.4531288q-2.21875 -1.46875 -3.4375 -4.078125q-1.21875 -2.609375 -1.21875 -6.0q0 -3.3125 1.109375 -6.015625q1.109375 -2.703125 3.3125 -4.140625q2.203125 -1.4375 4.9375 -1.4375q2.0 0 3.5625 0.84375q1.5625 0.84375 2.53125 2.203125l0 -10.953125l3.734375 0l0 30.531254l-3.484375 0zm-11.84375 -11.031254q0 4.234375 1.78125 6.34375q1.796875 2.109375 4.234375 2.109375q2.453125 0 4.171875 -2.015625q1.71875 -2.015625 1.71875 -6.125q0 -4.546875 -1.75 -6.671875q-1.75 -2.125 -4.3125 -2.125q-2.484375 0 -4.171875 2.046875q-1.671875 2.03125 -1.671875 6.4375zm20.332703 1.21875l3.8125 -0.328125q0.265625 2.28125 1.25 3.75q1.0 1.46875 3.078125 2.375q2.078125 0.90625 4.6875 0.90625q2.3125 0 4.078125 -0.6875q1.765625 -0.6875 2.625 -1.875q0.875 -1.203125 0.875 -2.625q0 -1.4375 -0.84375 -2.5q-0.828125 -1.078125 -2.734375 -1.796875q-1.234375 -0.484375 -5.4375 -1.484375q-4.203125 -1.015625 -5.890625 -1.921875q-2.1875 -1.140625 -3.265625 -2.828125q-1.078125 -1.703125 -1.078125 -3.8125q0 -2.3125 1.3125 -4.3125q1.3125 -2.015625 3.828125 -3.0625q2.53125 -1.046875 5.609375 -1.046875q3.390625 0 5.984375 1.09375q2.59375 1.09375 3.984375 3.21875q1.40625 2.125 1.515625 4.8125l-3.875 0.296875q-0.3125 -2.890625 -2.125 -4.375q-1.796875 -1.484375 -5.3125 -1.484375q-3.671875 0 -5.34375 1.34375q-1.671875 1.34375 -1.671875 3.25q0 1.640625 1.1875 2.703125q1.15625 1.0625 6.078125 2.1875q4.9375 1.109375 6.765625 1.9375q2.671875 1.234375 3.9375 3.125q1.265625 1.875 1.265625 4.328125q0 2.4375 -1.390625 4.59375q-1.390625 2.15625 -4.015625 3.359375q-2.609375 1.1875038 -5.875 1.1875038q-4.15625 0 -6.953125 -1.2031288q-2.796875 -1.203125 -4.390625 -3.625q-1.59375 -2.4375 -1.671875 -5.5zm44.482666 2.6875l3.875 0.484375q-0.921875 3.390625 -3.40625 5.265625q-2.46875 1.8750038 -6.328125 1.8750038q-4.84375 0 -7.6875 -2.9843788q-2.84375 -3.0 -2.84375 -8.390625q0 -5.578125 2.875 -8.65625q2.875 -3.09375 7.453125 -3.09375q4.4375 0 7.25 3.03125q2.8125 3.015625 2.8125 8.5q0 0.328125 -0.015625 0.984375l-16.5 0q0.203125 3.65625 2.0625 5.59375q1.859375 1.9375 4.625 1.9375q2.0625 0 3.515625 -1.078125q1.453125 -1.09375 2.3125 -3.46875zm-12.3125 -6.0625l12.359375 0q-0.25 -2.78125 -1.421875 -4.1875q-1.796875 -2.15625 -4.640625 -2.15625q-2.578125 0 -4.34375 1.734375q-1.765625 1.71875 -1.953125 4.609375zm29.082764 9.828125l0.53125 3.3125038q-1.578125 0.34375 -2.828125 0.34375q-2.03125 0 -3.15625 -0.640625q-1.125 -0.6562538 -1.59375 -1.7031288q-0.453125 -1.0625 -0.453125 -4.4375l0 -12.71875l-2.75 0l0 -2.921875l2.75 0l0 -5.46875l3.734375 -2.25l0 7.71875l3.765625 0l0 2.921875l-3.765625 0l0 12.9375q0 1.59375 0.1875 2.0625q0.203125 0.453125 0.640625 0.734375q0.453125 0.265625 1.296875 0.265625q0.625 0 1.640625 -0.15625z" fill-rule="nonzero"/><path fill="#000000" fill-opacity="0.0" d="m661.16406 154.73228l-86.01575 0" fill-rule="evenodd"/><path stroke="#000000" stroke-width="4.0" stroke-linejoin="round" stroke-linecap="butt" d="m661.16406 154.73228l-62.015747 0" fill-rule="evenodd"/><path fill="#000000" stroke="#000000" stroke-width="4.0" stroke-linecap="butt" d="m599.1483 148.12535l-18.152405 6.6069336l18.152405 6.6069336z" fill-rule="evenodd"/><path fill="#000000" fill-opacity="0.0" d="m661.1798 260.51968l-87.37012 0" fill-rule="evenodd"/><path stroke="#000000" stroke-width="4.0" stroke-linejoin="round" stroke-linecap="butt" d="m661.1798 260.51968l-63.370117 0" fill-rule="evenodd"/><path fill="#000000" stroke="#000000" stroke-width="4.0" stroke-linecap="butt" d="m597.8097 253.91275l-18.152344 6.6069336l18.152344 6.6069336z" fill-rule="evenodd"/><path fill="#000000" fill-opacity="0.0" d="m659.52625 48.94488l-85.7323 0" fill-rule="evenodd"/><path stroke="#000000" stroke-width="4.0" stroke-linejoin="round" stroke-linecap="butt" d="m659.52625 48.94488l-61.7323 0" fill-rule="evenodd"/><path fill="#000000" stroke="#000000" stroke-width="4.0" stroke-linecap="butt" d="m597.79395 42.33795l-18.152344 6.60693l18.152344 6.60693z" fill-rule="evenodd"/><path fill="#000000" fill-opacity="0.0" d="m122.92912 129.25197l0 -54.83465" fill-rule="evenodd"/><path stroke="#000000" stroke-width="4.0" stroke-linejoin="round" stroke-linecap="butt" d="m122.92912 129.25197l0 -30.834648" fill-rule="evenodd"/><path fill="#000000" stroke="#000000" stroke-width="4.0" stroke-linecap="butt" d="m129.53606 98.41732l-6.6069336 -18.15239l-6.606926 18.15239z" fill-rule="evenodd"/><path fill="#000000" fill-opacity="0.0" d="m329.92126 154.73097l-85.732285 0" fill-rule="evenodd"/><path stroke="#000000" stroke-width="4.0" stroke-linejoin="round" stroke-linecap="butt" d="m329.92126 154.73097l-61.7323 0" fill-rule="evenodd"/><path fill="#000000" stroke="#000000" stroke-width="4.0" stroke-linecap="butt" d="m268.18896 148.12404l-18.152374 6.6069336l18.152374 6.6069336z" fill-rule="evenodd"/><path fill="#000000" fill-opacity="0.0" d="m329.92126 48.94488l-42.86615 0l0 105.79527l-42.866135 0" fill-rule="evenodd"/><path stroke="#000000" stroke-width="4.0" stroke-linejoin="round" stroke-linecap="butt" d="m329.92126 48.94488l-42.86615 0l0 105.79527l-18.86615 0" fill-rule="evenodd"/><path fill="#000000" stroke="#000000" stroke-width="4.0" stroke-linecap="butt" d="m268.18896 148.13322l-18.152374 6.6069336l18.152374 6.6069336z" fill-rule="evenodd"/><path fill="#000000" fill-opacity="0.0" d="m329.92126 260.51968l-42.86615 0l0 -105.79527l-42.866135 0" fill-rule="evenodd"/><path stroke="#000000" stroke-width="4.0" stroke-linejoin="round" stroke-linecap="butt" d="m329.92126 260.51968l-42.86615 0l0 -105.79527l-18.86615 0" fill-rule="evenodd"/><path fill="#000000" stroke="#000000" stroke-width="4.0" stroke-linecap="butt" d="m268.18896 148.11748l-18.152374 6.6069336l18.152374 6.6069336z" fill-rule="evenodd"/><path fill="#000000" fill-opacity="0.0" d="m659.52625 48.94488l-42.188965 0l0 78.29921l-42.188965 0" fill-rule="evenodd"/><path stroke="#000000" stroke-width="4.0" stroke-linejoin="round" stroke-linecap="butt" d="m659.52625 48.94488l-42.188965 0l0 78.29921l-18.188965 0" fill-rule="evenodd"/><path fill="#000000" stroke="#000000" stroke-width="4.0" stroke-linecap="butt" d="m599.1483 120.63716l-18.152405 6.6069336l18.152405 6.6069336z" fill-rule="evenodd"/><path fill="#000000" fill-opacity="0.0" d="m661.1798 260.51968l-43.007874 0l0 -79.30708l-43.007874 0" fill-rule="evenodd"/><path stroke="#000000" stroke-width="4.0" stroke-linejoin="round" stroke-linecap="butt" d="m661.1798 260.51968l-43.007874 0l0 -79.30708l-19.007874 0" fill-rule="evenodd"/><path fill="#000000" stroke="#000000" stroke-width="4.0" stroke-linecap="butt" d="m599.16406 174.60567l-18.152405 6.6069336l18.152405 6.6069336z" fill-rule="evenodd"/><path fill="#fce5cd" d="m1061.8031 23.464567l243.87402 0l0 50.960625l-243.87402 0z" fill-rule="evenodd"/><path stroke="#000000" stroke-width="1.0" stroke-linejoin="round" stroke-linecap="butt" d="m1061.8031 23.464567l243.87402 0l0 50.960625l-243.87402 0z" fill-rule="evenodd"/><path fill="#000000" d="m1090.8102 54.59238l3.8125 -0.328125q0.265625 2.28125 1.25 3.75q1.0 1.46875 3.078125 2.375q2.078125 0.90625 4.6875 0.90625q2.3125 0 4.078125 -0.6875q1.765625 -0.6875 2.625 -1.875q0.875 -1.203125 0.875 -2.625q0 -1.4375 -0.84375 -2.5q-0.828125 -1.078125 -2.734375 -1.796875q-1.234375 -0.484375 -5.4375 -1.484375q-4.203125 -1.015625 -5.890625 -1.921875q-2.1875 -1.140625 -3.265625 -2.828125q-1.078125 -1.703125 -1.078125 -3.8125q0 -2.3125 1.3125 -4.3125q1.3125 -2.015625 3.828125 -3.0625q2.53125 -1.046875 5.609375 -1.046875q3.390625 0 5.984375 1.09375q2.59375 1.09375 3.984375 3.21875q1.40625 2.125 1.515625 4.8125l-3.875 0.296875q-0.3125 -2.890625 -2.125 -4.375q-1.796875 -1.484375 -5.3125 -1.484375q-3.671875 0 -5.34375 1.34375q-1.671875 1.34375 -1.671875 3.25q0 1.640625 1.1875 2.703125q1.15625 1.0625 6.078125 2.1875q4.9375 1.109375 6.765625 1.9375q2.671875 1.234375 3.9375 3.125q1.265625 1.875 1.265625 4.328125q0 2.4375 -1.390625 4.59375q-1.390625 2.15625 -4.015625 3.359375q-2.609375 1.1875038 -5.875 1.1875038q-4.15625 0 -6.953125 -1.2031288q-2.796875 -1.203125 -4.390625 -3.625q-1.59375 -2.4375 -1.671875 -5.5zm27.951416 -1.25q0 -6.140625 3.40625 -9.09375q2.859375 -2.46875 6.953125 -2.46875q4.5625 0 7.453125 3.0q2.90625 2.984375 2.90625 8.25q0 4.265625 -1.28125 6.71875q-1.28125 2.453125 -3.734375 3.8125q-2.4375 1.3437538 -5.34375 1.3437538q-4.640625 0 -7.5 -2.9687538q-2.859375 -2.984375 -2.859375 -8.59375zm3.84375 0q0 4.25 1.859375 6.375q1.859375 2.109375 4.65625 2.109375q2.796875 0 4.640625 -2.125q1.859375 -2.125 1.859375 -6.484375q0 -4.09375 -1.859375 -6.203125q-1.859375 -2.125 -4.640625 -2.125q-2.796875 0 -4.65625 2.109375q-1.859375 2.09375 -1.859375 6.34375zm21.223389 11.062504l0 -22.125004l3.375 0l0 3.359375q1.296875 -2.359375 2.390625 -3.109375q1.09375 -0.75 2.40625 -0.75q1.890625 0 3.84375 1.21875l-1.28125 3.46875q-1.375 -0.8125 -2.75 -0.8125q-1.234375 0 -2.21875 0.75q-0.96875 0.734375 -1.390625 2.046875q-0.625 2.0 -0.625 4.375l0 11.578129l-3.75 0zm22.439209 -3.3593788l0.53125 3.3125038q-1.578125 0.34375 -2.828125 0.34375q-2.03125 0 -3.15625 -0.640625q-1.125 -0.6562538 -1.59375 -1.7031288q-0.453125 -1.0625 -0.453125 -4.4375l0 -12.71875l-2.75 0l0 -2.921875l2.75 0l0 -5.46875l3.734375 -2.25l0 7.71875l3.765625 0l0 2.921875l-3.765625 0l0 12.9375q0 1.59375 0.1875 2.0625q0.203125 0.453125 0.640625 0.734375q0.453125 0.265625 1.296875 0.265625q0.625 0 1.640625 -0.15625zm18.804443 -3.765625l3.875 0.484375q-0.921875 3.390625 -3.40625 5.265625q-2.46875 1.8750038 -6.328125 1.8750038q-4.84375 0 -7.6875 -2.9843788q-2.84375 -3.0 -2.84375 -8.390625q0 -5.578125 2.875 -8.65625q2.875 -3.09375 7.453125 -3.09375q4.4375 0 7.25 3.03125q2.8125 3.015625 2.8125 8.5q0 0.328125 -0.015625 0.984375l-16.5 0q0.203125 3.65625 2.0625 5.59375q1.859375 1.9375 4.625 1.9375q2.0625 0 3.515625 -1.078125q1.453125 -1.09375 2.3125 -3.46875zm-12.3125 -6.0625l12.359375 0q-0.25 -2.78125 -1.421875 -4.1875q-1.796875 -2.15625 -4.640625 -2.15625q-2.578125 0 -4.34375 1.734375q-1.765625 1.71875 -1.953125 4.609375zm35.23889 13.187504l0 -2.7968788q-2.09375 3.2968788 -6.1875 3.2968788q-2.640625 0 -4.859375 -1.4531288q-2.21875 -1.46875 -3.4375 -4.078125q-1.21875 -2.609375 -1.21875 -6.0q0 -3.3125 1.109375 -6.015625q1.109375 -2.703125 3.3125 -4.140625q2.203125 -1.4375 4.9375 -1.4375q2.0 0 3.5625 0.84375q1.5625 0.84375 2.53125 2.203125l0 -10.953125l3.734375 0l0 30.531254l-3.484375 0zm-11.84375 -11.031254q0 4.234375 1.78125 6.34375q1.796875 2.109375 4.234375 2.109375q2.453125 0 4.171875 -2.015625q1.71875 -2.015625 1.71875 -6.125q0 -4.546875 -1.75 -6.671875q-1.75 -2.125 -4.3125 -2.125q-2.484375 0 -4.171875 2.046875q-1.671875 2.03125 -1.671875 6.4375zm20.332764 1.21875l3.8125 -0.328125q0.265625 2.28125 1.25 3.75q1.0 1.46875 3.078125 2.375q2.078125 0.90625 4.6875 0.90625q2.3125 0 4.078125 -0.6875q1.765625 -0.6875 2.625 -1.875q0.875 -1.203125 0.875 -2.625q0 -1.4375 -0.84375 -2.5q-0.828125 -1.078125 -2.734375 -1.796875q-1.234375 -0.484375 -5.4375 -1.484375q-4.203125 -1.015625 -5.890625 -1.921875q-2.1875 -1.140625 -3.265625 -2.828125q-1.078125 -1.703125 -1.078125 -3.8125q0 -2.3125 1.3125 -4.3125q1.3125 -2.015625 3.828125 -3.0625q2.53125 -1.046875 5.609375 -1.046875q3.390625 0 5.984375 1.09375q2.59375 1.09375 3.984375 3.21875q1.40625 2.125 1.515625 4.8125l-3.875 0.296875q-0.3125 -2.890625 -2.125 -4.375q-1.796875 -1.484375 -5.3125 -1.484375q-3.671875 0 -5.34375 1.34375q-1.671875 1.34375 -1.671875 3.25q0 1.640625 1.1875 2.703125q1.15625 1.0625 6.078125 2.1875q4.9375 1.109375 6.765625 1.9375q2.671875 1.234375 3.9375 3.125q1.265625 1.875 1.265625 4.328125q0 2.4375 -1.390625 4.59375q-1.390625 2.15625 -4.015625 3.359375q-2.609375 1.1875038 -5.875 1.1875038q-4.15625 0 -6.953125 -1.2031288q-2.796875 -1.203125 -4.390625 -3.625q-1.59375 -2.4375 -1.671875 -5.5zm44.482666 2.6875l3.875 0.484375q-0.921875 3.390625 -3.40625 5.265625q-2.46875 1.8750038 -6.328125 1.8750038q-4.84375 0 -7.6875 -2.9843788q-2.84375 -3.0 -2.84375 -8.390625q0 -5.578125 2.875 -8.65625q2.875 -3.09375 7.453125 -3.09375q4.4375 0 7.25 3.03125q2.8125 3.015625 2.8125 8.5q0 0.328125 -0.015625 0.984375l-16.5 0q0.203125 3.65625 2.0625 5.59375q1.859375 1.9375 4.625 1.9375q2.0625 0 3.515625 -1.078125q1.453125 -1.09375 2.3125 -3.46875zm-12.3125 -6.0625l12.359375 0q-0.25 -2.78125 -1.421875 -4.1875q-1.796875 -2.15625 -4.640625 -2.15625q-2.578125 0 -4.34375 1.734375q-1.765625 1.71875 -1.953125 4.609375zm29.082764 9.828125l0.53125 3.3125038q-1.578125 0.34375 -2.828125 0.34375q-2.03125 0 -3.15625 -0.640625q-1.125 -0.6562538 -1.59375 -1.7031288q-0.453125 -1.0625 -0.453125 -4.4375l0 -12.71875l-2.75 0l0 -2.921875l2.75 0l0 -5.46875l3.734375 -2.25l0 7.71875l3.765625 0l0 2.921875l-3.765625 0l0 12.9375q0 1.59375 0.1875 2.0625q0.203125 0.453125 0.640625 0.734375q0.453125 0.265625 1.296875 0.265625q0.625 0 1.640625 -0.15625z" fill-rule="nonzero"/><path fill="#000000" fill-opacity="0.0" d="m1061.8031 48.94488l-79.40155 0" fill-rule="evenodd"/><path stroke="#000000" stroke-width="4.0" stroke-linejoin="round" stroke-linecap="butt" d="m1061.8031 48.94488l-55.40155 0" fill-rule="evenodd"/><path fill="#000000" stroke="#000000" stroke-width="4.0" stroke-linecap="butt" d="m1006.40155 42.33795l-18.152344 6.60693l18.152344 6.60693z" fill-rule="evenodd"/></g></svg>